%TF.GenerationSoftware,KiCad,Pcbnew,9.0.5*%
%TF.CreationDate,2025-10-16T10:11:21+02:00*%
%TF.ProjectId,gaia-muon,67616961-2d6d-4756-9f6e-2e6b69636164,10*%
%TF.SameCoordinates,Original*%
%TF.FileFunction,Copper,L1,Top*%
%TF.FilePolarity,Positive*%
%FSLAX46Y46*%
G04 Gerber Fmt 4.6, Leading zero omitted, Abs format (unit mm)*
G04 Created by KiCad (PCBNEW 9.0.5) date 2025-10-16 10:11:21*
%MOMM*%
%LPD*%
G01*
G04 APERTURE LIST*
G04 Aperture macros list*
%AMRoundRect*
0 Rectangle with rounded corners*
0 $1 Rounding radius*
0 $2 $3 $4 $5 $6 $7 $8 $9 X,Y pos of 4 corners*
0 Add a 4 corners polygon primitive as box body*
4,1,4,$2,$3,$4,$5,$6,$7,$8,$9,$2,$3,0*
0 Add four circle primitives for the rounded corners*
1,1,$1+$1,$2,$3*
1,1,$1+$1,$4,$5*
1,1,$1+$1,$6,$7*
1,1,$1+$1,$8,$9*
0 Add four rect primitives between the rounded corners*
20,1,$1+$1,$2,$3,$4,$5,0*
20,1,$1+$1,$4,$5,$6,$7,0*
20,1,$1+$1,$6,$7,$8,$9,0*
20,1,$1+$1,$8,$9,$2,$3,0*%
%AMFreePoly0*
4,1,77,1.316848,3.199528,1.349699,3.192030,1.380057,3.177410,1.406402,3.156402,1.427410,3.130057,1.442030,3.099699,1.449528,3.066848,1.450000,3.050000,1.450000,1.450000,3.050000,1.450000,3.066848,1.449528,3.099699,1.442030,3.130057,1.427410,3.156402,1.406402,3.177410,1.380057,3.192030,1.349699,3.199528,1.316848,3.200000,1.300000,3.200000,-1.300000,3.199528,-1.316848,
3.192030,-1.349699,3.177410,-1.380057,3.156402,-1.406402,3.130057,-1.427410,3.099699,-1.442030,3.066848,-1.449528,3.050000,-1.450000,1.450000,-1.450000,1.450000,-3.050000,1.449528,-3.066848,1.442030,-3.099699,1.427410,-3.130057,1.406402,-3.156402,1.380057,-3.177410,1.349699,-3.192030,1.316848,-3.199528,1.300000,-3.200000,-1.300000,-3.200000,-1.316848,-3.199528,-1.349699,-3.192030,
-1.380057,-3.177410,-1.406402,-3.156402,-1.427410,-3.130057,-1.442030,-3.099699,-1.449528,-3.066848,-1.450000,-3.050000,-1.450000,-1.450000,-3.050000,-1.450000,-3.066848,-1.449528,-3.099699,-1.442030,-3.130057,-1.427410,-3.156402,-1.406402,-3.177410,-1.380057,-3.192030,-1.349699,-3.199528,-1.316848,-3.200000,-1.300000,-3.200000,1.300000,-3.199528,1.316848,-3.192030,1.349699,-3.177410,1.380057,
-3.156402,1.406402,-3.130057,1.427410,-3.099699,1.442030,-3.066848,1.449528,-3.050000,1.450000,-1.450000,1.450000,-1.450000,3.050000,-1.449528,3.066848,-1.442030,3.099699,-1.427410,3.130057,-1.406402,3.156402,-1.380057,3.177410,-1.349699,3.192030,-1.316848,3.199528,-1.300000,3.200000,1.300000,3.200000,1.316848,3.199528,1.316848,3.199528,$1*%
G04 Aperture macros list end*
%TA.AperFunction,EtchedComponent*%
%ADD10C,0.000000*%
%TD*%
%TA.AperFunction,SMDPad,CuDef*%
%ADD11RoundRect,0.140000X0.140000X0.170000X-0.140000X0.170000X-0.140000X-0.170000X0.140000X-0.170000X0*%
%TD*%
%TA.AperFunction,SMDPad,CuDef*%
%ADD12RoundRect,0.250000X0.262500X0.450000X-0.262500X0.450000X-0.262500X-0.450000X0.262500X-0.450000X0*%
%TD*%
%TA.AperFunction,ComponentPad*%
%ADD13RoundRect,1.200000X-0.000010X1.000000X-0.000010X-1.000000X0.000010X-1.000000X0.000010X1.000000X0*%
%TD*%
%TA.AperFunction,ComponentPad*%
%ADD14RoundRect,1.200000X1.000000X0.000010X-1.000000X0.000010X-1.000000X-0.000010X1.000000X-0.000010X0*%
%TD*%
%TA.AperFunction,ComponentPad*%
%ADD15RoundRect,1.200000X-1.000000X-0.000010X1.000000X-0.000010X1.000000X0.000010X-1.000000X0.000010X0*%
%TD*%
%TA.AperFunction,SMDPad,CuDef*%
%ADD16RoundRect,0.135000X0.185000X-0.135000X0.185000X0.135000X-0.185000X0.135000X-0.185000X-0.135000X0*%
%TD*%
%TA.AperFunction,SMDPad,CuDef*%
%ADD17RoundRect,0.250000X-0.262500X-0.450000X0.262500X-0.450000X0.262500X0.450000X-0.262500X0.450000X0*%
%TD*%
%TA.AperFunction,ComponentPad*%
%ADD18R,2.580000X1.000000*%
%TD*%
%TA.AperFunction,SMDPad,CuDef*%
%ADD19RoundRect,0.135000X-0.135000X-0.185000X0.135000X-0.185000X0.135000X0.185000X-0.135000X0.185000X0*%
%TD*%
%TA.AperFunction,SMDPad,CuDef*%
%ADD20RoundRect,0.150000X0.587500X0.150000X-0.587500X0.150000X-0.587500X-0.150000X0.587500X-0.150000X0*%
%TD*%
%TA.AperFunction,SMDPad,CuDef*%
%ADD21RoundRect,0.162500X-0.650000X-0.162500X0.650000X-0.162500X0.650000X0.162500X-0.650000X0.162500X0*%
%TD*%
%TA.AperFunction,SMDPad,CuDef*%
%ADD22RoundRect,0.218750X-0.256250X0.218750X-0.256250X-0.218750X0.256250X-0.218750X0.256250X0.218750X0*%
%TD*%
%TA.AperFunction,SMDPad,CuDef*%
%ADD23RoundRect,0.250000X-0.475000X0.250000X-0.475000X-0.250000X0.475000X-0.250000X0.475000X0.250000X0*%
%TD*%
%TA.AperFunction,SMDPad,CuDef*%
%ADD24RoundRect,0.135000X0.135000X0.185000X-0.135000X0.185000X-0.135000X-0.185000X0.135000X-0.185000X0*%
%TD*%
%TA.AperFunction,SMDPad,CuDef*%
%ADD25RoundRect,0.150000X0.150000X-0.400000X0.150000X0.400000X-0.150000X0.400000X-0.150000X-0.400000X0*%
%TD*%
%TA.AperFunction,SMDPad,CuDef*%
%ADD26RoundRect,0.150000X-0.400000X-0.150000X0.400000X-0.150000X0.400000X0.150000X-0.400000X0.150000X0*%
%TD*%
%TA.AperFunction,SMDPad,CuDef*%
%ADD27RoundRect,0.150000X-0.150000X0.400000X-0.150000X-0.400000X0.150000X-0.400000X0.150000X0.400000X0*%
%TD*%
%TA.AperFunction,SMDPad,CuDef*%
%ADD28FreePoly0,0.000000*%
%TD*%
%TA.AperFunction,SMDPad,CuDef*%
%ADD29RoundRect,0.250000X0.250000X0.475000X-0.250000X0.475000X-0.250000X-0.475000X0.250000X-0.475000X0*%
%TD*%
%TA.AperFunction,SMDPad,CuDef*%
%ADD30RoundRect,0.250000X-0.250000X-0.475000X0.250000X-0.475000X0.250000X0.475000X-0.250000X0.475000X0*%
%TD*%
%TA.AperFunction,SMDPad,CuDef*%
%ADD31RoundRect,0.250000X0.450000X-0.262500X0.450000X0.262500X-0.450000X0.262500X-0.450000X-0.262500X0*%
%TD*%
%TA.AperFunction,ComponentPad*%
%ADD32C,1.700000*%
%TD*%
%TA.AperFunction,ViaPad*%
%ADD33C,0.800000*%
%TD*%
%TA.AperFunction,ViaPad*%
%ADD34C,0.500000*%
%TD*%
%TA.AperFunction,ViaPad*%
%ADD35C,0.600000*%
%TD*%
%TA.AperFunction,ViaPad*%
%ADD36C,0.550000*%
%TD*%
%TA.AperFunction,ViaPad*%
%ADD37C,0.520000*%
%TD*%
%TA.AperFunction,Conductor*%
%ADD38C,0.600000*%
%TD*%
%TA.AperFunction,Conductor*%
%ADD39C,0.400000*%
%TD*%
%TA.AperFunction,Conductor*%
%ADD40C,0.200000*%
%TD*%
%TA.AperFunction,Conductor*%
%ADD41C,0.800000*%
%TD*%
%TA.AperFunction,Conductor*%
%ADD42C,0.500000*%
%TD*%
%TA.AperFunction,Conductor*%
%ADD43C,0.700000*%
%TD*%
G04 APERTURE END LIST*
D10*
%TA.AperFunction,EtchedComponent*%
%TO.C,U6*%
G36*
X165000000Y-96696938D02*
G01*
X161000000Y-96696938D01*
X161000000Y-104696938D01*
X165000000Y-104696938D01*
X165000000Y-115196938D01*
X152000000Y-115196938D01*
G75*
G02*
X150500000Y-113696938I0J1500038D01*
G01*
X150500000Y-87696938D01*
G75*
G02*
X152000000Y-86196938I1500000J38D01*
G01*
X165000000Y-86196938D01*
X165000000Y-96696938D01*
G37*
%TD.AperFunction*%
%TA.AperFunction,EtchedComponent*%
G36*
X178000000Y-86196938D02*
G01*
X178000000Y-86196938D01*
G75*
G02*
X179500000Y-87696938I0J-1499962D01*
G01*
X179500000Y-113696938D01*
G75*
G02*
X178000000Y-115196938I-1500000J38D01*
G01*
X165000000Y-115196938D01*
X165000000Y-104696938D01*
X169000000Y-104696938D01*
X169000000Y-96696938D01*
X165000000Y-96696938D01*
X165000000Y-86196938D01*
X178000000Y-86196938D01*
G37*
%TD.AperFunction*%
%TD*%
D11*
%TO.P,C28,1*%
%TO.N,+3.3V*%
X144180000Y-84950000D03*
%TO.P,C28,2*%
%TO.N,GND*%
X143220000Y-84950000D03*
%TD*%
D12*
%TO.P,R4,1*%
%TO.N,Net-(Q1-D)*%
X162662500Y-118400000D03*
%TO.P,R4,2*%
%TO.N,Peak*%
X160837500Y-118400000D03*
%TD*%
D13*
%TO.P,U6,*%
%TO.N,*%
X150500000Y-93196938D03*
X150500000Y-108196938D03*
D14*
X157500000Y-86196938D03*
D15*
X157500000Y-115196938D03*
D14*
X172500000Y-86196938D03*
X172500000Y-115196938D03*
D13*
X179500000Y-93196938D03*
X179500000Y-108196938D03*
%TD*%
D11*
%TO.P,C29,1*%
%TO.N,+3.3V*%
X144180000Y-85900000D03*
%TO.P,C29,2*%
%TO.N,GND*%
X143220000Y-85900000D03*
%TD*%
D16*
%TO.P,R22,1*%
%TO.N,Net-(D5-K)*%
X174500000Y-77310000D03*
%TO.P,R22,2*%
%TO.N,GND*%
X174500000Y-76290000D03*
%TD*%
D17*
%TO.P,R18,1*%
%TO.N,VRef*%
X146687500Y-114200000D03*
%TO.P,R18,2*%
%TO.N,+3.3V*%
X148512500Y-114200000D03*
%TD*%
D18*
%TO.P,J2,1,Pin_1*%
%TO.N,unconnected-(J2-Pin_1-Pad1)*%
X183110000Y-91696938D03*
%TO.P,J2,2,Pin_2*%
%TO.N,unconnected-(J2-Pin_2-Pad2)*%
X187280000Y-91696938D03*
%TO.P,J2,3,Pin_3*%
%TO.N,unconnected-(J2-Pin_3-Pad3)*%
X183110000Y-93696938D03*
%TO.P,J2,4,Pin_4*%
%TO.N,unconnected-(J2-Pin_4-Pad4)*%
X187280000Y-93696938D03*
%TO.P,J2,5,Pin_5*%
%TO.N,VCC*%
X183110000Y-95696938D03*
%TO.P,J2,6,Pin_6*%
X187280000Y-95696938D03*
%TO.P,J2,7,Pin_7*%
%TO.N,unconnected-(J2-Pin_7-Pad7)*%
X183110000Y-97696938D03*
%TO.P,J2,8,Pin_8*%
%TO.N,unconnected-(J2-Pin_8-Pad8)*%
X187280000Y-97696938D03*
%TO.P,J2,9,Pin_9*%
%TO.N,unconnected-(J2-Pin_9-Pad9)*%
X183110000Y-99696938D03*
%TO.P,J2,10,Pin_10*%
%TO.N,unconnected-(J2-Pin_10-Pad10)*%
X187280000Y-99696938D03*
%TO.P,J2,11,Pin_11*%
%TO.N,unconnected-(J2-Pin_11-Pad11)*%
X183110000Y-101696938D03*
%TO.P,J2,12,Pin_12*%
%TO.N,unconnected-(J2-Pin_12-Pad12)*%
X187280000Y-101696938D03*
%TO.P,J2,13,Pin_13*%
%TO.N,GND*%
X183110000Y-103696938D03*
%TO.P,J2,14,Pin_14*%
X187280000Y-103696938D03*
%TO.P,J2,15,Pin_15*%
X183110000Y-105696938D03*
%TO.P,J2,16,Pin_16*%
X187280000Y-105696938D03*
%TO.P,J2,17,Pin_17*%
%TO.N,unconnected-(J2-Pin_17-Pad17)*%
X183110000Y-107696938D03*
%TO.P,J2,18,Pin_18*%
%TO.N,unconnected-(J2-Pin_18-Pad18)*%
X187280000Y-107696938D03*
%TO.P,J2,19,Pin_19*%
%TO.N,unconnected-(J2-Pin_19-Pad19)*%
X183110000Y-109696938D03*
%TO.P,J2,20,Pin_20*%
%TO.N,unconnected-(J2-Pin_20-Pad20)*%
X187280000Y-109696938D03*
%TD*%
D19*
%TO.P,R23,1*%
%TO.N,Net-(U5-~{CS})*%
X151440000Y-77500000D03*
%TO.P,R23,2*%
%TO.N,+3.3V*%
X152460000Y-77500000D03*
%TD*%
D20*
%TO.P,Q1,1,G*%
%TO.N,TriggerReset*%
X166515000Y-119650000D03*
%TO.P,Q1,2,S*%
%TO.N,GND*%
X166515000Y-117750000D03*
%TO.P,Q1,3,D*%
%TO.N,Net-(Q1-D)*%
X164640000Y-118700000D03*
%TD*%
D17*
%TO.P,R28,1*%
%TO.N,Net-(U8-GPIO28_ADC2)*%
X146037500Y-88950000D03*
%TO.P,R28,2*%
%TO.N,HV*%
X147862500Y-88950000D03*
%TD*%
D18*
%TO.P,J1,1,Pin_1*%
%TO.N,I2C_1_SDA*%
X142720000Y-91696938D03*
%TO.P,J1,2,Pin_2*%
%TO.N,unconnected-(J1-Pin_2-Pad2)*%
X146890000Y-91696938D03*
%TO.P,J1,3,Pin_3*%
%TO.N,I2C_1_SCL*%
X142720000Y-93696938D03*
%TO.P,J1,4,Pin_4*%
%TO.N,unconnected-(J1-Pin_4-Pad4)*%
X146890000Y-93696938D03*
%TO.P,J1,5,Pin_5*%
%TO.N,unconnected-(J1-Pin_5-Pad5)*%
X142720000Y-95696938D03*
%TO.P,J1,6,Pin_6*%
%TO.N,unconnected-(J1-Pin_6-Pad6)*%
X146890000Y-95696938D03*
%TO.P,J1,7,Pin_7*%
%TO.N,GND*%
X142720000Y-97696938D03*
%TO.P,J1,8,Pin_8*%
%TO.N,unconnected-(J1-Pin_8-Pad8)*%
X146890000Y-97696938D03*
%TO.P,J1,9,Pin_9*%
%TO.N,GND*%
X142720000Y-99696938D03*
%TO.P,J1,10,Pin_10*%
%TO.N,unconnected-(J1-Pin_10-Pad10)*%
X146890000Y-99696938D03*
%TO.P,J1,11,Pin_11*%
%TO.N,unconnected-(J1-Pin_11-Pad11)*%
X142720000Y-101696938D03*
%TO.P,J1,12,Pin_12*%
%TO.N,/EXP0_USART_TXD*%
X146890000Y-101696938D03*
%TO.P,J1,13,Pin_13*%
%TO.N,unconnected-(J1-Pin_13-Pad13)*%
X142720000Y-103696938D03*
%TO.P,J1,14,Pin_14*%
%TO.N,/EXP0_USART_RXD*%
X146890000Y-103696938D03*
%TO.P,J1,15,Pin_15*%
%TO.N,unconnected-(J1-Pin_15-Pad15)*%
X142720000Y-105696938D03*
%TO.P,J1,16,Pin_16*%
%TO.N,unconnected-(J1-Pin_16-Pad16)*%
X146890000Y-105696938D03*
%TO.P,J1,17,Pin_17*%
%TO.N,GND*%
X142720000Y-107696938D03*
%TO.P,J1,18,Pin_18*%
X146890000Y-107696938D03*
%TO.P,J1,19,Pin_19*%
X142720000Y-109696938D03*
%TO.P,J1,20,Pin_20*%
X146890000Y-109696938D03*
%TD*%
D21*
%TO.P,U5,1,~{CS}*%
%TO.N,Net-(U5-~{CS})*%
X150325000Y-79000000D03*
%TO.P,U5,2,DO/IO_{1}*%
%TO.N,Net-(U5-DO{slash}IO_{1})*%
X150325000Y-80270000D03*
%TO.P,U5,3,~{WP}/IO_{2}*%
%TO.N,Net-(U5-~{WP}{slash}IO_{2})*%
X150325000Y-81540000D03*
%TO.P,U5,4,GND*%
%TO.N,GND*%
X150325000Y-82810000D03*
%TO.P,U5,5,DI/IO_{0}*%
%TO.N,Net-(U5-DI{slash}IO_{0})*%
X157500000Y-82810000D03*
%TO.P,U5,6,CLK*%
%TO.N,/QSPI_SCLK*%
X157500000Y-81540000D03*
%TO.P,U5,7,~{HOLD}/~{RESET}/IO_{3}*%
%TO.N,Net-(U5-~{HOLD}{slash}~{RESET}{slash}IO_{3})*%
X157500000Y-80270000D03*
%TO.P,U5,8,VCC*%
%TO.N,+3.3V*%
X157500000Y-79000000D03*
%TD*%
D22*
%TO.P,D4,1,K*%
%TO.N,Net-(D4-K)*%
X176100000Y-78475000D03*
%TO.P,D4,2,A*%
%TO.N,/LED2*%
X176100000Y-80050000D03*
%TD*%
D11*
%TO.P,C31,1*%
%TO.N,+3.3V*%
X148780000Y-87250000D03*
%TO.P,C31,2*%
%TO.N,GND*%
X147820000Y-87250000D03*
%TD*%
D23*
%TO.P,C11,1*%
%TO.N,+3.3V*%
X148600000Y-116050000D03*
%TO.P,C11,2*%
%TO.N,GND*%
X148600000Y-117950000D03*
%TD*%
D11*
%TO.P,C35,1*%
%TO.N,+3.3V*%
X149830000Y-84600000D03*
%TO.P,C35,2*%
%TO.N,GND*%
X148870000Y-84600000D03*
%TD*%
D24*
%TO.P,R24,1*%
%TO.N,Net-(R24-Pad1)*%
X153510000Y-76450000D03*
%TO.P,R24,2*%
%TO.N,Net-(U5-~{CS})*%
X152490000Y-76450000D03*
%TD*%
D25*
%TO.P,U7,1,ANODE*%
%TO.N,SiPM*%
X162150000Y-103696938D03*
D26*
%TO.P,U7,2,NC*%
%TO.N,unconnected-(U7-NC-Pad2)*%
X168000000Y-103546938D03*
D27*
%TO.P,U7,3,CATHODE*%
%TO.N,Net-(U7-CATHODE)*%
X167850000Y-97696938D03*
D26*
%TO.P,U7,4,GND*%
%TO.N,unconnected-(U7-GND-Pad4)*%
X162000000Y-97846938D03*
D28*
%TO.P,U7,5*%
%TO.N,N/C*%
X165000000Y-100696938D03*
%TD*%
D29*
%TO.P,C21,1*%
%TO.N,+3.3V*%
X157700000Y-77000000D03*
%TO.P,C21,2*%
%TO.N,GND*%
X155800000Y-77000000D03*
%TD*%
D20*
%TO.P,U4,1,K*%
%TO.N,VRef*%
X144850000Y-114450000D03*
%TO.P,U4,2,A*%
%TO.N,GND*%
X144850000Y-112550000D03*
%TO.P,U4,3,NC*%
%TO.N,unconnected-(U4-NC-Pad3)*%
X142975000Y-113500000D03*
%TD*%
D16*
%TO.P,R21,1*%
%TO.N,Net-(D4-K)*%
X176100000Y-77310000D03*
%TO.P,R21,2*%
%TO.N,GND*%
X176100000Y-76290000D03*
%TD*%
D22*
%TO.P,D5,1,K*%
%TO.N,Net-(D5-K)*%
X174500000Y-78475000D03*
%TO.P,D5,2,A*%
%TO.N,/LED1*%
X174500000Y-80050000D03*
%TD*%
D30*
%TO.P,C12,1*%
%TO.N,GND*%
X144900000Y-116450000D03*
%TO.P,C12,2*%
%TO.N,VRef*%
X146800000Y-116450000D03*
%TD*%
D31*
%TO.P,R29,1*%
%TO.N,Net-(U8-GPIO28_ADC2)*%
X146300000Y-87200000D03*
%TO.P,R29,2*%
%TO.N,GND*%
X146300000Y-85375000D03*
%TD*%
D32*
%TO.P,J3,1,Pin_1*%
%TO.N,VCC*%
X161190000Y-77500000D03*
%TO.P,J3,2,Pin_2*%
%TO.N,/USB_DP*%
X163730000Y-77500000D03*
%TO.P,J3,3,Pin_3*%
%TO.N,/USB_DN*%
X166270000Y-77500000D03*
%TO.P,J3,4,Pin_4*%
%TO.N,GND*%
X168810000Y-77500000D03*
%TD*%
%TO.P,J4,1,Pin_1*%
%TO.N,Trigger*%
X168810000Y-124000000D03*
%TO.P,J4,2,Pin_2*%
%TO.N,Signal*%
X166270000Y-124000000D03*
%TO.P,J4,3,Pin_3*%
%TO.N,Amplifier*%
X163730000Y-124000000D03*
%TO.P,J4,4,Pin_4*%
%TO.N,SiPM*%
X161190000Y-124000000D03*
%TD*%
D33*
%TO.N,GND*%
X179400000Y-86000000D03*
X160800000Y-82500000D03*
X152400000Y-80000000D03*
X149200000Y-77700000D03*
X149700000Y-97000000D03*
X149700000Y-101400000D03*
X141356870Y-112381779D03*
X148100000Y-122700000D03*
X177500000Y-124100000D03*
X186300000Y-117300000D03*
X187400000Y-114000000D03*
X183100000Y-112400000D03*
X185200000Y-87400000D03*
X189000000Y-88000000D03*
X185000000Y-83800000D03*
D34*
X142470000Y-89050000D03*
D33*
X180350000Y-78850000D03*
X181325000Y-89300000D03*
X180600000Y-119625000D03*
X181325000Y-87800000D03*
X164050000Y-80050000D03*
D34*
X148870000Y-84600000D03*
D33*
X157612500Y-124400000D03*
X182550000Y-119650000D03*
D34*
X157987500Y-122182500D03*
D33*
X166050000Y-80050000D03*
D34*
X153670000Y-85000000D03*
D33*
X181325000Y-82200000D03*
D34*
X142470000Y-88100000D03*
D35*
X146571475Y-85371475D03*
D34*
X142470000Y-87150000D03*
D33*
X161000000Y-84468000D03*
X162710000Y-116750000D03*
D35*
X156650000Y-83575000D03*
D34*
X174300000Y-121430000D03*
D33*
X146687500Y-112300000D03*
D35*
X168700000Y-117575000D03*
D34*
X148770000Y-80400000D03*
D35*
X173562500Y-81600000D03*
X144850000Y-112550000D03*
D33*
X164050000Y-85350000D03*
X168050000Y-80050000D03*
D35*
X177985000Y-76290000D03*
D34*
X143220000Y-84250000D03*
D33*
X170225000Y-80150000D03*
D34*
X157027500Y-122182500D03*
D33*
X171650000Y-124825000D03*
D35*
X166515000Y-117750000D03*
X153900000Y-116100000D03*
D33*
X155800000Y-77000000D03*
D35*
X147500000Y-117800000D03*
D33*
X178650000Y-121012500D03*
D34*
X155320000Y-79800000D03*
D33*
X181325000Y-80700000D03*
D34*
X147880000Y-80400000D03*
D35*
X182025000Y-86150000D03*
D33*
X179500000Y-82500000D03*
D35*
X150325000Y-82810000D03*
D33*
X168050000Y-85350000D03*
D36*
X147820000Y-87250000D03*
D34*
X175250000Y-121432500D03*
D33*
X171750000Y-78550000D03*
D35*
X173562500Y-82550000D03*
X151400000Y-118350000D03*
D33*
X144900000Y-116450000D03*
D35*
X154950000Y-81300000D03*
D33*
X166050000Y-85350000D03*
D34*
%TO.N,+3.3V*%
X152460000Y-77500000D03*
D37*
X143430000Y-88100000D03*
D34*
X146920000Y-80400000D03*
D36*
X148780000Y-87250000D03*
D35*
X151362325Y-85330415D03*
D33*
X157700000Y-77000000D03*
D37*
X144175000Y-84975000D03*
D34*
X157987500Y-121222500D03*
D35*
X149062500Y-82810650D03*
D33*
X149850000Y-112350000D03*
D34*
X175250000Y-120472500D03*
D33*
X182875000Y-80700000D03*
D35*
%TO.N,VRef*%
X144701409Y-88376409D03*
X152387500Y-124400000D03*
D33*
X146687500Y-114200000D03*
D35*
%TO.N,TriggerReset*%
X148261795Y-90370024D03*
X167950000Y-116250000D03*
D33*
%TO.N,Amplifier*%
X155787500Y-124400000D03*
X175700000Y-117475000D03*
%TO.N,Peak*%
X160810000Y-116750000D03*
X158750000Y-118700000D03*
D35*
%TO.N,VCC*%
X162400000Y-81396000D03*
X174724000Y-83550000D03*
%TO.N,TriggerTresh*%
X146000613Y-90370024D03*
D33*
X180600000Y-117800000D03*
D37*
%TO.N,+1V1*%
X143430000Y-87150000D03*
D35*
X158225000Y-84175000D03*
%TO.N,Signal*%
X146750597Y-90370024D03*
D33*
X171700000Y-123025000D03*
D34*
%TO.N,I2C_1_SCL*%
X150762502Y-85724000D03*
%TO.N,I2C_1_SDA*%
X153049833Y-83425000D03*
D37*
%TO.N,/LED2*%
X153150000Y-81325000D03*
D34*
%TO.N,/QSPI_SCLK*%
X144025000Y-83450000D03*
X157650000Y-81550000D03*
D37*
%TO.N,/LED1*%
X153589000Y-82897500D03*
D35*
%TO.N,PWM*%
X150125000Y-87150000D03*
D33*
X182462500Y-116050000D03*
D35*
%TO.N,Trigger*%
X147500000Y-90400000D03*
D34*
%TO.N,/EXP0_USART_RXD*%
X140750000Y-90200000D03*
X146474201Y-82355436D03*
%TO.N,/EXP0_USART_TXD*%
X140900000Y-89375000D03*
X147342894Y-82400000D03*
D35*
%TO.N,SiPM*%
X162150000Y-103696938D03*
X159625000Y-121350000D03*
X152000000Y-116075000D03*
%TO.N,HV*%
X149575000Y-90425000D03*
D33*
X178450000Y-78850000D03*
X171850000Y-83700000D03*
D35*
X161200000Y-85700000D03*
%TO.N,Net-(U7-CATHODE)*%
X167850000Y-97696938D03*
%TO.N,Net-(D1-A)*%
X177650000Y-82662500D03*
X177650000Y-77350000D03*
D34*
%TO.N,/USB_DP*%
X142420000Y-85250000D03*
%TO.N,/USB_DN*%
X142420000Y-86200000D03*
%TO.N,Net-(U5-~{CS})*%
X145662501Y-81336085D03*
D37*
%TO.N,Net-(R24-Pad1)*%
X153510000Y-76450000D03*
D35*
%TO.N,Net-(U8-GPIO28_ADC2)*%
X146675000Y-87225000D03*
D34*
%TO.N,Net-(U5-DO{slash}IO_{1})*%
X146000000Y-82800000D03*
%TO.N,Net-(U5-DI{slash}IO_{0})*%
X146375000Y-83801000D03*
%TO.N,Net-(U5-~{WP}{slash}IO_{2})*%
X144375000Y-82775000D03*
%TO.N,Net-(U5-~{HOLD}{slash}~{RESET}{slash}IO_{3})*%
X146532896Y-84431533D03*
X153150000Y-82351000D03*
%TD*%
D38*
%TO.N,GND*%
X148450000Y-117800000D02*
X148600000Y-117950000D01*
D39*
X143220000Y-85900000D02*
X143220000Y-84950000D01*
X177985000Y-76290000D02*
X176050000Y-76290000D01*
X143220000Y-84250000D02*
X143220000Y-84950000D01*
X174500000Y-76290000D02*
X176050000Y-76290000D01*
D38*
X147500000Y-117800000D02*
X148450000Y-117800000D01*
%TO.N,+3.3V*%
X148500000Y-114212500D02*
X148512500Y-114200000D01*
D40*
X150631910Y-84600000D02*
X151362325Y-85330415D01*
D39*
X144180000Y-85900000D02*
X144180000Y-84980000D01*
D41*
X149200000Y-112350000D02*
X149850000Y-112350000D01*
X148600000Y-114312500D02*
X148500000Y-114212500D01*
X148600000Y-116050000D02*
X148600000Y-114312500D01*
D38*
X157700000Y-78800000D02*
X157500000Y-79000000D01*
D41*
X148512500Y-113037500D02*
X149200000Y-112350000D01*
D38*
X157700000Y-77000000D02*
X157700000Y-78800000D01*
D41*
X148512500Y-114200000D02*
X148512500Y-113037500D01*
D40*
X149830000Y-84600000D02*
X150631910Y-84600000D01*
D39*
X144180000Y-84980000D02*
X144175000Y-84975000D01*
D42*
%TO.N,VRef*%
X145701062Y-111100000D02*
X144701409Y-110100347D01*
X144701409Y-110100347D02*
X144701409Y-88376409D01*
D38*
X146437500Y-114450000D02*
X146687500Y-114200000D01*
D42*
X146687500Y-114200000D02*
X147488500Y-113399000D01*
X146800000Y-116450000D02*
X146800000Y-118091364D01*
D38*
X144850000Y-114450000D02*
X146437500Y-114450000D01*
D42*
X147488500Y-111968214D02*
X146620286Y-111100000D01*
X147488500Y-113399000D02*
X147488500Y-111968214D01*
D43*
X146687500Y-114200000D02*
X146687500Y-116337500D01*
D42*
X146800000Y-118091364D02*
X152387500Y-123678864D01*
X146620286Y-111100000D02*
X145701062Y-111100000D01*
X146687500Y-116337500D02*
X146800000Y-116450000D01*
X152387500Y-123678864D02*
X152387500Y-124400000D01*
D38*
%TO.N,Net-(Q1-D)*%
X164640000Y-118700000D02*
X162962500Y-118700000D01*
X162962500Y-118700000D02*
X162662500Y-118400000D01*
%TO.N,TriggerReset*%
X166515000Y-119650000D02*
X167950000Y-118215000D01*
X167950000Y-118215000D02*
X167950000Y-116250000D01*
%TO.N,Amplifier*%
X172799000Y-120401000D02*
X175700000Y-117500000D01*
X163730000Y-124000000D02*
X167329000Y-120401000D01*
X167329000Y-120401000D02*
X172799000Y-120401000D01*
X157137446Y-123050054D02*
X158999946Y-123050054D01*
X158999946Y-123050054D02*
X161649000Y-120401000D01*
X161649000Y-120401000D02*
X167329000Y-120401000D01*
X155787500Y-124400000D02*
X157137446Y-123050054D01*
X175700000Y-117500000D02*
X175700000Y-117475000D01*
%TO.N,Peak*%
X160810000Y-116750000D02*
X160810000Y-118372500D01*
D42*
X160537500Y-118700000D02*
X160837500Y-118400000D01*
D38*
X160810000Y-118372500D02*
X160837500Y-118400000D01*
D42*
X158750000Y-118700000D02*
X160537500Y-118700000D01*
D39*
%TO.N,VCC*%
X174749000Y-83575000D02*
X174724000Y-83550000D01*
X173666846Y-83575000D02*
X174749000Y-83575000D01*
X172391846Y-82300000D02*
X173666846Y-83575000D01*
X163304000Y-82300000D02*
X172391846Y-82300000D01*
X162400000Y-81396000D02*
X163304000Y-82300000D01*
D40*
%TO.N,+1V1*%
X144250000Y-87150000D02*
X143430000Y-87150000D01*
X145175000Y-86225000D02*
X144250000Y-87150000D01*
X150996324Y-86225000D02*
X145175000Y-86225000D01*
X151275386Y-85945938D02*
X150996324Y-86225000D01*
X156469914Y-84175000D02*
X154698976Y-85945938D01*
X154698976Y-85945938D02*
X151275386Y-85945938D01*
X158225000Y-84175000D02*
X156469914Y-84175000D01*
%TO.N,/LED2*%
X158818780Y-79201000D02*
X175251000Y-79201000D01*
X153150000Y-81325000D02*
X153726000Y-80749000D01*
X175251000Y-79201000D02*
X176100000Y-80050000D01*
X153726000Y-80749000D02*
X155079521Y-80749000D01*
X155079521Y-80749000D02*
X156134521Y-79694000D01*
X158325780Y-79694000D02*
X158818780Y-79201000D01*
X156134521Y-79694000D02*
X158325780Y-79694000D01*
%TO.N,/LED1*%
X156775388Y-80846000D02*
X154723888Y-82897500D01*
X173704000Y-80846000D02*
X156775388Y-80846000D01*
X154723888Y-82897500D02*
X153589000Y-82897500D01*
X174500000Y-80050000D02*
X173704000Y-80846000D01*
%TO.N,/EXP0_USART_RXD*%
X141775000Y-89250000D02*
X140825000Y-90200000D01*
X144167479Y-82274000D02*
X141775000Y-84666479D01*
X141775000Y-84666479D02*
X141775000Y-89250000D01*
X146392765Y-82274000D02*
X144167479Y-82274000D01*
X140825000Y-90200000D02*
X140750000Y-90200000D01*
X146474201Y-82355436D02*
X146392765Y-82274000D01*
%TO.N,/EXP0_USART_TXD*%
X146797330Y-81854436D02*
X144090655Y-81854436D01*
X144090655Y-81854436D02*
X141424000Y-84521091D01*
X141424000Y-88851000D02*
X140900000Y-89375000D01*
X141424000Y-84521091D02*
X141424000Y-88851000D01*
X147342894Y-82400000D02*
X146797330Y-81854436D01*
D39*
%TO.N,Net-(D4-K)*%
X176100000Y-77310000D02*
X176100000Y-78475000D01*
%TO.N,Net-(D5-K)*%
X174500000Y-77310000D02*
X174500000Y-78475000D01*
D38*
%TO.N,SiPM*%
X156025000Y-120150000D02*
X158450000Y-120150000D01*
X158450000Y-120150000D02*
X159625000Y-121325000D01*
X152000000Y-116075000D02*
X152000000Y-116125000D01*
X152000000Y-116125000D02*
X156025000Y-120150000D01*
X159625000Y-121325000D02*
X159625000Y-121350000D01*
D42*
%TO.N,HV*%
X171850000Y-83700000D02*
X172450000Y-84300000D01*
D39*
X148925000Y-88950000D02*
X147862500Y-88950000D01*
D42*
X178450000Y-83450000D02*
X178450000Y-78850000D01*
X172450000Y-84300000D02*
X177600000Y-84300000D01*
D39*
X149575000Y-89600000D02*
X148925000Y-88950000D01*
X163200000Y-83700000D02*
X171850000Y-83700000D01*
D42*
X177600000Y-84300000D02*
X178450000Y-83450000D01*
D39*
X149575000Y-90425000D02*
X149575000Y-89600000D01*
X161200000Y-85700000D02*
X163200000Y-83700000D01*
D42*
%TO.N,Net-(D1-A)*%
X177650000Y-77350000D02*
X177650000Y-82662500D01*
D40*
%TO.N,Net-(U5-~{CS})*%
X147325002Y-79000000D02*
X150325000Y-79000000D01*
D39*
X151440000Y-76860000D02*
X151850000Y-76450000D01*
X150900000Y-77500000D02*
X151440000Y-77500000D01*
D40*
X145662501Y-81336085D02*
X145662501Y-80662501D01*
D39*
X151850000Y-76450000D02*
X152490000Y-76450000D01*
D40*
X145662501Y-80662501D02*
X147325002Y-79000000D01*
D39*
X151440000Y-77500000D02*
X151440000Y-76860000D01*
X150325000Y-79000000D02*
X150325000Y-78075000D01*
X150325000Y-78075000D02*
X150900000Y-77500000D01*
D38*
%TO.N,Net-(U8-GPIO28_ADC2)*%
X146675000Y-87225000D02*
X146275000Y-87225000D01*
X146275000Y-87225000D02*
X146037500Y-87462500D01*
X146037500Y-87462500D02*
X146037500Y-88950000D01*
D40*
%TO.N,Net-(U5-DO{slash}IO_{1})*%
X150180000Y-80270000D02*
X150325000Y-80270000D01*
X146000000Y-82800000D02*
X146150000Y-82950000D01*
X147500000Y-82950000D02*
X150180000Y-80270000D01*
X146150000Y-82950000D02*
X147500000Y-82950000D01*
%TO.N,Net-(U5-DI{slash}IO_{0})*%
X156375000Y-82925000D02*
X157385000Y-82925000D01*
X155375000Y-83925000D02*
X156375000Y-82925000D01*
X157385000Y-82925000D02*
X157500000Y-82810000D01*
X146375000Y-83801000D02*
X146499000Y-83925000D01*
X146499000Y-83925000D02*
X155375000Y-83925000D01*
%TO.N,Net-(U5-~{WP}{slash}IO_{2})*%
X148840350Y-82259650D02*
X149560000Y-81540000D01*
X149560000Y-81540000D02*
X150325000Y-81540000D01*
X144450000Y-82950000D02*
X144801000Y-83301000D01*
X144375000Y-82775000D02*
X144450000Y-82850000D01*
X144450000Y-82850000D02*
X144450000Y-82950000D01*
X147799000Y-83301000D02*
X148511500Y-82588500D01*
X148511500Y-82582418D02*
X148834268Y-82259650D01*
X148834268Y-82259650D02*
X148840350Y-82259650D01*
X148511500Y-82588500D02*
X148511500Y-82582418D01*
X144801000Y-83301000D02*
X147799000Y-83301000D01*
%TO.N,Net-(U5-~{HOLD}{slash}~{RESET}{slash}IO_{3})*%
X156855000Y-80270000D02*
X157500000Y-80270000D01*
X154737500Y-82387500D02*
X156855000Y-80270000D01*
X153150000Y-82351000D02*
X153186500Y-82387500D01*
X153186500Y-82387500D02*
X154737500Y-82387500D01*
%TD*%
M02*
