M48
; DRILL file {KiCad 9.0.5} date 2025-10-16T10:11:24+0200
; FORMAT={-:-/ absolute / metric / decimal}
; #@! TF.CreationDate,2025-10-16T10:11:24+02:00
; #@! TF.GenerationSoftware,Kicad,Pcbnew,9.0.5
; #@! TF.FileFunction,Plated,1,6,PTH
FMAT,2
METRIC
; #@! TA.AperFunction,Plated,PTH,ViaDrill
T1C0.300
; #@! TA.AperFunction,Plated,PTH,ViaDrill
T2C0.400
; #@! TA.AperFunction,Plated,PTH,ComponentDrill
T3C0.700
; #@! TA.AperFunction,Plated,PTH,ComponentDrill
T4C1.000
; #@! TA.AperFunction,Plated,PTH,ComponentDrill
T5C1.400
%
G90
G05
T1
X140.75Y-90.2
X140.9Y-89.375
X142.42Y-85.25
X142.42Y-86.2
X142.47Y-87.15
X142.47Y-88.1
X142.47Y-89.05
X143.22Y-84.25
X143.43Y-87.15
X143.43Y-88.1
X144.025Y-83.45
X144.175Y-84.975
X144.375Y-82.775
X144.701Y-88.376
X144.85Y-112.55
X145.663Y-81.336
X146.0Y-82.8
X146.001Y-90.37
X146.375Y-83.801
X146.474Y-82.355
X146.533Y-84.432
X146.571Y-85.371
X146.675Y-87.225
X146.751Y-90.37
X146.92Y-80.4
X147.343Y-82.4
X147.5Y-90.4
X147.5Y-117.8
X147.82Y-87.25
X147.88Y-80.4
X148.262Y-90.37
X148.77Y-80.4
X148.78Y-87.25
X148.87Y-84.6
X149.062Y-82.811
X149.575Y-90.425
X150.125Y-87.15
X150.325Y-82.81
X150.763Y-85.724
X151.362Y-85.33
X151.4Y-118.35
X152.0Y-116.075
X152.387Y-124.4
X152.46Y-77.5
X153.05Y-83.425
X153.15Y-81.325
X153.15Y-82.351
X153.51Y-76.45
X153.589Y-82.897
X153.67Y-85.0
X153.9Y-116.1
X154.95Y-81.3
X155.32Y-79.8
X156.65Y-83.575
X157.028Y-122.182
X157.65Y-81.55
X157.987Y-121.222
X157.987Y-122.182
X158.225Y-84.175
X159.625Y-121.35
X161.2Y-85.7
X162.15Y-103.697
X162.4Y-81.396
X166.515Y-117.75
X167.85Y-97.697
X167.95Y-116.25
X168.7Y-117.575
X173.562Y-81.6
X173.562Y-82.55
X174.3Y-121.43
X174.724Y-83.55
X175.25Y-120.472
X175.25Y-121.432
X177.65Y-77.35
X177.65Y-82.662
X177.985Y-76.29
X182.025Y-86.15
T2
X141.357Y-112.382
X144.9Y-116.45
X146.688Y-112.3
X146.688Y-114.2
X148.1Y-122.7
X149.2Y-77.7
X149.7Y-97.0
X149.7Y-101.4
X149.85Y-112.35
X152.4Y-80.0
X155.787Y-124.4
X155.8Y-77.0
X157.612Y-124.4
X157.7Y-77.0
X158.75Y-118.7
X160.8Y-82.5
X160.81Y-116.75
X161.0Y-84.468
X162.71Y-116.75
X164.05Y-80.05
X164.05Y-85.35
X166.05Y-80.05
X166.05Y-85.35
X168.05Y-80.05
X168.05Y-85.35
X170.225Y-80.15
X171.65Y-124.825
X171.7Y-123.025
X171.75Y-78.55
X171.85Y-83.7
X175.7Y-117.475
X177.5Y-124.1
X178.45Y-78.85
X178.65Y-121.012
X179.4Y-86.0
X179.5Y-82.5
X180.35Y-78.85
X180.6Y-117.8
X180.6Y-119.625
X181.325Y-80.7
X181.325Y-82.2
X181.325Y-87.8
X181.325Y-89.3
X182.463Y-116.05
X182.55Y-119.65
X182.875Y-80.7
X183.1Y-112.4
X185.0Y-83.8
X185.2Y-87.4
X186.3Y-117.3
X187.4Y-114.0
X189.0Y-88.0
T3
X142.72Y-91.697
X142.72Y-93.697
X142.72Y-95.697
X142.72Y-97.697
X142.72Y-99.697
X142.72Y-101.697
X142.72Y-103.697
X142.72Y-105.697
X142.72Y-107.697
X142.72Y-109.697
X146.89Y-91.697
X146.89Y-93.697
X146.89Y-95.697
X146.89Y-97.697
X146.89Y-99.697
X146.89Y-101.697
X146.89Y-103.697
X146.89Y-105.697
X146.89Y-107.697
X146.89Y-109.697
X183.11Y-91.697
X183.11Y-93.697
X183.11Y-95.697
X183.11Y-97.697
X183.11Y-99.697
X183.11Y-101.697
X183.11Y-103.697
X183.11Y-105.697
X183.11Y-107.697
X183.11Y-109.697
X187.28Y-91.697
X187.28Y-93.697
X187.28Y-95.697
X187.28Y-97.697
X187.28Y-99.697
X187.28Y-101.697
X187.28Y-103.697
X187.28Y-105.697
X187.28Y-107.697
X187.28Y-109.697
T4
X161.19Y-77.5
X161.19Y-124.0
X163.73Y-77.5
X163.73Y-124.0
X166.27Y-77.5
X166.27Y-124.0
X168.81Y-77.5
X168.81Y-124.0
T5
G00X150.5Y-92.197
M15
G01X150.5Y-94.197
M16
G05
G00X150.5Y-107.197
M15
G01X150.5Y-109.197
M16
G05
G00X158.5Y-86.197
M15
G01X156.5Y-86.197
M16
G05
G00X156.5Y-115.197
M15
G01X158.5Y-115.197
M16
G05
G00X173.5Y-86.197
M15
G01X171.5Y-86.197
M16
G05
G00X173.5Y-115.197
M15
G01X171.5Y-115.197
M16
G05
G00X179.5Y-92.197
M15
G01X179.5Y-94.197
M16
G05
G00X179.5Y-107.197
M15
G01X179.5Y-109.197
M16
G05
M30
