%TF.GenerationSoftware,KiCad,Pcbnew,9.0.5*%
%TF.CreationDate,2025-10-16T10:06:16+02:00*%
%TF.ProjectId,gaia-muon,67616961-2d6d-4756-9f6e-2e6b69636164,10*%
%TF.SameCoordinates,Original*%
%TF.FileFunction,Legend,Top*%
%TF.FilePolarity,Positive*%
%FSLAX46Y46*%
G04 Gerber Fmt 4.6, Leading zero omitted, Abs format (unit mm)*
G04 Created by KiCad (PCBNEW 9.0.5) date 2025-10-16 10:06:16*
%MOMM*%
%LPD*%
G01*
G04 APERTURE LIST*
%ADD10C,0.140000*%
%ADD11C,0.017999*%
%ADD12C,0.100000*%
%ADD13C,0.112500*%
%ADD14C,0.120000*%
%ADD15C,0.300000*%
G04 APERTURE END LIST*
D10*
X172584013Y-118789747D02*
X172584013Y-119619483D01*
X172327190Y-119619483D01*
X172327190Y-118419332D01*
X172584013Y-118789747D01*
G36*
X172584013Y-118789747D02*
G01*
X172584013Y-119619483D01*
X172327190Y-119619483D01*
X172327190Y-118419332D01*
X172584013Y-118789747D01*
G37*
X174423750Y-118095834D02*
X174154580Y-118095834D01*
X174154580Y-117895808D01*
X174423750Y-117895808D01*
X174423750Y-118095834D01*
G36*
X174423750Y-118095834D02*
G01*
X174154580Y-118095834D01*
X174154580Y-117895808D01*
X174423750Y-117895808D01*
X174423750Y-118095834D01*
G37*
X178826768Y-118360064D02*
X178830038Y-118374818D01*
X178834264Y-118388993D01*
X178839402Y-118402606D01*
X178845410Y-118415669D01*
X178852244Y-118428199D01*
X178859862Y-118440211D01*
X178868220Y-118451719D01*
X178877276Y-118462738D01*
X178886987Y-118473283D01*
X178897310Y-118483369D01*
X178919619Y-118502225D01*
X178943859Y-118519423D01*
X178969688Y-118535085D01*
X178996761Y-118549328D01*
X179024734Y-118562273D01*
X179053265Y-118574038D01*
X179082009Y-118584744D01*
X179138763Y-118603453D01*
X179192247Y-118619355D01*
X179289172Y-118645902D01*
X179339487Y-118660333D01*
X179364702Y-118668041D01*
X179389802Y-118676153D01*
X179440742Y-118691356D01*
X179490572Y-118707484D01*
X179538991Y-118724770D01*
X179585699Y-118743445D01*
X179630395Y-118763741D01*
X179672781Y-118785889D01*
X179693013Y-118797729D01*
X179712554Y-118810120D01*
X179731367Y-118823089D01*
X179749415Y-118836666D01*
X179766660Y-118850880D01*
X179783065Y-118865759D01*
X179798591Y-118881333D01*
X179813201Y-118897631D01*
X179826859Y-118914680D01*
X179839525Y-118932511D01*
X179851164Y-118951153D01*
X179861736Y-118970634D01*
X179871206Y-118990982D01*
X179879534Y-119012228D01*
X179886685Y-119034400D01*
X179892619Y-119057527D01*
X179897300Y-119081638D01*
X179900690Y-119106762D01*
X179902751Y-119132927D01*
X179903447Y-119160164D01*
X179902453Y-119191535D01*
X179899515Y-119221759D01*
X179894703Y-119250845D01*
X179888085Y-119278803D01*
X179879729Y-119305644D01*
X179869702Y-119331377D01*
X179858074Y-119356012D01*
X179844913Y-119379559D01*
X179830287Y-119402028D01*
X179814264Y-119423429D01*
X179796912Y-119443772D01*
X179778301Y-119463067D01*
X179758497Y-119481323D01*
X179737570Y-119498552D01*
X179715587Y-119514762D01*
X179692618Y-119529964D01*
X179643990Y-119557382D01*
X179592234Y-119580886D01*
X179537894Y-119600556D01*
X179481518Y-119616472D01*
X179423652Y-119628711D01*
X179364842Y-119637356D01*
X179305634Y-119642484D01*
X179246574Y-119644176D01*
X179176190Y-119642470D01*
X179107856Y-119637245D01*
X179041888Y-119628337D01*
X179009890Y-119622451D01*
X178978601Y-119615584D01*
X178948061Y-119607715D01*
X178918309Y-119598823D01*
X178889384Y-119588889D01*
X178861326Y-119577891D01*
X178834175Y-119565811D01*
X178807968Y-119552626D01*
X178782747Y-119538317D01*
X178758550Y-119522864D01*
X178735416Y-119506246D01*
X178713385Y-119488443D01*
X178692497Y-119469435D01*
X178672790Y-119449200D01*
X178654303Y-119427720D01*
X178637077Y-119404973D01*
X178621151Y-119380939D01*
X178606563Y-119355598D01*
X178593354Y-119328929D01*
X178581562Y-119300913D01*
X178571227Y-119271528D01*
X178562388Y-119240754D01*
X178555085Y-119208572D01*
X178549356Y-119174960D01*
X178545242Y-119139899D01*
X178542782Y-119103368D01*
X178816889Y-119103365D01*
X178819026Y-119125186D01*
X178822174Y-119146204D01*
X178826305Y-119166427D01*
X178831388Y-119185860D01*
X178837393Y-119204512D01*
X178844291Y-119222391D01*
X178852052Y-119239502D01*
X178860645Y-119255853D01*
X178870042Y-119271453D01*
X178880211Y-119286307D01*
X178891124Y-119300423D01*
X178902751Y-119313808D01*
X178915061Y-119326470D01*
X178928025Y-119338416D01*
X178941614Y-119349653D01*
X178955796Y-119360188D01*
X178970542Y-119370028D01*
X178985824Y-119379181D01*
X179001609Y-119387655D01*
X179017870Y-119395455D01*
X179051695Y-119409066D01*
X179087062Y-119420072D01*
X179123731Y-119428532D01*
X179161464Y-119434503D01*
X179200021Y-119438044D01*
X179239165Y-119439211D01*
X179266419Y-119438546D01*
X179295952Y-119436437D01*
X179327207Y-119432716D01*
X179359627Y-119427211D01*
X179392655Y-119419752D01*
X179425733Y-119410170D01*
X179442117Y-119404530D01*
X179458305Y-119398295D01*
X179474227Y-119391444D01*
X179489814Y-119383957D01*
X179504995Y-119375810D01*
X179519701Y-119366985D01*
X179533864Y-119357458D01*
X179547412Y-119347209D01*
X179560276Y-119336217D01*
X179572387Y-119324460D01*
X179583675Y-119311918D01*
X179594071Y-119298568D01*
X179603504Y-119284390D01*
X179611905Y-119269362D01*
X179619205Y-119253463D01*
X179625334Y-119236673D01*
X179630222Y-119218969D01*
X179633800Y-119200330D01*
X179635998Y-119180735D01*
X179636746Y-119160164D01*
X179636509Y-119148059D01*
X179635805Y-119136281D01*
X179634644Y-119124823D01*
X179633037Y-119113678D01*
X179630994Y-119102841D01*
X179628525Y-119092306D01*
X179625642Y-119082065D01*
X179622354Y-119072113D01*
X179618671Y-119062442D01*
X179614605Y-119053048D01*
X179610165Y-119043923D01*
X179605362Y-119035061D01*
X179600206Y-119026457D01*
X179594708Y-119018102D01*
X179588878Y-119009992D01*
X179582727Y-119002120D01*
X179569501Y-118987063D01*
X179555114Y-118972882D01*
X179539650Y-118959525D01*
X179523190Y-118946943D01*
X179505819Y-118935084D01*
X179487620Y-118923898D01*
X179468675Y-118913334D01*
X179449068Y-118903342D01*
X179428464Y-118895114D01*
X179407397Y-118887060D01*
X179363873Y-118871240D01*
X179271268Y-118839137D01*
X179223770Y-118826481D01*
X179174651Y-118813825D01*
X179149846Y-118807207D01*
X179125069Y-118800243D01*
X179100466Y-118792815D01*
X179076182Y-118784809D01*
X179027984Y-118771084D01*
X178980800Y-118756618D01*
X178934888Y-118741189D01*
X178890510Y-118724578D01*
X178847927Y-118706563D01*
X178807398Y-118686923D01*
X178787986Y-118676426D01*
X178769184Y-118665439D01*
X178751027Y-118653936D01*
X178733546Y-118641890D01*
X178716774Y-118629271D01*
X178700744Y-118616054D01*
X178685488Y-118602210D01*
X178671038Y-118587711D01*
X178657428Y-118572531D01*
X178644690Y-118556641D01*
X178632855Y-118540014D01*
X178621958Y-118522623D01*
X178612030Y-118504439D01*
X178603105Y-118485436D01*
X178595213Y-118465585D01*
X178588389Y-118444859D01*
X178582665Y-118423231D01*
X178578073Y-118400673D01*
X178574645Y-118377157D01*
X178572415Y-118352656D01*
X178826768Y-118360064D01*
G36*
X178826768Y-118360064D02*
G01*
X178830038Y-118374818D01*
X178834264Y-118388993D01*
X178839402Y-118402606D01*
X178845410Y-118415669D01*
X178852244Y-118428199D01*
X178859862Y-118440211D01*
X178868220Y-118451719D01*
X178877276Y-118462738D01*
X178886987Y-118473283D01*
X178897310Y-118483369D01*
X178919619Y-118502225D01*
X178943859Y-118519423D01*
X178969688Y-118535085D01*
X178996761Y-118549328D01*
X179024734Y-118562273D01*
X179053265Y-118574038D01*
X179082009Y-118584744D01*
X179138763Y-118603453D01*
X179192247Y-118619355D01*
X179289172Y-118645902D01*
X179339487Y-118660333D01*
X179364702Y-118668041D01*
X179389802Y-118676153D01*
X179440742Y-118691356D01*
X179490572Y-118707484D01*
X179538991Y-118724770D01*
X179585699Y-118743445D01*
X179630395Y-118763741D01*
X179672781Y-118785889D01*
X179693013Y-118797729D01*
X179712554Y-118810120D01*
X179731367Y-118823089D01*
X179749415Y-118836666D01*
X179766660Y-118850880D01*
X179783065Y-118865759D01*
X179798591Y-118881333D01*
X179813201Y-118897631D01*
X179826859Y-118914680D01*
X179839525Y-118932511D01*
X179851164Y-118951153D01*
X179861736Y-118970634D01*
X179871206Y-118990982D01*
X179879534Y-119012228D01*
X179886685Y-119034400D01*
X179892619Y-119057527D01*
X179897300Y-119081638D01*
X179900690Y-119106762D01*
X179902751Y-119132927D01*
X179903447Y-119160164D01*
X179902453Y-119191535D01*
X179899515Y-119221759D01*
X179894703Y-119250845D01*
X179888085Y-119278803D01*
X179879729Y-119305644D01*
X179869702Y-119331377D01*
X179858074Y-119356012D01*
X179844913Y-119379559D01*
X179830287Y-119402028D01*
X179814264Y-119423429D01*
X179796912Y-119443772D01*
X179778301Y-119463067D01*
X179758497Y-119481323D01*
X179737570Y-119498552D01*
X179715587Y-119514762D01*
X179692618Y-119529964D01*
X179643990Y-119557382D01*
X179592234Y-119580886D01*
X179537894Y-119600556D01*
X179481518Y-119616472D01*
X179423652Y-119628711D01*
X179364842Y-119637356D01*
X179305634Y-119642484D01*
X179246574Y-119644176D01*
X179176190Y-119642470D01*
X179107856Y-119637245D01*
X179041888Y-119628337D01*
X179009890Y-119622451D01*
X178978601Y-119615584D01*
X178948061Y-119607715D01*
X178918309Y-119598823D01*
X178889384Y-119588889D01*
X178861326Y-119577891D01*
X178834175Y-119565811D01*
X178807968Y-119552626D01*
X178782747Y-119538317D01*
X178758550Y-119522864D01*
X178735416Y-119506246D01*
X178713385Y-119488443D01*
X178692497Y-119469435D01*
X178672790Y-119449200D01*
X178654303Y-119427720D01*
X178637077Y-119404973D01*
X178621151Y-119380939D01*
X178606563Y-119355598D01*
X178593354Y-119328929D01*
X178581562Y-119300913D01*
X178571227Y-119271528D01*
X178562388Y-119240754D01*
X178555085Y-119208572D01*
X178549356Y-119174960D01*
X178545242Y-119139899D01*
X178542782Y-119103368D01*
X178816889Y-119103365D01*
X178819026Y-119125186D01*
X178822174Y-119146204D01*
X178826305Y-119166427D01*
X178831388Y-119185860D01*
X178837393Y-119204512D01*
X178844291Y-119222391D01*
X178852052Y-119239502D01*
X178860645Y-119255853D01*
X178870042Y-119271453D01*
X178880211Y-119286307D01*
X178891124Y-119300423D01*
X178902751Y-119313808D01*
X178915061Y-119326470D01*
X178928025Y-119338416D01*
X178941614Y-119349653D01*
X178955796Y-119360188D01*
X178970542Y-119370028D01*
X178985824Y-119379181D01*
X179001609Y-119387655D01*
X179017870Y-119395455D01*
X179051695Y-119409066D01*
X179087062Y-119420072D01*
X179123731Y-119428532D01*
X179161464Y-119434503D01*
X179200021Y-119438044D01*
X179239165Y-119439211D01*
X179266419Y-119438546D01*
X179295952Y-119436437D01*
X179327207Y-119432716D01*
X179359627Y-119427211D01*
X179392655Y-119419752D01*
X179425733Y-119410170D01*
X179442117Y-119404530D01*
X179458305Y-119398295D01*
X179474227Y-119391444D01*
X179489814Y-119383957D01*
X179504995Y-119375810D01*
X179519701Y-119366985D01*
X179533864Y-119357458D01*
X179547412Y-119347209D01*
X179560276Y-119336217D01*
X179572387Y-119324460D01*
X179583675Y-119311918D01*
X179594071Y-119298568D01*
X179603504Y-119284390D01*
X179611905Y-119269362D01*
X179619205Y-119253463D01*
X179625334Y-119236673D01*
X179630222Y-119218969D01*
X179633800Y-119200330D01*
X179635998Y-119180735D01*
X179636746Y-119160164D01*
X179636509Y-119148059D01*
X179635805Y-119136281D01*
X179634644Y-119124823D01*
X179633037Y-119113678D01*
X179630994Y-119102841D01*
X179628525Y-119092306D01*
X179625642Y-119082065D01*
X179622354Y-119072113D01*
X179618671Y-119062442D01*
X179614605Y-119053048D01*
X179610165Y-119043923D01*
X179605362Y-119035061D01*
X179600206Y-119026457D01*
X179594708Y-119018102D01*
X179588878Y-119009992D01*
X179582727Y-119002120D01*
X179569501Y-118987063D01*
X179555114Y-118972882D01*
X179539650Y-118959525D01*
X179523190Y-118946943D01*
X179505819Y-118935084D01*
X179487620Y-118923898D01*
X179468675Y-118913334D01*
X179449068Y-118903342D01*
X179428464Y-118895114D01*
X179407397Y-118887060D01*
X179363873Y-118871240D01*
X179271268Y-118839137D01*
X179223770Y-118826481D01*
X179174651Y-118813825D01*
X179149846Y-118807207D01*
X179125069Y-118800243D01*
X179100466Y-118792815D01*
X179076182Y-118784809D01*
X179027984Y-118771084D01*
X178980800Y-118756618D01*
X178934888Y-118741189D01*
X178890510Y-118724578D01*
X178847927Y-118706563D01*
X178807398Y-118686923D01*
X178787986Y-118676426D01*
X178769184Y-118665439D01*
X178751027Y-118653936D01*
X178733546Y-118641890D01*
X178716774Y-118629271D01*
X178700744Y-118616054D01*
X178685488Y-118602210D01*
X178671038Y-118587711D01*
X178657428Y-118572531D01*
X178644690Y-118556641D01*
X178632855Y-118540014D01*
X178621958Y-118522623D01*
X178612030Y-118504439D01*
X178603105Y-118485436D01*
X178595213Y-118465585D01*
X178588389Y-118444859D01*
X178582665Y-118423231D01*
X178578073Y-118400673D01*
X178574645Y-118377157D01*
X178572415Y-118352656D01*
X178826768Y-118360064D01*
G37*
D11*
X146616675Y-81600000D02*
X147346562Y-81908337D01*
X146616675Y-82216674D01*
X146308338Y-82946562D01*
X146000000Y-82216674D01*
X145270113Y-81908337D01*
X146000000Y-81600000D01*
X146308338Y-80870112D01*
X146616675Y-81600000D01*
G36*
X146616675Y-81600000D02*
G01*
X147346562Y-81908337D01*
X146616675Y-82216674D01*
X146308338Y-82946562D01*
X146000000Y-82216674D01*
X145270113Y-81908337D01*
X146000000Y-81600000D01*
X146308338Y-80870112D01*
X146616675Y-81600000D01*
G37*
D10*
X175710385Y-117873455D02*
X175756374Y-117877680D01*
X175801342Y-117883765D01*
X175845255Y-117891686D01*
X175888082Y-117901417D01*
X175929789Y-117912934D01*
X175970342Y-117926211D01*
X176009710Y-117941224D01*
X176047858Y-117957949D01*
X176084755Y-117976359D01*
X176120366Y-117996431D01*
X176154660Y-118018139D01*
X176187602Y-118041459D01*
X176219160Y-118066365D01*
X176249301Y-118092833D01*
X176277992Y-118120838D01*
X176305200Y-118150355D01*
X176330892Y-118181360D01*
X176355035Y-118213826D01*
X176377595Y-118247730D01*
X176398540Y-118283047D01*
X176417838Y-118319751D01*
X176435454Y-118357818D01*
X176451355Y-118397223D01*
X176465510Y-118437941D01*
X176477884Y-118479948D01*
X176488446Y-118523218D01*
X176497161Y-118567726D01*
X176503997Y-118613448D01*
X176508920Y-118660358D01*
X176511899Y-118708433D01*
X176512899Y-118757646D01*
X176511890Y-118809292D01*
X176508884Y-118859574D01*
X176503907Y-118908474D01*
X176496987Y-118955974D01*
X176488152Y-119002056D01*
X176477429Y-119046702D01*
X176464845Y-119089894D01*
X176450429Y-119131614D01*
X176434208Y-119171843D01*
X176416210Y-119210564D01*
X176396462Y-119247758D01*
X176374991Y-119283408D01*
X176351825Y-119317495D01*
X176326993Y-119350001D01*
X176300521Y-119380908D01*
X176272436Y-119410198D01*
X176242768Y-119437854D01*
X176211543Y-119463856D01*
X176178788Y-119488187D01*
X176144532Y-119510828D01*
X176108801Y-119531762D01*
X176071625Y-119550971D01*
X176033029Y-119568436D01*
X175993042Y-119584140D01*
X175951691Y-119598063D01*
X175909004Y-119610189D01*
X175865008Y-119620499D01*
X175819732Y-119628975D01*
X175773202Y-119635599D01*
X175725446Y-119640353D01*
X175676492Y-119643219D01*
X175626367Y-119644178D01*
X175578703Y-119643206D01*
X175532038Y-119640308D01*
X175486404Y-119635514D01*
X175441830Y-119628850D01*
X175398346Y-119620345D01*
X175355983Y-119610026D01*
X175314772Y-119597923D01*
X175274742Y-119584062D01*
X175235924Y-119568472D01*
X175198348Y-119551182D01*
X175162044Y-119532218D01*
X175127043Y-119511609D01*
X175093375Y-119489383D01*
X175061070Y-119465568D01*
X175030159Y-119440193D01*
X175000672Y-119413284D01*
X174972639Y-119384871D01*
X174946090Y-119354981D01*
X174921057Y-119323642D01*
X174897568Y-119290883D01*
X174875654Y-119256731D01*
X174855347Y-119221214D01*
X174836675Y-119184360D01*
X174819669Y-119146198D01*
X174804360Y-119106756D01*
X174790778Y-119066061D01*
X174778953Y-119024141D01*
X174768916Y-118981025D01*
X174760696Y-118936741D01*
X174754324Y-118891316D01*
X174749830Y-118844779D01*
X174747245Y-118797158D01*
X175016414Y-118797156D01*
X175018423Y-118830808D01*
X175021663Y-118863689D01*
X175026121Y-118895779D01*
X175031785Y-118927057D01*
X175038640Y-118957506D01*
X175046674Y-118987105D01*
X175055874Y-119015834D01*
X175066227Y-119043676D01*
X175077719Y-119070609D01*
X175090337Y-119096615D01*
X175104068Y-119121674D01*
X175118900Y-119145767D01*
X175134819Y-119168874D01*
X175151811Y-119190976D01*
X175169865Y-119212054D01*
X175188966Y-119232087D01*
X175209101Y-119251057D01*
X175230258Y-119268944D01*
X175252424Y-119285728D01*
X175275584Y-119301391D01*
X175299727Y-119315912D01*
X175324839Y-119329273D01*
X175350906Y-119341453D01*
X175377917Y-119352434D01*
X175405857Y-119362196D01*
X175434713Y-119370719D01*
X175464473Y-119377985D01*
X175495124Y-119383973D01*
X175526651Y-119388664D01*
X175559043Y-119392039D01*
X175592286Y-119394078D01*
X175626366Y-119394762D01*
X175661828Y-119394042D01*
X175696433Y-119391894D01*
X175730163Y-119388336D01*
X175763001Y-119383389D01*
X175794929Y-119377071D01*
X175825930Y-119369401D01*
X175855986Y-119360398D01*
X175885080Y-119350081D01*
X175913193Y-119338469D01*
X175940308Y-119325580D01*
X175966407Y-119311435D01*
X175991473Y-119296052D01*
X176015489Y-119279450D01*
X176038436Y-119261647D01*
X176060296Y-119242664D01*
X176081053Y-119222518D01*
X176100689Y-119201230D01*
X176119186Y-119178817D01*
X176136526Y-119155299D01*
X176152692Y-119130696D01*
X176167665Y-119105024D01*
X176181430Y-119078305D01*
X176193967Y-119050557D01*
X176205259Y-119021799D01*
X176215289Y-118992049D01*
X176224039Y-118961327D01*
X176231491Y-118929652D01*
X176237627Y-118897043D01*
X176242431Y-118863519D01*
X176245884Y-118829098D01*
X176247968Y-118793800D01*
X176248667Y-118757644D01*
X176248012Y-118722624D01*
X176246056Y-118688416D01*
X176242815Y-118655038D01*
X176238307Y-118622505D01*
X176232547Y-118590835D01*
X176225552Y-118560045D01*
X176217338Y-118530151D01*
X176207921Y-118501170D01*
X176197318Y-118473118D01*
X176185544Y-118446013D01*
X176172617Y-118419871D01*
X176158552Y-118394709D01*
X176143365Y-118370543D01*
X176127074Y-118347391D01*
X176109693Y-118325269D01*
X176091240Y-118304193D01*
X176071731Y-118284181D01*
X176051181Y-118265250D01*
X176029609Y-118247415D01*
X176007028Y-118230694D01*
X175983457Y-118215103D01*
X175958910Y-118200659D01*
X175933405Y-118187380D01*
X175906958Y-118175281D01*
X175879584Y-118164379D01*
X175851301Y-118154691D01*
X175822124Y-118146235D01*
X175792071Y-118139025D01*
X175761156Y-118133080D01*
X175729396Y-118128416D01*
X175696808Y-118125050D01*
X175663409Y-118122998D01*
X175663409Y-117871115D01*
X175710385Y-117873455D01*
G36*
X175710385Y-117873455D02*
G01*
X175756374Y-117877680D01*
X175801342Y-117883765D01*
X175845255Y-117891686D01*
X175888082Y-117901417D01*
X175929789Y-117912934D01*
X175970342Y-117926211D01*
X176009710Y-117941224D01*
X176047858Y-117957949D01*
X176084755Y-117976359D01*
X176120366Y-117996431D01*
X176154660Y-118018139D01*
X176187602Y-118041459D01*
X176219160Y-118066365D01*
X176249301Y-118092833D01*
X176277992Y-118120838D01*
X176305200Y-118150355D01*
X176330892Y-118181360D01*
X176355035Y-118213826D01*
X176377595Y-118247730D01*
X176398540Y-118283047D01*
X176417838Y-118319751D01*
X176435454Y-118357818D01*
X176451355Y-118397223D01*
X176465510Y-118437941D01*
X176477884Y-118479948D01*
X176488446Y-118523218D01*
X176497161Y-118567726D01*
X176503997Y-118613448D01*
X176508920Y-118660358D01*
X176511899Y-118708433D01*
X176512899Y-118757646D01*
X176511890Y-118809292D01*
X176508884Y-118859574D01*
X176503907Y-118908474D01*
X176496987Y-118955974D01*
X176488152Y-119002056D01*
X176477429Y-119046702D01*
X176464845Y-119089894D01*
X176450429Y-119131614D01*
X176434208Y-119171843D01*
X176416210Y-119210564D01*
X176396462Y-119247758D01*
X176374991Y-119283408D01*
X176351825Y-119317495D01*
X176326993Y-119350001D01*
X176300521Y-119380908D01*
X176272436Y-119410198D01*
X176242768Y-119437854D01*
X176211543Y-119463856D01*
X176178788Y-119488187D01*
X176144532Y-119510828D01*
X176108801Y-119531762D01*
X176071625Y-119550971D01*
X176033029Y-119568436D01*
X175993042Y-119584140D01*
X175951691Y-119598063D01*
X175909004Y-119610189D01*
X175865008Y-119620499D01*
X175819732Y-119628975D01*
X175773202Y-119635599D01*
X175725446Y-119640353D01*
X175676492Y-119643219D01*
X175626367Y-119644178D01*
X175578703Y-119643206D01*
X175532038Y-119640308D01*
X175486404Y-119635514D01*
X175441830Y-119628850D01*
X175398346Y-119620345D01*
X175355983Y-119610026D01*
X175314772Y-119597923D01*
X175274742Y-119584062D01*
X175235924Y-119568472D01*
X175198348Y-119551182D01*
X175162044Y-119532218D01*
X175127043Y-119511609D01*
X175093375Y-119489383D01*
X175061070Y-119465568D01*
X175030159Y-119440193D01*
X175000672Y-119413284D01*
X174972639Y-119384871D01*
X174946090Y-119354981D01*
X174921057Y-119323642D01*
X174897568Y-119290883D01*
X174875654Y-119256731D01*
X174855347Y-119221214D01*
X174836675Y-119184360D01*
X174819669Y-119146198D01*
X174804360Y-119106756D01*
X174790778Y-119066061D01*
X174778953Y-119024141D01*
X174768916Y-118981025D01*
X174760696Y-118936741D01*
X174754324Y-118891316D01*
X174749830Y-118844779D01*
X174747245Y-118797158D01*
X175016414Y-118797156D01*
X175018423Y-118830808D01*
X175021663Y-118863689D01*
X175026121Y-118895779D01*
X175031785Y-118927057D01*
X175038640Y-118957506D01*
X175046674Y-118987105D01*
X175055874Y-119015834D01*
X175066227Y-119043676D01*
X175077719Y-119070609D01*
X175090337Y-119096615D01*
X175104068Y-119121674D01*
X175118900Y-119145767D01*
X175134819Y-119168874D01*
X175151811Y-119190976D01*
X175169865Y-119212054D01*
X175188966Y-119232087D01*
X175209101Y-119251057D01*
X175230258Y-119268944D01*
X175252424Y-119285728D01*
X175275584Y-119301391D01*
X175299727Y-119315912D01*
X175324839Y-119329273D01*
X175350906Y-119341453D01*
X175377917Y-119352434D01*
X175405857Y-119362196D01*
X175434713Y-119370719D01*
X175464473Y-119377985D01*
X175495124Y-119383973D01*
X175526651Y-119388664D01*
X175559043Y-119392039D01*
X175592286Y-119394078D01*
X175626366Y-119394762D01*
X175661828Y-119394042D01*
X175696433Y-119391894D01*
X175730163Y-119388336D01*
X175763001Y-119383389D01*
X175794929Y-119377071D01*
X175825930Y-119369401D01*
X175855986Y-119360398D01*
X175885080Y-119350081D01*
X175913193Y-119338469D01*
X175940308Y-119325580D01*
X175966407Y-119311435D01*
X175991473Y-119296052D01*
X176015489Y-119279450D01*
X176038436Y-119261647D01*
X176060296Y-119242664D01*
X176081053Y-119222518D01*
X176100689Y-119201230D01*
X176119186Y-119178817D01*
X176136526Y-119155299D01*
X176152692Y-119130696D01*
X176167665Y-119105024D01*
X176181430Y-119078305D01*
X176193967Y-119050557D01*
X176205259Y-119021799D01*
X176215289Y-118992049D01*
X176224039Y-118961327D01*
X176231491Y-118929652D01*
X176237627Y-118897043D01*
X176242431Y-118863519D01*
X176245884Y-118829098D01*
X176247968Y-118793800D01*
X176248667Y-118757644D01*
X176248012Y-118722624D01*
X176246056Y-118688416D01*
X176242815Y-118655038D01*
X176238307Y-118622505D01*
X176232547Y-118590835D01*
X176225552Y-118560045D01*
X176217338Y-118530151D01*
X176207921Y-118501170D01*
X176197318Y-118473118D01*
X176185544Y-118446013D01*
X176172617Y-118419871D01*
X176158552Y-118394709D01*
X176143365Y-118370543D01*
X176127074Y-118347391D01*
X176109693Y-118325269D01*
X176091240Y-118304193D01*
X176071731Y-118284181D01*
X176051181Y-118265250D01*
X176029609Y-118247415D01*
X176007028Y-118230694D01*
X175983457Y-118215103D01*
X175958910Y-118200659D01*
X175933405Y-118187380D01*
X175906958Y-118175281D01*
X175879584Y-118164379D01*
X175851301Y-118154691D01*
X175822124Y-118146235D01*
X175792071Y-118139025D01*
X175761156Y-118133080D01*
X175729396Y-118128416D01*
X175696808Y-118125050D01*
X175663409Y-118122998D01*
X175663409Y-117871115D01*
X175710385Y-117873455D01*
G37*
X181701203Y-119619483D02*
X181392522Y-119619483D01*
X180856652Y-118110651D01*
X180841835Y-118110651D01*
X180340539Y-119619483D01*
X180051614Y-119619483D01*
X180659097Y-117895810D01*
X181039392Y-117895810D01*
X181701203Y-119619483D01*
G36*
X181701203Y-119619483D02*
G01*
X181392522Y-119619483D01*
X180856652Y-118110651D01*
X180841835Y-118110651D01*
X180340539Y-119619483D01*
X180051614Y-119619483D01*
X180659097Y-117895810D01*
X181039392Y-117895810D01*
X181701203Y-119619483D01*
G37*
X183113727Y-118155101D02*
X181787634Y-118155101D01*
X181787634Y-117895810D01*
X183113727Y-117895810D01*
X183113727Y-118155101D01*
G36*
X183113727Y-118155101D02*
G01*
X181787634Y-118155101D01*
X181787634Y-117895810D01*
X183113727Y-117895810D01*
X183113727Y-118155101D01*
G37*
X178001974Y-119216964D02*
X178009383Y-117895810D01*
X178258796Y-117895810D01*
X178258796Y-119619483D01*
X177984688Y-119619483D01*
X176828988Y-117895810D01*
X177088280Y-117895810D01*
X178001974Y-119216964D01*
G36*
X178001974Y-119216964D02*
G01*
X178009383Y-117895810D01*
X178258796Y-117895810D01*
X178258796Y-119619483D01*
X177984688Y-119619483D01*
X176828988Y-117895810D01*
X177088280Y-117895810D01*
X178001974Y-119216964D01*
G37*
X171228345Y-117873455D02*
X171274334Y-117877680D01*
X171319301Y-117883765D01*
X171363215Y-117891686D01*
X171406042Y-117901417D01*
X171447749Y-117912934D01*
X171488302Y-117926211D01*
X171527670Y-117941224D01*
X171565818Y-117957949D01*
X171602715Y-117976359D01*
X171638326Y-117996431D01*
X171672620Y-118018139D01*
X171705562Y-118041459D01*
X171737120Y-118066365D01*
X171767261Y-118092833D01*
X171795952Y-118120838D01*
X171823160Y-118150355D01*
X171848852Y-118181360D01*
X171872994Y-118213826D01*
X171895555Y-118247730D01*
X171916500Y-118283047D01*
X171935797Y-118319751D01*
X171953413Y-118357818D01*
X171969315Y-118397223D01*
X171983470Y-118437941D01*
X171995844Y-118479948D01*
X172006406Y-118523218D01*
X172015121Y-118567726D01*
X172021957Y-118613448D01*
X172026880Y-118660358D01*
X172029858Y-118708433D01*
X172030859Y-118757646D01*
X172029850Y-118809292D01*
X172026844Y-118859574D01*
X172021867Y-118908474D01*
X172014947Y-118955974D01*
X172006112Y-119002056D01*
X171995389Y-119046702D01*
X171982805Y-119089894D01*
X171968389Y-119131614D01*
X171952168Y-119171843D01*
X171934170Y-119210564D01*
X171914421Y-119247758D01*
X171892950Y-119283408D01*
X171869785Y-119317495D01*
X171844952Y-119350001D01*
X171818480Y-119380908D01*
X171790396Y-119410198D01*
X171760727Y-119437854D01*
X171729502Y-119463856D01*
X171696747Y-119488187D01*
X171662491Y-119510828D01*
X171626761Y-119531762D01*
X171589584Y-119550971D01*
X171550988Y-119568436D01*
X171511001Y-119584140D01*
X171469650Y-119598063D01*
X171426963Y-119610189D01*
X171382968Y-119620499D01*
X171337691Y-119628975D01*
X171291162Y-119635599D01*
X171243406Y-119640353D01*
X171194452Y-119643219D01*
X171144327Y-119644178D01*
X171096663Y-119643206D01*
X171049998Y-119640308D01*
X171004363Y-119635514D01*
X170959789Y-119628850D01*
X170916305Y-119620345D01*
X170873943Y-119610026D01*
X170832731Y-119597923D01*
X170792701Y-119584062D01*
X170753883Y-119568472D01*
X170716307Y-119551182D01*
X170680003Y-119532218D01*
X170645002Y-119511609D01*
X170611334Y-119489383D01*
X170579029Y-119465568D01*
X170548118Y-119440193D01*
X170518631Y-119413284D01*
X170490598Y-119384871D01*
X170464049Y-119354981D01*
X170439015Y-119323642D01*
X170415527Y-119290883D01*
X170393613Y-119256731D01*
X170373306Y-119221214D01*
X170354634Y-119184360D01*
X170337628Y-119146198D01*
X170322319Y-119106756D01*
X170308737Y-119066061D01*
X170296912Y-119024141D01*
X170286874Y-118981025D01*
X170278655Y-118936741D01*
X170272283Y-118891316D01*
X170267789Y-118844779D01*
X170265204Y-118797158D01*
X170534374Y-118797156D01*
X170536383Y-118830808D01*
X170539623Y-118863689D01*
X170544082Y-118895779D01*
X170549745Y-118927057D01*
X170556600Y-118957506D01*
X170564635Y-118987105D01*
X170573835Y-119015834D01*
X170584187Y-119043676D01*
X170595679Y-119070609D01*
X170608297Y-119096615D01*
X170622029Y-119121674D01*
X170636861Y-119145767D01*
X170652779Y-119168874D01*
X170669772Y-119190976D01*
X170687825Y-119212054D01*
X170706926Y-119232087D01*
X170727062Y-119251057D01*
X170748219Y-119268944D01*
X170770385Y-119285728D01*
X170793545Y-119301391D01*
X170817688Y-119315912D01*
X170842800Y-119329273D01*
X170868867Y-119341453D01*
X170895878Y-119352434D01*
X170923818Y-119362196D01*
X170952674Y-119370719D01*
X170982434Y-119377985D01*
X171013085Y-119383973D01*
X171044612Y-119388664D01*
X171077004Y-119392039D01*
X171110247Y-119394078D01*
X171144327Y-119394762D01*
X171179789Y-119394042D01*
X171214393Y-119391894D01*
X171248124Y-119388336D01*
X171280962Y-119383389D01*
X171312890Y-119377071D01*
X171343891Y-119369401D01*
X171373947Y-119360398D01*
X171403040Y-119350081D01*
X171431153Y-119338469D01*
X171458268Y-119325580D01*
X171484367Y-119311435D01*
X171509433Y-119296052D01*
X171533449Y-119279450D01*
X171556396Y-119261647D01*
X171578256Y-119242664D01*
X171599013Y-119222518D01*
X171618649Y-119201230D01*
X171637146Y-119178817D01*
X171654486Y-119155299D01*
X171670652Y-119130696D01*
X171685625Y-119105024D01*
X171699390Y-119078305D01*
X171711927Y-119050557D01*
X171723219Y-119021799D01*
X171733249Y-118992049D01*
X171741998Y-118961327D01*
X171749450Y-118929652D01*
X171755587Y-118897043D01*
X171760391Y-118863519D01*
X171763844Y-118829098D01*
X171765928Y-118793800D01*
X171766627Y-118757644D01*
X171765972Y-118722624D01*
X171764015Y-118688416D01*
X171760775Y-118655038D01*
X171756267Y-118622505D01*
X171750507Y-118590835D01*
X171743512Y-118560045D01*
X171735298Y-118530151D01*
X171725881Y-118501170D01*
X171715278Y-118473118D01*
X171703504Y-118446013D01*
X171690577Y-118419871D01*
X171676512Y-118394709D01*
X171661325Y-118370543D01*
X171645033Y-118347391D01*
X171627653Y-118325269D01*
X171609200Y-118304193D01*
X171589691Y-118284181D01*
X171569141Y-118265250D01*
X171547568Y-118247415D01*
X171524988Y-118230694D01*
X171501416Y-118215103D01*
X171476870Y-118200659D01*
X171451365Y-118187380D01*
X171424918Y-118175281D01*
X171397544Y-118164379D01*
X171369261Y-118154691D01*
X171340084Y-118146235D01*
X171310030Y-118139025D01*
X171279116Y-118133080D01*
X171247356Y-118128416D01*
X171214768Y-118125050D01*
X171181368Y-118122998D01*
X171181368Y-117871115D01*
X171228345Y-117873455D01*
G36*
X171228345Y-117873455D02*
G01*
X171274334Y-117877680D01*
X171319301Y-117883765D01*
X171363215Y-117891686D01*
X171406042Y-117901417D01*
X171447749Y-117912934D01*
X171488302Y-117926211D01*
X171527670Y-117941224D01*
X171565818Y-117957949D01*
X171602715Y-117976359D01*
X171638326Y-117996431D01*
X171672620Y-118018139D01*
X171705562Y-118041459D01*
X171737120Y-118066365D01*
X171767261Y-118092833D01*
X171795952Y-118120838D01*
X171823160Y-118150355D01*
X171848852Y-118181360D01*
X171872994Y-118213826D01*
X171895555Y-118247730D01*
X171916500Y-118283047D01*
X171935797Y-118319751D01*
X171953413Y-118357818D01*
X171969315Y-118397223D01*
X171983470Y-118437941D01*
X171995844Y-118479948D01*
X172006406Y-118523218D01*
X172015121Y-118567726D01*
X172021957Y-118613448D01*
X172026880Y-118660358D01*
X172029858Y-118708433D01*
X172030859Y-118757646D01*
X172029850Y-118809292D01*
X172026844Y-118859574D01*
X172021867Y-118908474D01*
X172014947Y-118955974D01*
X172006112Y-119002056D01*
X171995389Y-119046702D01*
X171982805Y-119089894D01*
X171968389Y-119131614D01*
X171952168Y-119171843D01*
X171934170Y-119210564D01*
X171914421Y-119247758D01*
X171892950Y-119283408D01*
X171869785Y-119317495D01*
X171844952Y-119350001D01*
X171818480Y-119380908D01*
X171790396Y-119410198D01*
X171760727Y-119437854D01*
X171729502Y-119463856D01*
X171696747Y-119488187D01*
X171662491Y-119510828D01*
X171626761Y-119531762D01*
X171589584Y-119550971D01*
X171550988Y-119568436D01*
X171511001Y-119584140D01*
X171469650Y-119598063D01*
X171426963Y-119610189D01*
X171382968Y-119620499D01*
X171337691Y-119628975D01*
X171291162Y-119635599D01*
X171243406Y-119640353D01*
X171194452Y-119643219D01*
X171144327Y-119644178D01*
X171096663Y-119643206D01*
X171049998Y-119640308D01*
X171004363Y-119635514D01*
X170959789Y-119628850D01*
X170916305Y-119620345D01*
X170873943Y-119610026D01*
X170832731Y-119597923D01*
X170792701Y-119584062D01*
X170753883Y-119568472D01*
X170716307Y-119551182D01*
X170680003Y-119532218D01*
X170645002Y-119511609D01*
X170611334Y-119489383D01*
X170579029Y-119465568D01*
X170548118Y-119440193D01*
X170518631Y-119413284D01*
X170490598Y-119384871D01*
X170464049Y-119354981D01*
X170439015Y-119323642D01*
X170415527Y-119290883D01*
X170393613Y-119256731D01*
X170373306Y-119221214D01*
X170354634Y-119184360D01*
X170337628Y-119146198D01*
X170322319Y-119106756D01*
X170308737Y-119066061D01*
X170296912Y-119024141D01*
X170286874Y-118981025D01*
X170278655Y-118936741D01*
X170272283Y-118891316D01*
X170267789Y-118844779D01*
X170265204Y-118797158D01*
X170534374Y-118797156D01*
X170536383Y-118830808D01*
X170539623Y-118863689D01*
X170544082Y-118895779D01*
X170549745Y-118927057D01*
X170556600Y-118957506D01*
X170564635Y-118987105D01*
X170573835Y-119015834D01*
X170584187Y-119043676D01*
X170595679Y-119070609D01*
X170608297Y-119096615D01*
X170622029Y-119121674D01*
X170636861Y-119145767D01*
X170652779Y-119168874D01*
X170669772Y-119190976D01*
X170687825Y-119212054D01*
X170706926Y-119232087D01*
X170727062Y-119251057D01*
X170748219Y-119268944D01*
X170770385Y-119285728D01*
X170793545Y-119301391D01*
X170817688Y-119315912D01*
X170842800Y-119329273D01*
X170868867Y-119341453D01*
X170895878Y-119352434D01*
X170923818Y-119362196D01*
X170952674Y-119370719D01*
X170982434Y-119377985D01*
X171013085Y-119383973D01*
X171044612Y-119388664D01*
X171077004Y-119392039D01*
X171110247Y-119394078D01*
X171144327Y-119394762D01*
X171179789Y-119394042D01*
X171214393Y-119391894D01*
X171248124Y-119388336D01*
X171280962Y-119383389D01*
X171312890Y-119377071D01*
X171343891Y-119369401D01*
X171373947Y-119360398D01*
X171403040Y-119350081D01*
X171431153Y-119338469D01*
X171458268Y-119325580D01*
X171484367Y-119311435D01*
X171509433Y-119296052D01*
X171533449Y-119279450D01*
X171556396Y-119261647D01*
X171578256Y-119242664D01*
X171599013Y-119222518D01*
X171618649Y-119201230D01*
X171637146Y-119178817D01*
X171654486Y-119155299D01*
X171670652Y-119130696D01*
X171685625Y-119105024D01*
X171699390Y-119078305D01*
X171711927Y-119050557D01*
X171723219Y-119021799D01*
X171733249Y-118992049D01*
X171741998Y-118961327D01*
X171749450Y-118929652D01*
X171755587Y-118897043D01*
X171760391Y-118863519D01*
X171763844Y-118829098D01*
X171765928Y-118793800D01*
X171766627Y-118757644D01*
X171765972Y-118722624D01*
X171764015Y-118688416D01*
X171760775Y-118655038D01*
X171756267Y-118622505D01*
X171750507Y-118590835D01*
X171743512Y-118560045D01*
X171735298Y-118530151D01*
X171725881Y-118501170D01*
X171715278Y-118473118D01*
X171703504Y-118446013D01*
X171690577Y-118419871D01*
X171676512Y-118394709D01*
X171661325Y-118370543D01*
X171645033Y-118347391D01*
X171627653Y-118325269D01*
X171609200Y-118304193D01*
X171589691Y-118284181D01*
X171569141Y-118265250D01*
X171547568Y-118247415D01*
X171524988Y-118230694D01*
X171501416Y-118215103D01*
X171476870Y-118200659D01*
X171451365Y-118187380D01*
X171424918Y-118175281D01*
X171397544Y-118164379D01*
X171369261Y-118154691D01*
X171340084Y-118146235D01*
X171310030Y-118139025D01*
X171279116Y-118133080D01*
X171247356Y-118128416D01*
X171214768Y-118125050D01*
X171181368Y-118122998D01*
X171181368Y-117871115D01*
X171228345Y-117873455D01*
G37*
X173519933Y-119216964D02*
X173527341Y-117895810D01*
X173776755Y-117895810D01*
X173776755Y-119619483D01*
X173502647Y-119619483D01*
X172346947Y-117895810D01*
X172606238Y-117895810D01*
X173519933Y-119216964D01*
G36*
X173519933Y-119216964D02*
G01*
X173527341Y-117895810D01*
X173776755Y-117895810D01*
X173776755Y-119619483D01*
X173502647Y-119619483D01*
X172346947Y-117895810D01*
X172606238Y-117895810D01*
X173519933Y-119216964D01*
G37*
X174421280Y-119619483D02*
X174154580Y-119619483D01*
X174154580Y-118409454D01*
X174421280Y-118409454D01*
X174421280Y-119619483D01*
G36*
X174421280Y-119619483D02*
G01*
X174154580Y-119619483D01*
X174154580Y-118409454D01*
X174421280Y-118409454D01*
X174421280Y-119619483D01*
G37*
X179312335Y-117874692D02*
X179376085Y-117881789D01*
X179437549Y-117892510D01*
X179467337Y-117899262D01*
X179496451Y-117906960D01*
X179524856Y-117915617D01*
X179552518Y-117925245D01*
X179579401Y-117935858D01*
X179605473Y-117947470D01*
X179630699Y-117960092D01*
X179655043Y-117973738D01*
X179678472Y-117988422D01*
X179700952Y-118004156D01*
X179722448Y-118020953D01*
X179742925Y-118038827D01*
X179762350Y-118057791D01*
X179780688Y-118077858D01*
X179797905Y-118099040D01*
X179813965Y-118121352D01*
X179828836Y-118144806D01*
X179842482Y-118169415D01*
X179854870Y-118195193D01*
X179865964Y-118222152D01*
X179875730Y-118250306D01*
X179884135Y-118279667D01*
X179891143Y-118310250D01*
X179896721Y-118342066D01*
X179900834Y-118375130D01*
X179903447Y-118409454D01*
X179634279Y-118409456D01*
X179632192Y-118389625D01*
X179629193Y-118370415D01*
X179625307Y-118351823D01*
X179620562Y-118333848D01*
X179614985Y-118316488D01*
X179608603Y-118299741D01*
X179601443Y-118283605D01*
X179593533Y-118268079D01*
X179584899Y-118253161D01*
X179575569Y-118238849D01*
X179565570Y-118225140D01*
X179554929Y-118212034D01*
X179543672Y-118199529D01*
X179531828Y-118187622D01*
X179519424Y-118176312D01*
X179506485Y-118165597D01*
X179493040Y-118155476D01*
X179479116Y-118145945D01*
X179449939Y-118128652D01*
X179419169Y-118113703D01*
X179387025Y-118101083D01*
X179353724Y-118090778D01*
X179319482Y-118082774D01*
X179284517Y-118077057D01*
X179249045Y-118073610D01*
X179246574Y-117871115D01*
X179312335Y-117874692D01*
G36*
X179312335Y-117874692D02*
G01*
X179376085Y-117881789D01*
X179437549Y-117892510D01*
X179467337Y-117899262D01*
X179496451Y-117906960D01*
X179524856Y-117915617D01*
X179552518Y-117925245D01*
X179579401Y-117935858D01*
X179605473Y-117947470D01*
X179630699Y-117960092D01*
X179655043Y-117973738D01*
X179678472Y-117988422D01*
X179700952Y-118004156D01*
X179722448Y-118020953D01*
X179742925Y-118038827D01*
X179762350Y-118057791D01*
X179780688Y-118077858D01*
X179797905Y-118099040D01*
X179813965Y-118121352D01*
X179828836Y-118144806D01*
X179842482Y-118169415D01*
X179854870Y-118195193D01*
X179865964Y-118222152D01*
X179875730Y-118250306D01*
X179884135Y-118279667D01*
X179891143Y-118310250D01*
X179896721Y-118342066D01*
X179900834Y-118375130D01*
X179903447Y-118409454D01*
X179634279Y-118409456D01*
X179632192Y-118389625D01*
X179629193Y-118370415D01*
X179625307Y-118351823D01*
X179620562Y-118333848D01*
X179614985Y-118316488D01*
X179608603Y-118299741D01*
X179601443Y-118283605D01*
X179593533Y-118268079D01*
X179584899Y-118253161D01*
X179575569Y-118238849D01*
X179565570Y-118225140D01*
X179554929Y-118212034D01*
X179543672Y-118199529D01*
X179531828Y-118187622D01*
X179519424Y-118176312D01*
X179506485Y-118165597D01*
X179493040Y-118155476D01*
X179479116Y-118145945D01*
X179449939Y-118128652D01*
X179419169Y-118113703D01*
X179387025Y-118101083D01*
X179353724Y-118090778D01*
X179319482Y-118082774D01*
X179284517Y-118077057D01*
X179249045Y-118073610D01*
X179246574Y-117871115D01*
X179312335Y-117874692D01*
G37*
X182585265Y-119619483D02*
X182321034Y-119619483D01*
X182321034Y-118461313D01*
X182585265Y-118461313D01*
X182585265Y-119619483D01*
G36*
X182585265Y-119619483D02*
G01*
X182321034Y-119619483D01*
X182321034Y-118461313D01*
X182585265Y-118461313D01*
X182585265Y-119619483D01*
G37*
X177066053Y-118789747D02*
X177066053Y-119619483D01*
X176809231Y-119619483D01*
X176809231Y-118419332D01*
X177066053Y-118789747D01*
G36*
X177066053Y-118789747D02*
G01*
X177066053Y-119619483D01*
X176809231Y-119619483D01*
X176809231Y-118419332D01*
X177066053Y-118789747D01*
G37*
D12*
X160172143Y-122256050D02*
X160279286Y-122291764D01*
X160279286Y-122291764D02*
X160457857Y-122291764D01*
X160457857Y-122291764D02*
X160529286Y-122256050D01*
X160529286Y-122256050D02*
X160565000Y-122220335D01*
X160565000Y-122220335D02*
X160600714Y-122148907D01*
X160600714Y-122148907D02*
X160600714Y-122077478D01*
X160600714Y-122077478D02*
X160565000Y-122006050D01*
X160565000Y-122006050D02*
X160529286Y-121970335D01*
X160529286Y-121970335D02*
X160457857Y-121934621D01*
X160457857Y-121934621D02*
X160315000Y-121898907D01*
X160315000Y-121898907D02*
X160243571Y-121863192D01*
X160243571Y-121863192D02*
X160207857Y-121827478D01*
X160207857Y-121827478D02*
X160172143Y-121756050D01*
X160172143Y-121756050D02*
X160172143Y-121684621D01*
X160172143Y-121684621D02*
X160207857Y-121613192D01*
X160207857Y-121613192D02*
X160243571Y-121577478D01*
X160243571Y-121577478D02*
X160315000Y-121541764D01*
X160315000Y-121541764D02*
X160493571Y-121541764D01*
X160493571Y-121541764D02*
X160600714Y-121577478D01*
X160922143Y-122291764D02*
X160922143Y-121541764D01*
X160922143Y-121541764D02*
X161207857Y-121541764D01*
X161207857Y-121541764D02*
X161279286Y-121577478D01*
X161279286Y-121577478D02*
X161315000Y-121613192D01*
X161315000Y-121613192D02*
X161350714Y-121684621D01*
X161350714Y-121684621D02*
X161350714Y-121791764D01*
X161350714Y-121791764D02*
X161315000Y-121863192D01*
X161315000Y-121863192D02*
X161279286Y-121898907D01*
X161279286Y-121898907D02*
X161207857Y-121934621D01*
X161207857Y-121934621D02*
X160922143Y-121934621D01*
X161672143Y-122291764D02*
X161672143Y-121541764D01*
X161672143Y-121541764D02*
X161922143Y-122077478D01*
X161922143Y-122077478D02*
X162172143Y-121541764D01*
X162172143Y-121541764D02*
X162172143Y-122291764D01*
X173934702Y-122937698D02*
X173934702Y-122504365D01*
X173934702Y-122628174D02*
X173965655Y-122566269D01*
X173965655Y-122566269D02*
X173996607Y-122535317D01*
X173996607Y-122535317D02*
X174058512Y-122504365D01*
X174058512Y-122504365D02*
X174120417Y-122504365D01*
X174584702Y-122906746D02*
X174522798Y-122937698D01*
X174522798Y-122937698D02*
X174398988Y-122937698D01*
X174398988Y-122937698D02*
X174337083Y-122906746D01*
X174337083Y-122906746D02*
X174306131Y-122844841D01*
X174306131Y-122844841D02*
X174306131Y-122597222D01*
X174306131Y-122597222D02*
X174337083Y-122535317D01*
X174337083Y-122535317D02*
X174398988Y-122504365D01*
X174398988Y-122504365D02*
X174522798Y-122504365D01*
X174522798Y-122504365D02*
X174584702Y-122535317D01*
X174584702Y-122535317D02*
X174615655Y-122597222D01*
X174615655Y-122597222D02*
X174615655Y-122659126D01*
X174615655Y-122659126D02*
X174306131Y-122721031D01*
X174832322Y-122504365D02*
X174987084Y-122937698D01*
X174987084Y-122937698D02*
X175141845Y-122504365D01*
X175389464Y-122937698D02*
X175389464Y-122504365D01*
X175389464Y-122287698D02*
X175358512Y-122318650D01*
X175358512Y-122318650D02*
X175389464Y-122349603D01*
X175389464Y-122349603D02*
X175420417Y-122318650D01*
X175420417Y-122318650D02*
X175389464Y-122287698D01*
X175389464Y-122287698D02*
X175389464Y-122349603D01*
X175668036Y-122906746D02*
X175729941Y-122937698D01*
X175729941Y-122937698D02*
X175853750Y-122937698D01*
X175853750Y-122937698D02*
X175915655Y-122906746D01*
X175915655Y-122906746D02*
X175946607Y-122844841D01*
X175946607Y-122844841D02*
X175946607Y-122813888D01*
X175946607Y-122813888D02*
X175915655Y-122751984D01*
X175915655Y-122751984D02*
X175853750Y-122721031D01*
X175853750Y-122721031D02*
X175760893Y-122721031D01*
X175760893Y-122721031D02*
X175698988Y-122690079D01*
X175698988Y-122690079D02*
X175668036Y-122628174D01*
X175668036Y-122628174D02*
X175668036Y-122597222D01*
X175668036Y-122597222D02*
X175698988Y-122535317D01*
X175698988Y-122535317D02*
X175760893Y-122504365D01*
X175760893Y-122504365D02*
X175853750Y-122504365D01*
X175853750Y-122504365D02*
X175915655Y-122535317D01*
X176225178Y-122937698D02*
X176225178Y-122504365D01*
X176225178Y-122287698D02*
X176194226Y-122318650D01*
X176194226Y-122318650D02*
X176225178Y-122349603D01*
X176225178Y-122349603D02*
X176256131Y-122318650D01*
X176256131Y-122318650D02*
X176225178Y-122287698D01*
X176225178Y-122287698D02*
X176225178Y-122349603D01*
X176627560Y-122937698D02*
X176565655Y-122906746D01*
X176565655Y-122906746D02*
X176534702Y-122875793D01*
X176534702Y-122875793D02*
X176503750Y-122813888D01*
X176503750Y-122813888D02*
X176503750Y-122628174D01*
X176503750Y-122628174D02*
X176534702Y-122566269D01*
X176534702Y-122566269D02*
X176565655Y-122535317D01*
X176565655Y-122535317D02*
X176627560Y-122504365D01*
X176627560Y-122504365D02*
X176720417Y-122504365D01*
X176720417Y-122504365D02*
X176782321Y-122535317D01*
X176782321Y-122535317D02*
X176813274Y-122566269D01*
X176813274Y-122566269D02*
X176844226Y-122628174D01*
X176844226Y-122628174D02*
X176844226Y-122813888D01*
X176844226Y-122813888D02*
X176813274Y-122875793D01*
X176813274Y-122875793D02*
X176782321Y-122906746D01*
X176782321Y-122906746D02*
X176720417Y-122937698D01*
X176720417Y-122937698D02*
X176627560Y-122937698D01*
X177122797Y-122504365D02*
X177122797Y-122937698D01*
X177122797Y-122566269D02*
X177153750Y-122535317D01*
X177153750Y-122535317D02*
X177215655Y-122504365D01*
X177215655Y-122504365D02*
X177308512Y-122504365D01*
X177308512Y-122504365D02*
X177370416Y-122535317D01*
X177370416Y-122535317D02*
X177401369Y-122597222D01*
X177401369Y-122597222D02*
X177401369Y-122937698D01*
X178546607Y-122937698D02*
X178175178Y-122937698D01*
X178360892Y-122937698D02*
X178360892Y-122287698D01*
X178360892Y-122287698D02*
X178298988Y-122380555D01*
X178298988Y-122380555D02*
X178237083Y-122442460D01*
X178237083Y-122442460D02*
X178175178Y-122473412D01*
X178825178Y-122875793D02*
X178856131Y-122906746D01*
X178856131Y-122906746D02*
X178825178Y-122937698D01*
X178825178Y-122937698D02*
X178794226Y-122906746D01*
X178794226Y-122906746D02*
X178825178Y-122875793D01*
X178825178Y-122875793D02*
X178825178Y-122937698D01*
X179258512Y-122287698D02*
X179320417Y-122287698D01*
X179320417Y-122287698D02*
X179382321Y-122318650D01*
X179382321Y-122318650D02*
X179413274Y-122349603D01*
X179413274Y-122349603D02*
X179444226Y-122411507D01*
X179444226Y-122411507D02*
X179475179Y-122535317D01*
X179475179Y-122535317D02*
X179475179Y-122690079D01*
X179475179Y-122690079D02*
X179444226Y-122813888D01*
X179444226Y-122813888D02*
X179413274Y-122875793D01*
X179413274Y-122875793D02*
X179382321Y-122906746D01*
X179382321Y-122906746D02*
X179320417Y-122937698D01*
X179320417Y-122937698D02*
X179258512Y-122937698D01*
X179258512Y-122937698D02*
X179196607Y-122906746D01*
X179196607Y-122906746D02*
X179165655Y-122875793D01*
X179165655Y-122875793D02*
X179134702Y-122813888D01*
X179134702Y-122813888D02*
X179103750Y-122690079D01*
X179103750Y-122690079D02*
X179103750Y-122535317D01*
X179103750Y-122535317D02*
X179134702Y-122411507D01*
X179134702Y-122411507D02*
X179165655Y-122349603D01*
X179165655Y-122349603D02*
X179196607Y-122318650D01*
X179196607Y-122318650D02*
X179258512Y-122287698D01*
X167845714Y-121541764D02*
X168274286Y-121541764D01*
X168060000Y-122291764D02*
X168060000Y-121541764D01*
X168952857Y-122291764D02*
X168702857Y-121934621D01*
X168524286Y-122291764D02*
X168524286Y-121541764D01*
X168524286Y-121541764D02*
X168810000Y-121541764D01*
X168810000Y-121541764D02*
X168881429Y-121577478D01*
X168881429Y-121577478D02*
X168917143Y-121613192D01*
X168917143Y-121613192D02*
X168952857Y-121684621D01*
X168952857Y-121684621D02*
X168952857Y-121791764D01*
X168952857Y-121791764D02*
X168917143Y-121863192D01*
X168917143Y-121863192D02*
X168881429Y-121898907D01*
X168881429Y-121898907D02*
X168810000Y-121934621D01*
X168810000Y-121934621D02*
X168524286Y-121934621D01*
X169667143Y-121577478D02*
X169595715Y-121541764D01*
X169595715Y-121541764D02*
X169488572Y-121541764D01*
X169488572Y-121541764D02*
X169381429Y-121577478D01*
X169381429Y-121577478D02*
X169310000Y-121648907D01*
X169310000Y-121648907D02*
X169274286Y-121720335D01*
X169274286Y-121720335D02*
X169238572Y-121863192D01*
X169238572Y-121863192D02*
X169238572Y-121970335D01*
X169238572Y-121970335D02*
X169274286Y-122113192D01*
X169274286Y-122113192D02*
X169310000Y-122184621D01*
X169310000Y-122184621D02*
X169381429Y-122256050D01*
X169381429Y-122256050D02*
X169488572Y-122291764D01*
X169488572Y-122291764D02*
X169560000Y-122291764D01*
X169560000Y-122291764D02*
X169667143Y-122256050D01*
X169667143Y-122256050D02*
X169702857Y-122220335D01*
X169702857Y-122220335D02*
X169702857Y-121970335D01*
X169702857Y-121970335D02*
X169560000Y-121970335D01*
X165680714Y-80016764D02*
X165680714Y-79266764D01*
X165680714Y-79266764D02*
X165859285Y-79266764D01*
X165859285Y-79266764D02*
X165966428Y-79302478D01*
X165966428Y-79302478D02*
X166037857Y-79373907D01*
X166037857Y-79373907D02*
X166073571Y-79445335D01*
X166073571Y-79445335D02*
X166109285Y-79588192D01*
X166109285Y-79588192D02*
X166109285Y-79695335D01*
X166109285Y-79695335D02*
X166073571Y-79838192D01*
X166073571Y-79838192D02*
X166037857Y-79909621D01*
X166037857Y-79909621D02*
X165966428Y-79981050D01*
X165966428Y-79981050D02*
X165859285Y-80016764D01*
X165859285Y-80016764D02*
X165680714Y-80016764D01*
X166430714Y-80016764D02*
X166430714Y-79266764D01*
X166430714Y-79266764D02*
X166859285Y-80016764D01*
X166859285Y-80016764D02*
X166859285Y-79266764D01*
X163158571Y-80016764D02*
X163158571Y-79266764D01*
X163158571Y-79266764D02*
X163337142Y-79266764D01*
X163337142Y-79266764D02*
X163444285Y-79302478D01*
X163444285Y-79302478D02*
X163515714Y-79373907D01*
X163515714Y-79373907D02*
X163551428Y-79445335D01*
X163551428Y-79445335D02*
X163587142Y-79588192D01*
X163587142Y-79588192D02*
X163587142Y-79695335D01*
X163587142Y-79695335D02*
X163551428Y-79838192D01*
X163551428Y-79838192D02*
X163515714Y-79909621D01*
X163515714Y-79909621D02*
X163444285Y-79981050D01*
X163444285Y-79981050D02*
X163337142Y-80016764D01*
X163337142Y-80016764D02*
X163158571Y-80016764D01*
X163908571Y-80016764D02*
X163908571Y-79266764D01*
X163908571Y-79266764D02*
X164194285Y-79266764D01*
X164194285Y-79266764D02*
X164265714Y-79302478D01*
X164265714Y-79302478D02*
X164301428Y-79338192D01*
X164301428Y-79338192D02*
X164337142Y-79409621D01*
X164337142Y-79409621D02*
X164337142Y-79516764D01*
X164337142Y-79516764D02*
X164301428Y-79588192D01*
X164301428Y-79588192D02*
X164265714Y-79623907D01*
X164265714Y-79623907D02*
X164194285Y-79659621D01*
X164194285Y-79659621D02*
X163908571Y-79659621D01*
D13*
X172013298Y-121034007D02*
X172013298Y-120134007D01*
X172013298Y-120134007D02*
X172313298Y-120776864D01*
X172313298Y-120776864D02*
X172613298Y-120134007D01*
X172613298Y-120134007D02*
X172613298Y-121034007D01*
X173427584Y-120434007D02*
X173427584Y-121034007D01*
X173041869Y-120434007D02*
X173041869Y-120905435D01*
X173041869Y-120905435D02*
X173084726Y-120991150D01*
X173084726Y-120991150D02*
X173170441Y-121034007D01*
X173170441Y-121034007D02*
X173299012Y-121034007D01*
X173299012Y-121034007D02*
X173384726Y-120991150D01*
X173384726Y-120991150D02*
X173427584Y-120948292D01*
X173984727Y-121034007D02*
X173899012Y-120991150D01*
X173899012Y-120991150D02*
X173856155Y-120948292D01*
X173856155Y-120948292D02*
X173813298Y-120862578D01*
X173813298Y-120862578D02*
X173813298Y-120605435D01*
X173813298Y-120605435D02*
X173856155Y-120519721D01*
X173856155Y-120519721D02*
X173899012Y-120476864D01*
X173899012Y-120476864D02*
X173984727Y-120434007D01*
X173984727Y-120434007D02*
X174113298Y-120434007D01*
X174113298Y-120434007D02*
X174199012Y-120476864D01*
X174199012Y-120476864D02*
X174241870Y-120519721D01*
X174241870Y-120519721D02*
X174284727Y-120605435D01*
X174284727Y-120605435D02*
X174284727Y-120862578D01*
X174284727Y-120862578D02*
X174241870Y-120948292D01*
X174241870Y-120948292D02*
X174199012Y-120991150D01*
X174199012Y-120991150D02*
X174113298Y-121034007D01*
X174113298Y-121034007D02*
X173984727Y-121034007D01*
X174670441Y-120434007D02*
X174670441Y-121034007D01*
X174670441Y-120519721D02*
X174713298Y-120476864D01*
X174713298Y-120476864D02*
X174799013Y-120434007D01*
X174799013Y-120434007D02*
X174927584Y-120434007D01*
X174927584Y-120434007D02*
X175013298Y-120476864D01*
X175013298Y-120476864D02*
X175056156Y-120562578D01*
X175056156Y-120562578D02*
X175056156Y-121034007D01*
X176170441Y-121034007D02*
X176170441Y-120134007D01*
X176170441Y-120134007D02*
X176384727Y-120134007D01*
X176384727Y-120134007D02*
X176513298Y-120176864D01*
X176513298Y-120176864D02*
X176599013Y-120262578D01*
X176599013Y-120262578D02*
X176641870Y-120348292D01*
X176641870Y-120348292D02*
X176684727Y-120519721D01*
X176684727Y-120519721D02*
X176684727Y-120648292D01*
X176684727Y-120648292D02*
X176641870Y-120819721D01*
X176641870Y-120819721D02*
X176599013Y-120905435D01*
X176599013Y-120905435D02*
X176513298Y-120991150D01*
X176513298Y-120991150D02*
X176384727Y-121034007D01*
X176384727Y-121034007D02*
X176170441Y-121034007D01*
X177413298Y-120991150D02*
X177327584Y-121034007D01*
X177327584Y-121034007D02*
X177156156Y-121034007D01*
X177156156Y-121034007D02*
X177070441Y-120991150D01*
X177070441Y-120991150D02*
X177027584Y-120905435D01*
X177027584Y-120905435D02*
X177027584Y-120562578D01*
X177027584Y-120562578D02*
X177070441Y-120476864D01*
X177070441Y-120476864D02*
X177156156Y-120434007D01*
X177156156Y-120434007D02*
X177327584Y-120434007D01*
X177327584Y-120434007D02*
X177413298Y-120476864D01*
X177413298Y-120476864D02*
X177456156Y-120562578D01*
X177456156Y-120562578D02*
X177456156Y-120648292D01*
X177456156Y-120648292D02*
X177027584Y-120734007D01*
X177713299Y-120434007D02*
X178056156Y-120434007D01*
X177841870Y-120134007D02*
X177841870Y-120905435D01*
X177841870Y-120905435D02*
X177884727Y-120991150D01*
X177884727Y-120991150D02*
X177970442Y-121034007D01*
X177970442Y-121034007D02*
X178056156Y-121034007D01*
X178699013Y-120991150D02*
X178613299Y-121034007D01*
X178613299Y-121034007D02*
X178441871Y-121034007D01*
X178441871Y-121034007D02*
X178356156Y-120991150D01*
X178356156Y-120991150D02*
X178313299Y-120905435D01*
X178313299Y-120905435D02*
X178313299Y-120562578D01*
X178313299Y-120562578D02*
X178356156Y-120476864D01*
X178356156Y-120476864D02*
X178441871Y-120434007D01*
X178441871Y-120434007D02*
X178613299Y-120434007D01*
X178613299Y-120434007D02*
X178699013Y-120476864D01*
X178699013Y-120476864D02*
X178741871Y-120562578D01*
X178741871Y-120562578D02*
X178741871Y-120648292D01*
X178741871Y-120648292D02*
X178313299Y-120734007D01*
X179513300Y-120991150D02*
X179427585Y-121034007D01*
X179427585Y-121034007D02*
X179256157Y-121034007D01*
X179256157Y-121034007D02*
X179170442Y-120991150D01*
X179170442Y-120991150D02*
X179127585Y-120948292D01*
X179127585Y-120948292D02*
X179084728Y-120862578D01*
X179084728Y-120862578D02*
X179084728Y-120605435D01*
X179084728Y-120605435D02*
X179127585Y-120519721D01*
X179127585Y-120519721D02*
X179170442Y-120476864D01*
X179170442Y-120476864D02*
X179256157Y-120434007D01*
X179256157Y-120434007D02*
X179427585Y-120434007D01*
X179427585Y-120434007D02*
X179513300Y-120476864D01*
X179770443Y-120434007D02*
X180113300Y-120434007D01*
X179899014Y-120134007D02*
X179899014Y-120905435D01*
X179899014Y-120905435D02*
X179941871Y-120991150D01*
X179941871Y-120991150D02*
X180027586Y-121034007D01*
X180027586Y-121034007D02*
X180113300Y-121034007D01*
X180541872Y-121034007D02*
X180456157Y-120991150D01*
X180456157Y-120991150D02*
X180413300Y-120948292D01*
X180413300Y-120948292D02*
X180370443Y-120862578D01*
X180370443Y-120862578D02*
X180370443Y-120605435D01*
X180370443Y-120605435D02*
X180413300Y-120519721D01*
X180413300Y-120519721D02*
X180456157Y-120476864D01*
X180456157Y-120476864D02*
X180541872Y-120434007D01*
X180541872Y-120434007D02*
X180670443Y-120434007D01*
X180670443Y-120434007D02*
X180756157Y-120476864D01*
X180756157Y-120476864D02*
X180799015Y-120519721D01*
X180799015Y-120519721D02*
X180841872Y-120605435D01*
X180841872Y-120605435D02*
X180841872Y-120862578D01*
X180841872Y-120862578D02*
X180799015Y-120948292D01*
X180799015Y-120948292D02*
X180756157Y-120991150D01*
X180756157Y-120991150D02*
X180670443Y-121034007D01*
X180670443Y-121034007D02*
X180541872Y-121034007D01*
X181227586Y-121034007D02*
X181227586Y-120434007D01*
X181227586Y-120605435D02*
X181270443Y-120519721D01*
X181270443Y-120519721D02*
X181313301Y-120476864D01*
X181313301Y-120476864D02*
X181399015Y-120434007D01*
X181399015Y-120434007D02*
X181484729Y-120434007D01*
D12*
X165502143Y-122256050D02*
X165609286Y-122291764D01*
X165609286Y-122291764D02*
X165787857Y-122291764D01*
X165787857Y-122291764D02*
X165859286Y-122256050D01*
X165859286Y-122256050D02*
X165895000Y-122220335D01*
X165895000Y-122220335D02*
X165930714Y-122148907D01*
X165930714Y-122148907D02*
X165930714Y-122077478D01*
X165930714Y-122077478D02*
X165895000Y-122006050D01*
X165895000Y-122006050D02*
X165859286Y-121970335D01*
X165859286Y-121970335D02*
X165787857Y-121934621D01*
X165787857Y-121934621D02*
X165645000Y-121898907D01*
X165645000Y-121898907D02*
X165573571Y-121863192D01*
X165573571Y-121863192D02*
X165537857Y-121827478D01*
X165537857Y-121827478D02*
X165502143Y-121756050D01*
X165502143Y-121756050D02*
X165502143Y-121684621D01*
X165502143Y-121684621D02*
X165537857Y-121613192D01*
X165537857Y-121613192D02*
X165573571Y-121577478D01*
X165573571Y-121577478D02*
X165645000Y-121541764D01*
X165645000Y-121541764D02*
X165823571Y-121541764D01*
X165823571Y-121541764D02*
X165930714Y-121577478D01*
X166252143Y-122291764D02*
X166252143Y-121541764D01*
X167002143Y-121577478D02*
X166930715Y-121541764D01*
X166930715Y-121541764D02*
X166823572Y-121541764D01*
X166823572Y-121541764D02*
X166716429Y-121577478D01*
X166716429Y-121577478D02*
X166645000Y-121648907D01*
X166645000Y-121648907D02*
X166609286Y-121720335D01*
X166609286Y-121720335D02*
X166573572Y-121863192D01*
X166573572Y-121863192D02*
X166573572Y-121970335D01*
X166573572Y-121970335D02*
X166609286Y-122113192D01*
X166609286Y-122113192D02*
X166645000Y-122184621D01*
X166645000Y-122184621D02*
X166716429Y-122256050D01*
X166716429Y-122256050D02*
X166823572Y-122291764D01*
X166823572Y-122291764D02*
X166895000Y-122291764D01*
X166895000Y-122291764D02*
X167002143Y-122256050D01*
X167002143Y-122256050D02*
X167037857Y-122220335D01*
X167037857Y-122220335D02*
X167037857Y-121970335D01*
X167037857Y-121970335D02*
X166895000Y-121970335D01*
X168238571Y-79302478D02*
X168167143Y-79266764D01*
X168167143Y-79266764D02*
X168060000Y-79266764D01*
X168060000Y-79266764D02*
X167952857Y-79302478D01*
X167952857Y-79302478D02*
X167881428Y-79373907D01*
X167881428Y-79373907D02*
X167845714Y-79445335D01*
X167845714Y-79445335D02*
X167810000Y-79588192D01*
X167810000Y-79588192D02*
X167810000Y-79695335D01*
X167810000Y-79695335D02*
X167845714Y-79838192D01*
X167845714Y-79838192D02*
X167881428Y-79909621D01*
X167881428Y-79909621D02*
X167952857Y-79981050D01*
X167952857Y-79981050D02*
X168060000Y-80016764D01*
X168060000Y-80016764D02*
X168131428Y-80016764D01*
X168131428Y-80016764D02*
X168238571Y-79981050D01*
X168238571Y-79981050D02*
X168274285Y-79945335D01*
X168274285Y-79945335D02*
X168274285Y-79695335D01*
X168274285Y-79695335D02*
X168131428Y-79695335D01*
X168595714Y-80016764D02*
X168595714Y-79266764D01*
X168595714Y-79266764D02*
X169024285Y-80016764D01*
X169024285Y-80016764D02*
X169024285Y-79266764D01*
X169381428Y-80016764D02*
X169381428Y-79266764D01*
X169381428Y-79266764D02*
X169559999Y-79266764D01*
X169559999Y-79266764D02*
X169667142Y-79302478D01*
X169667142Y-79302478D02*
X169738571Y-79373907D01*
X169738571Y-79373907D02*
X169774285Y-79445335D01*
X169774285Y-79445335D02*
X169809999Y-79588192D01*
X169809999Y-79588192D02*
X169809999Y-79695335D01*
X169809999Y-79695335D02*
X169774285Y-79838192D01*
X169774285Y-79838192D02*
X169738571Y-79909621D01*
X169738571Y-79909621D02*
X169667142Y-79981050D01*
X169667142Y-79981050D02*
X169559999Y-80016764D01*
X169559999Y-80016764D02*
X169381428Y-80016764D01*
X160190000Y-79266764D02*
X160440000Y-80016764D01*
X160440000Y-80016764D02*
X160690000Y-79266764D01*
X161368571Y-79945335D02*
X161332857Y-79981050D01*
X161332857Y-79981050D02*
X161225714Y-80016764D01*
X161225714Y-80016764D02*
X161154286Y-80016764D01*
X161154286Y-80016764D02*
X161047143Y-79981050D01*
X161047143Y-79981050D02*
X160975714Y-79909621D01*
X160975714Y-79909621D02*
X160940000Y-79838192D01*
X160940000Y-79838192D02*
X160904286Y-79695335D01*
X160904286Y-79695335D02*
X160904286Y-79588192D01*
X160904286Y-79588192D02*
X160940000Y-79445335D01*
X160940000Y-79445335D02*
X160975714Y-79373907D01*
X160975714Y-79373907D02*
X161047143Y-79302478D01*
X161047143Y-79302478D02*
X161154286Y-79266764D01*
X161154286Y-79266764D02*
X161225714Y-79266764D01*
X161225714Y-79266764D02*
X161332857Y-79302478D01*
X161332857Y-79302478D02*
X161368571Y-79338192D01*
X162118571Y-79945335D02*
X162082857Y-79981050D01*
X162082857Y-79981050D02*
X161975714Y-80016764D01*
X161975714Y-80016764D02*
X161904286Y-80016764D01*
X161904286Y-80016764D02*
X161797143Y-79981050D01*
X161797143Y-79981050D02*
X161725714Y-79909621D01*
X161725714Y-79909621D02*
X161690000Y-79838192D01*
X161690000Y-79838192D02*
X161654286Y-79695335D01*
X161654286Y-79695335D02*
X161654286Y-79588192D01*
X161654286Y-79588192D02*
X161690000Y-79445335D01*
X161690000Y-79445335D02*
X161725714Y-79373907D01*
X161725714Y-79373907D02*
X161797143Y-79302478D01*
X161797143Y-79302478D02*
X161904286Y-79266764D01*
X161904286Y-79266764D02*
X161975714Y-79266764D01*
X161975714Y-79266764D02*
X162082857Y-79302478D01*
X162082857Y-79302478D02*
X162118571Y-79338192D01*
X162747857Y-122077478D02*
X163105000Y-122077478D01*
X162676428Y-122291764D02*
X162926428Y-121541764D01*
X162926428Y-121541764D02*
X163176428Y-122291764D01*
X163426428Y-122291764D02*
X163426428Y-121541764D01*
X163426428Y-121541764D02*
X163676428Y-122077478D01*
X163676428Y-122077478D02*
X163926428Y-121541764D01*
X163926428Y-121541764D02*
X163926428Y-122291764D01*
X164283571Y-122291764D02*
X164283571Y-121541764D01*
X164283571Y-121541764D02*
X164569285Y-121541764D01*
X164569285Y-121541764D02*
X164640714Y-121577478D01*
X164640714Y-121577478D02*
X164676428Y-121613192D01*
X164676428Y-121613192D02*
X164712142Y-121684621D01*
X164712142Y-121684621D02*
X164712142Y-121791764D01*
X164712142Y-121791764D02*
X164676428Y-121863192D01*
X164676428Y-121863192D02*
X164640714Y-121898907D01*
X164640714Y-121898907D02*
X164569285Y-121934621D01*
X164569285Y-121934621D02*
X164283571Y-121934621D01*
D14*
%TO.C,C28*%
X143807836Y-84590000D02*
X143592164Y-84590000D01*
X143807836Y-85310000D02*
X143592164Y-85310000D01*
%TO.C,R4*%
X161977064Y-117665000D02*
X161522936Y-117665000D01*
X161977064Y-119135000D02*
X161522936Y-119135000D01*
D15*
%TO.C,U6*%
X149550000Y-90696938D02*
X149550000Y-87696938D01*
X149550000Y-95696938D02*
X149550000Y-105696938D01*
X149550000Y-110696938D02*
X149550000Y-113696938D01*
X152000000Y-85246938D02*
X155000000Y-85246938D01*
X152000000Y-116146938D02*
X155000000Y-116146938D01*
X160000000Y-85246938D02*
X170000000Y-85246938D01*
X160000000Y-116146938D02*
X170000000Y-116146938D01*
X178000000Y-85246938D02*
X175000000Y-85246938D01*
X178000000Y-116146938D02*
X175000000Y-116146938D01*
X180450000Y-87696938D02*
X180450000Y-90696938D01*
X180450000Y-95696938D02*
X180450000Y-105696938D01*
X180450000Y-110696938D02*
X180450000Y-113696938D01*
X149550000Y-87696938D02*
G75*
G02*
X152000000Y-85246938I2449999J1D01*
G01*
X152000000Y-116146938D02*
G75*
G02*
X149550000Y-113696938I0J2450000D01*
G01*
X178000000Y-85246938D02*
G75*
G02*
X180450000Y-87696938I0J-2450000D01*
G01*
X180450000Y-113696938D02*
G75*
G02*
X178000000Y-116146938I-2450000J0D01*
G01*
D14*
%TO.C,C29*%
X143807836Y-85540000D02*
X143592164Y-85540000D01*
X143807836Y-86260000D02*
X143592164Y-86260000D01*
%TO.C,R22*%
X174120000Y-76953641D02*
X174120000Y-76646359D01*
X174880000Y-76953641D02*
X174880000Y-76646359D01*
%TO.C,R18*%
X147372936Y-113465000D02*
X147827064Y-113465000D01*
X147372936Y-114935000D02*
X147827064Y-114935000D01*
%TO.C,J2*%
X183085000Y-90586938D02*
X183085000Y-90886938D01*
X183085000Y-90586938D02*
X187305000Y-90586938D01*
X183085000Y-92506938D02*
X183085000Y-92886938D01*
X183085000Y-94506938D02*
X183085000Y-94886938D01*
X183085000Y-96506938D02*
X183085000Y-96886938D01*
X183085000Y-98506938D02*
X183085000Y-98886938D01*
X183085000Y-100506938D02*
X183085000Y-100886938D01*
X183085000Y-102506938D02*
X183085000Y-102886938D01*
X183085000Y-104506938D02*
X183085000Y-104886938D01*
X183085000Y-106506938D02*
X183085000Y-106886938D01*
X183085000Y-108506938D02*
X183085000Y-108886938D01*
X183085000Y-110506938D02*
X183085000Y-110806938D01*
X183085000Y-110806938D02*
X187305000Y-110806938D01*
X187305000Y-90586938D02*
X187305000Y-90886938D01*
X187305000Y-92506938D02*
X187305000Y-92886938D01*
X187305000Y-94506938D02*
X187305000Y-94886938D01*
X187305000Y-96506938D02*
X187305000Y-96886938D01*
X187305000Y-98506938D02*
X187305000Y-98886938D01*
X187305000Y-100506938D02*
X187305000Y-100886938D01*
X187305000Y-102506938D02*
X187305000Y-102886938D01*
X187305000Y-104506938D02*
X187305000Y-104886938D01*
X187305000Y-106506938D02*
X187305000Y-106886938D01*
X187305000Y-108506938D02*
X187305000Y-108886938D01*
X187305000Y-110506938D02*
X187305000Y-110806938D01*
%TO.C,R23*%
X151796359Y-77120000D02*
X152103641Y-77120000D01*
X151796359Y-77880000D02*
X152103641Y-77880000D01*
%TO.C,Q1*%
X165577500Y-117140000D02*
X164927500Y-117140000D01*
X165577500Y-117140000D02*
X166227500Y-117140000D01*
X165577500Y-120260000D02*
X164927500Y-120260000D01*
X165577500Y-120260000D02*
X166227500Y-120260000D01*
%TO.C,R28*%
X146722936Y-88215000D02*
X147177064Y-88215000D01*
X146722936Y-89685000D02*
X147177064Y-89685000D01*
%TO.C,J1*%
X142695000Y-90586938D02*
X142695000Y-90886938D01*
X142695000Y-90586938D02*
X146915000Y-90586938D01*
X142695000Y-92506938D02*
X142695000Y-92886938D01*
X142695000Y-94506938D02*
X142695000Y-94886938D01*
X142695000Y-96506938D02*
X142695000Y-96886938D01*
X142695000Y-98506938D02*
X142695000Y-98886938D01*
X142695000Y-100506938D02*
X142695000Y-100886938D01*
X142695000Y-102506938D02*
X142695000Y-102886938D01*
X142695000Y-104506938D02*
X142695000Y-104886938D01*
X142695000Y-106506938D02*
X142695000Y-106886938D01*
X142695000Y-108506938D02*
X142695000Y-108886938D01*
X142695000Y-110506938D02*
X142695000Y-110806938D01*
X142695000Y-110806938D02*
X146915000Y-110806938D01*
X146915000Y-90586938D02*
X146915000Y-90886938D01*
X146915000Y-92506938D02*
X146915000Y-92886938D01*
X146915000Y-94506938D02*
X146915000Y-94886938D01*
X146915000Y-96506938D02*
X146915000Y-96886938D01*
X146915000Y-98506938D02*
X146915000Y-98886938D01*
X146915000Y-100506938D02*
X146915000Y-100886938D01*
X146915000Y-102506938D02*
X146915000Y-102886938D01*
X146915000Y-104506938D02*
X146915000Y-104886938D01*
X146915000Y-106506938D02*
X146915000Y-106886938D01*
X146915000Y-108506938D02*
X146915000Y-108886938D01*
X146915000Y-110506938D02*
X146915000Y-110806938D01*
%TO.C,U5*%
X151152500Y-78145000D02*
X156672500Y-78145000D01*
X151152500Y-78415000D02*
X151152500Y-78145000D01*
X151152500Y-83665000D02*
X151152500Y-83395000D01*
X156672500Y-78145000D02*
X156672500Y-78415000D01*
X156672500Y-83395000D02*
X156672500Y-83665000D01*
X156672500Y-83665000D02*
X151152500Y-83665000D01*
%TO.C,D4*%
X175365000Y-77777500D02*
X175365000Y-80062500D01*
X176835000Y-77777500D02*
X175365000Y-77777500D01*
X176835000Y-80062500D02*
X176835000Y-77777500D01*
%TO.C,C31*%
X148407836Y-86890000D02*
X148192164Y-86890000D01*
X148407836Y-87610000D02*
X148192164Y-87610000D01*
%TO.C,C11*%
X147865000Y-116738748D02*
X147865000Y-117261252D01*
X149335000Y-116738748D02*
X149335000Y-117261252D01*
%TO.C,C35*%
X149457836Y-84240000D02*
X149242164Y-84240000D01*
X149457836Y-84960000D02*
X149242164Y-84960000D01*
%TO.C,R24*%
X153153641Y-76070000D02*
X152846359Y-76070000D01*
X153153641Y-76830000D02*
X152846359Y-76830000D01*
D12*
%TO.C,U7*%
X161500000Y-97196938D02*
X161500000Y-97396938D01*
X161500000Y-97196938D02*
X167400000Y-97196938D01*
X161500000Y-104196938D02*
X161500000Y-98296938D01*
X161500000Y-104196938D02*
X161700000Y-104196938D01*
X168350000Y-97196938D02*
X168300000Y-97196938D01*
X168500000Y-97196938D02*
X168350000Y-97196938D01*
X168500000Y-97196938D02*
X168500000Y-103096938D01*
X168500000Y-104196938D02*
X162600000Y-104196938D01*
X168500000Y-104196938D02*
X168500000Y-103996938D01*
D14*
%TO.C,C21*%
X157011252Y-76265000D02*
X156488748Y-76265000D01*
X157011252Y-77735000D02*
X156488748Y-77735000D01*
%TO.C,U4*%
X143912500Y-111940000D02*
X143262500Y-111940000D01*
X143912500Y-111940000D02*
X144562500Y-111940000D01*
X143912500Y-115060000D02*
X143262500Y-115060000D01*
X143912500Y-115060000D02*
X144562500Y-115060000D01*
%TO.C,R21*%
X175720000Y-76953641D02*
X175720000Y-76646359D01*
X176480000Y-76953641D02*
X176480000Y-76646359D01*
%TO.C,D5*%
X173765000Y-77777500D02*
X173765000Y-80062500D01*
X175235000Y-77777500D02*
X173765000Y-77777500D01*
X175235000Y-80062500D02*
X175235000Y-77777500D01*
%TO.C,C12*%
X145588748Y-115715000D02*
X146111252Y-115715000D01*
X145588748Y-117185000D02*
X146111252Y-117185000D01*
%TO.C,R29*%
X145565000Y-86514564D02*
X145565000Y-86060436D01*
X147035000Y-86514564D02*
X147035000Y-86060436D01*
%TO.C,J3*%
X159810000Y-76120000D02*
X170190000Y-76120000D01*
X159810000Y-78880000D02*
X159810000Y-76120000D01*
X159810000Y-78880000D02*
X170190000Y-78880000D01*
X170190000Y-78880000D02*
X170190000Y-76120000D01*
%TO.C,J4*%
X159810000Y-122620000D02*
X159810000Y-125380000D01*
X170190000Y-122620000D02*
X159810000Y-122620000D01*
X170190000Y-122620000D02*
X170190000Y-125380000D01*
X170190000Y-125380000D02*
X159810000Y-125380000D01*
%TD*%
M02*
