%TF.GenerationSoftware,KiCad,Pcbnew,9.0.5*%
%TF.CreationDate,2025-10-16T10:11:21+02:00*%
%TF.ProjectId,gaia-muon,67616961-2d6d-4756-9f6e-2e6b69636164,10*%
%TF.SameCoordinates,Original*%
%TF.FileFunction,Legend,Bot*%
%TF.FilePolarity,Positive*%
%FSLAX46Y46*%
G04 Gerber Fmt 4.6, Leading zero omitted, Abs format (unit mm)*
G04 Created by KiCad (PCBNEW 9.0.5) date 2025-10-16 10:11:21*
%MOMM*%
%LPD*%
G01*
G04 APERTURE LIST*
%ADD10C,0.200000*%
%ADD11C,0.017999*%
%ADD12C,0.120000*%
%ADD13C,0.254000*%
G04 APERTURE END LIST*
D10*
X179250000Y-100696938D02*
G75*
G02*
X150750000Y-100696938I-14250000J0D01*
G01*
X150750000Y-100696938D02*
G75*
G02*
X179250000Y-100696938I14250000J0D01*
G01*
D11*
X150216675Y-78400000D02*
X150946562Y-78708337D01*
X150216675Y-79016674D01*
X149908337Y-79746562D01*
X149600000Y-79016674D01*
X148870113Y-78708337D01*
X149600000Y-78400000D01*
X149908337Y-77670112D01*
X150216675Y-78400000D01*
G36*
X150216675Y-78400000D02*
G01*
X150946562Y-78708337D01*
X150216675Y-79016674D01*
X149908337Y-79746562D01*
X149600000Y-79016674D01*
X148870113Y-78708337D01*
X149600000Y-78400000D01*
X149908337Y-77670112D01*
X150216675Y-78400000D01*
G37*
D12*
%TO.C,J2*%
X183085000Y-90586938D02*
X183085000Y-90886938D01*
X183085000Y-92506938D02*
X183085000Y-92886938D01*
X183085000Y-94506938D02*
X183085000Y-94886938D01*
X183085000Y-96506938D02*
X183085000Y-96886938D01*
X183085000Y-98506938D02*
X183085000Y-98886938D01*
X183085000Y-100506938D02*
X183085000Y-100886938D01*
X183085000Y-102506938D02*
X183085000Y-102886938D01*
X183085000Y-104506938D02*
X183085000Y-104886938D01*
X183085000Y-106506938D02*
X183085000Y-106886938D01*
X183085000Y-108506938D02*
X183085000Y-108886938D01*
X183085000Y-110506938D02*
X183085000Y-110806938D01*
X187305000Y-90586938D02*
X183085000Y-90586938D01*
X187305000Y-90586938D02*
X187305000Y-90886938D01*
X187305000Y-92506938D02*
X187305000Y-92886938D01*
X187305000Y-94506938D02*
X187305000Y-94886938D01*
X187305000Y-96506938D02*
X187305000Y-96886938D01*
X187305000Y-98506938D02*
X187305000Y-98886938D01*
X187305000Y-100506938D02*
X187305000Y-100886938D01*
X187305000Y-102506938D02*
X187305000Y-102886938D01*
X187305000Y-104506938D02*
X187305000Y-104886938D01*
X187305000Y-106506938D02*
X187305000Y-106886938D01*
X187305000Y-108506938D02*
X187305000Y-108886938D01*
X187305000Y-110506938D02*
X187305000Y-110806938D01*
X187305000Y-110806938D02*
X183085000Y-110806938D01*
%TO.C,J1*%
X142695000Y-90586938D02*
X142695000Y-90886938D01*
X142695000Y-92506938D02*
X142695000Y-92886938D01*
X142695000Y-94506938D02*
X142695000Y-94886938D01*
X142695000Y-96506938D02*
X142695000Y-96886938D01*
X142695000Y-98506938D02*
X142695000Y-98886938D01*
X142695000Y-100506938D02*
X142695000Y-100886938D01*
X142695000Y-102506938D02*
X142695000Y-102886938D01*
X142695000Y-104506938D02*
X142695000Y-104886938D01*
X142695000Y-106506938D02*
X142695000Y-106886938D01*
X142695000Y-108506938D02*
X142695000Y-108886938D01*
X142695000Y-110506938D02*
X142695000Y-110806938D01*
X146915000Y-90586938D02*
X142695000Y-90586938D01*
X146915000Y-90586938D02*
X146915000Y-90886938D01*
X146915000Y-92506938D02*
X146915000Y-92886938D01*
X146915000Y-94506938D02*
X146915000Y-94886938D01*
X146915000Y-96506938D02*
X146915000Y-96886938D01*
X146915000Y-98506938D02*
X146915000Y-98886938D01*
X146915000Y-100506938D02*
X146915000Y-100886938D01*
X146915000Y-102506938D02*
X146915000Y-102886938D01*
X146915000Y-104506938D02*
X146915000Y-104886938D01*
X146915000Y-106506938D02*
X146915000Y-106886938D01*
X146915000Y-108506938D02*
X146915000Y-108886938D01*
X146915000Y-110506938D02*
X146915000Y-110806938D01*
X146915000Y-110806938D02*
X142695000Y-110806938D01*
%TO.C,R19*%
X166722936Y-119015000D02*
X167177064Y-119015000D01*
X166722936Y-120485000D02*
X167177064Y-120485000D01*
%TO.C,C32*%
X143807836Y-83890000D02*
X143592164Y-83890000D01*
X143807836Y-84610000D02*
X143592164Y-84610000D01*
%TO.C,U1*%
X174700000Y-80040000D02*
X173900000Y-80040000D01*
X174700000Y-80040000D02*
X175500000Y-80040000D01*
X174700000Y-83160000D02*
X173900000Y-83160000D01*
X174700000Y-83160000D02*
X175500000Y-83160000D01*
%TO.C,C30*%
X149357836Y-80040000D02*
X149142164Y-80040000D01*
X149357836Y-80760000D02*
X149142164Y-80760000D01*
%TO.C,R16*%
X153072936Y-123665000D02*
X153527064Y-123665000D01*
X153072936Y-125135000D02*
X153527064Y-125135000D01*
%TO.C,C15*%
X167315000Y-81261252D02*
X167315000Y-80738748D01*
X168785000Y-81261252D02*
X168785000Y-80738748D01*
%TO.C,D3*%
X163300000Y-118240000D02*
X162650000Y-118240000D01*
X163300000Y-118240000D02*
X163950000Y-118240000D01*
X163300000Y-121360000D02*
X162650000Y-121360000D01*
X163300000Y-121360000D02*
X163950000Y-121360000D01*
%TO.C,C8*%
X153038748Y-121365000D02*
X153561252Y-121365000D01*
X153038748Y-122835000D02*
X153561252Y-122835000D01*
%TO.C,R12*%
X179865000Y-118485436D02*
X179865000Y-118939564D01*
X181335000Y-118485436D02*
X181335000Y-118939564D01*
D13*
%TO.C,SW1*%
X159476000Y-80277000D02*
X159476000Y-84341000D01*
X159476000Y-84341000D02*
X159919000Y-84341000D01*
X159919000Y-80277000D02*
X159476000Y-80277000D01*
X159984000Y-81102500D02*
X159984000Y-83515500D01*
X159984000Y-83515500D02*
X162016000Y-83515500D01*
X162016000Y-81102500D02*
X159984000Y-81102500D01*
X162016000Y-83515500D02*
X162016000Y-81102500D01*
X162081000Y-84341000D02*
X162524000Y-84341000D01*
X162524000Y-80277000D02*
X162081000Y-80277000D01*
X162524000Y-84341000D02*
X162524000Y-80277000D01*
X161627000Y-82303500D02*
G75*
G02*
X160377000Y-82303500I-625000J0D01*
G01*
X160377000Y-82303500D02*
G75*
G02*
X161627000Y-82303500I625000J0D01*
G01*
D12*
%TO.C,C6*%
X157627500Y-121594664D02*
X157627500Y-121810336D01*
X158347500Y-121594664D02*
X158347500Y-121810336D01*
%TO.C,J3*%
X159810000Y-76120000D02*
X159810000Y-78880000D01*
X159810000Y-76120000D02*
X170190000Y-76120000D01*
X159810000Y-78880000D02*
X170190000Y-78880000D01*
X170190000Y-76120000D02*
X170190000Y-78880000D01*
%TO.C,C34*%
X143057836Y-88690000D02*
X142842164Y-88690000D01*
X143057836Y-89410000D02*
X142842164Y-89410000D01*
%TO.C,U2*%
X170427500Y-116940000D02*
X170427500Y-117115000D01*
X170427500Y-119985000D02*
X170427500Y-120160000D01*
X170427500Y-120160000D02*
X173647500Y-120160000D01*
X173647500Y-116940000D02*
X170427500Y-116940000D01*
X173647500Y-117115000D02*
X173647500Y-116940000D01*
X173647500Y-120160000D02*
X173647500Y-119985000D01*
%TO.C,U8*%
X145152500Y-81390000D02*
X145152500Y-82040000D01*
X145152500Y-87960000D02*
X145152500Y-88610000D01*
X145152500Y-88610000D02*
X145802500Y-88610000D01*
X145802500Y-81390000D02*
X145152500Y-81390000D01*
X151722500Y-88610000D02*
X152372500Y-88610000D01*
X152372500Y-81390000D02*
X151722500Y-81390000D01*
X152372500Y-82040000D02*
X152372500Y-81390000D01*
X152372500Y-88610000D02*
X152372500Y-87960000D01*
%TO.C,U3*%
X153177500Y-117715000D02*
X153177500Y-117890000D01*
X153177500Y-120760000D02*
X153177500Y-120935000D01*
X153177500Y-120935000D02*
X156397500Y-120935000D01*
X156397500Y-117715000D02*
X153177500Y-117715000D01*
X156397500Y-117890000D02*
X156397500Y-117715000D01*
X156397500Y-120935000D02*
X156397500Y-120760000D01*
%TO.C,C19*%
X163315000Y-81261252D02*
X163315000Y-80738748D01*
X164785000Y-81261252D02*
X164785000Y-80738748D01*
%TO.C,R2*%
X171287258Y-79627500D02*
X170812742Y-79627500D01*
X171287258Y-80672500D02*
X170812742Y-80672500D01*
%TO.C,R11*%
X181777064Y-115315000D02*
X181322936Y-115315000D01*
X181777064Y-116785000D02*
X181322936Y-116785000D01*
%TO.C,D2*%
X148000000Y-115290000D02*
X147350000Y-115290000D01*
X148000000Y-115290000D02*
X148650000Y-115290000D01*
X148000000Y-118410000D02*
X147350000Y-118410000D01*
X148000000Y-118410000D02*
X148650000Y-118410000D01*
%TO.C,C14*%
X173940000Y-120842164D02*
X173940000Y-121057836D01*
X174660000Y-120842164D02*
X174660000Y-121057836D01*
%TO.C,C7*%
X156667500Y-121594664D02*
X156667500Y-121810336D01*
X157387500Y-121594664D02*
X157387500Y-121810336D01*
%TO.C,C20*%
X163315000Y-84138748D02*
X163315000Y-84661252D01*
X164785000Y-84138748D02*
X164785000Y-84661252D01*
%TO.C,C33*%
X147292164Y-80040000D02*
X147507836Y-80040000D01*
X147292164Y-80760000D02*
X147507836Y-80760000D01*
%TO.C,C3*%
X171015000Y-77338748D02*
X171015000Y-77861252D01*
X172485000Y-77338748D02*
X172485000Y-77861252D01*
%TO.C,C2*%
X144165000Y-117138748D02*
X144165000Y-117661252D01*
X145635000Y-117138748D02*
X145635000Y-117661252D01*
%TO.C,R25*%
X142776359Y-84870000D02*
X143083641Y-84870000D01*
X142776359Y-85630000D02*
X143083641Y-85630000D01*
%TO.C,R6*%
X147372936Y-111565000D02*
X147827064Y-111565000D01*
X147372936Y-113035000D02*
X147827064Y-113035000D01*
%TO.C,C36*%
X143057836Y-87740000D02*
X142842164Y-87740000D01*
X143057836Y-88460000D02*
X142842164Y-88460000D01*
%TO.C,L1*%
X177090000Y-81999622D02*
X177090000Y-81200378D01*
X178210000Y-81999622D02*
X178210000Y-81200378D01*
%TO.C,R3*%
X175965000Y-120327064D02*
X175965000Y-119872936D01*
X177435000Y-120327064D02*
X177435000Y-119872936D01*
%TO.C,C13*%
X174890000Y-120844664D02*
X174890000Y-121060336D01*
X175610000Y-120844664D02*
X175610000Y-121060336D01*
%TO.C,C4*%
X178765000Y-81288748D02*
X178765000Y-81811252D01*
X180235000Y-81288748D02*
X180235000Y-81811252D01*
%TO.C,U9*%
X180465000Y-85012500D02*
X180465000Y-84212500D01*
X180465000Y-85012500D02*
X180465000Y-85812500D01*
X183585000Y-85012500D02*
X183585000Y-84212500D01*
X183585000Y-85012500D02*
X183585000Y-85812500D01*
%TO.C,C26*%
X182240580Y-81690000D02*
X181959420Y-81690000D01*
X182240580Y-82710000D02*
X181959420Y-82710000D01*
%TO.C,R9*%
X176227064Y-78115000D02*
X175772936Y-78115000D01*
X176227064Y-79585000D02*
X175772936Y-79585000D01*
%TO.C,R15*%
X156927064Y-123665000D02*
X156472936Y-123665000D01*
X156927064Y-125135000D02*
X156472936Y-125135000D01*
%TO.C,R17*%
X159435436Y-117965000D02*
X159889564Y-117965000D01*
X159435436Y-119435000D02*
X159889564Y-119435000D01*
%TO.C,C17*%
X165315000Y-84138748D02*
X165315000Y-84661252D01*
X166785000Y-84138748D02*
X166785000Y-84661252D01*
%TO.C,C18*%
X165315000Y-81261252D02*
X165315000Y-80738748D01*
X166785000Y-81261252D02*
X166785000Y-80738748D01*
%TO.C,R1*%
X173027500Y-77487742D02*
X173027500Y-77962258D01*
X174072500Y-77487742D02*
X174072500Y-77962258D01*
%TO.C,R27*%
X153227064Y-111515000D02*
X152772936Y-111515000D01*
X153227064Y-112985000D02*
X152772936Y-112985000D01*
%TO.C,R7*%
X147372936Y-113465000D02*
X147827064Y-113465000D01*
X147372936Y-114935000D02*
X147827064Y-114935000D01*
%TO.C,C9*%
X181815000Y-118961252D02*
X181815000Y-118438748D01*
X183285000Y-118961252D02*
X183285000Y-118438748D01*
%TO.C,C16*%
X167315000Y-84138748D02*
X167315000Y-84661252D01*
X168785000Y-84138748D02*
X168785000Y-84661252D01*
%TO.C,C1*%
X151311252Y-113465000D02*
X150788748Y-113465000D01*
X151311252Y-114935000D02*
X150788748Y-114935000D01*
%TO.C,C23*%
X154042164Y-84640000D02*
X154257836Y-84640000D01*
X154042164Y-85360000D02*
X154257836Y-85360000D01*
%TO.C,R20*%
X171164564Y-82965000D02*
X170710436Y-82965000D01*
X171164564Y-84435000D02*
X170710436Y-84435000D01*
%TO.C,D1*%
X174390000Y-76050000D02*
X177050000Y-76050000D01*
X174390000Y-77750000D02*
X174390000Y-76050000D01*
X174390000Y-77750000D02*
X177050000Y-77750000D01*
%TO.C,C25*%
X182240580Y-88790000D02*
X181959420Y-88790000D01*
X182240580Y-89810000D02*
X181959420Y-89810000D01*
%TO.C,C24*%
X182240580Y-87290000D02*
X181959420Y-87290000D01*
X182240580Y-88310000D02*
X181959420Y-88310000D01*
%TO.C,R10*%
X149865000Y-121022936D02*
X149865000Y-121477064D01*
X151335000Y-121022936D02*
X151335000Y-121477064D01*
%TO.C,C22*%
X155692164Y-79440000D02*
X155907836Y-79440000D01*
X155692164Y-80160000D02*
X155907836Y-80160000D01*
%TO.C,R26*%
X143083641Y-85820000D02*
X142776359Y-85820000D01*
X143083641Y-86580000D02*
X142776359Y-86580000D01*
%TO.C,C38*%
X143057836Y-86790000D02*
X142842164Y-86790000D01*
X143057836Y-87510000D02*
X142842164Y-87510000D01*
%TO.C,C5*%
X179661252Y-78115000D02*
X179138748Y-78115000D01*
X179661252Y-79585000D02*
X179138748Y-79585000D01*
%TO.C,R13*%
X170915000Y-124139564D02*
X170915000Y-123685436D01*
X172385000Y-124139564D02*
X172385000Y-123685436D01*
%TO.C,C10*%
X162021252Y-116015000D02*
X161498748Y-116015000D01*
X162021252Y-117485000D02*
X161498748Y-117485000D01*
%TO.C,C27*%
X182240580Y-80190000D02*
X181959420Y-80190000D01*
X182240580Y-81210000D02*
X181959420Y-81210000D01*
%TO.C,R14*%
X171127064Y-120515000D02*
X170672936Y-120515000D01*
X171127064Y-121985000D02*
X170672936Y-121985000D01*
%TO.C,C37*%
X153490000Y-86507836D02*
X153490000Y-86292164D01*
X154210000Y-86507836D02*
X154210000Y-86292164D01*
%TO.C,R5*%
X177915000Y-120327064D02*
X177915000Y-119872936D01*
X179385000Y-120327064D02*
X179385000Y-119872936D01*
%TO.C,R8*%
X147672936Y-119302500D02*
X148127064Y-119302500D01*
X147672936Y-120772500D02*
X148127064Y-120772500D01*
%TO.C,J4*%
X159810000Y-125380000D02*
X159810000Y-122620000D01*
X170190000Y-122620000D02*
X159810000Y-122620000D01*
X170190000Y-125380000D02*
X159810000Y-125380000D01*
X170190000Y-125380000D02*
X170190000Y-122620000D01*
%TD*%
M02*
