%TF.GenerationSoftware,KiCad,Pcbnew,9.0.5*%
%TF.CreationDate,2025-10-16T10:11:21+02:00*%
%TF.ProjectId,gaia-muon,67616961-2d6d-4756-9f6e-2e6b69636164,10*%
%TF.SameCoordinates,Original*%
%TF.FileFunction,Copper,L2,Inr*%
%TF.FilePolarity,Positive*%
%FSLAX46Y46*%
G04 Gerber Fmt 4.6, Leading zero omitted, Abs format (unit mm)*
G04 Created by KiCad (PCBNEW 9.0.5) date 2025-10-16 10:11:21*
%MOMM*%
%LPD*%
G01*
G04 APERTURE LIST*
G04 Aperture macros list*
%AMRoundRect*
0 Rectangle with rounded corners*
0 $1 Rounding radius*
0 $2 $3 $4 $5 $6 $7 $8 $9 X,Y pos of 4 corners*
0 Add a 4 corners polygon primitive as box body*
4,1,4,$2,$3,$4,$5,$6,$7,$8,$9,$2,$3,0*
0 Add four circle primitives for the rounded corners*
1,1,$1+$1,$2,$3*
1,1,$1+$1,$4,$5*
1,1,$1+$1,$6,$7*
1,1,$1+$1,$8,$9*
0 Add four rect primitives between the rounded corners*
20,1,$1+$1,$2,$3,$4,$5,0*
20,1,$1+$1,$4,$5,$6,$7,0*
20,1,$1+$1,$6,$7,$8,$9,0*
20,1,$1+$1,$8,$9,$2,$3,0*%
G04 Aperture macros list end*
%TA.AperFunction,ComponentPad*%
%ADD10RoundRect,1.200000X-0.000010X1.000000X-0.000010X-1.000000X0.000010X-1.000000X0.000010X1.000000X0*%
%TD*%
%TA.AperFunction,ComponentPad*%
%ADD11RoundRect,1.200000X1.000000X0.000010X-1.000000X0.000010X-1.000000X-0.000010X1.000000X-0.000010X0*%
%TD*%
%TA.AperFunction,ComponentPad*%
%ADD12RoundRect,1.200000X-1.000000X-0.000010X1.000000X-0.000010X1.000000X0.000010X-1.000000X0.000010X0*%
%TD*%
%TA.AperFunction,ComponentPad*%
%ADD13R,2.580000X1.000000*%
%TD*%
%TA.AperFunction,ComponentPad*%
%ADD14C,1.700000*%
%TD*%
%TA.AperFunction,ViaPad*%
%ADD15C,0.800000*%
%TD*%
%TA.AperFunction,ViaPad*%
%ADD16C,0.500000*%
%TD*%
%TA.AperFunction,ViaPad*%
%ADD17C,0.600000*%
%TD*%
%TA.AperFunction,ViaPad*%
%ADD18C,0.550000*%
%TD*%
%TA.AperFunction,ViaPad*%
%ADD19C,0.520000*%
%TD*%
G04 APERTURE END LIST*
D10*
%TO.N,*%
%TO.C,U6*%
X150500000Y-93196938D03*
X150500000Y-108196938D03*
D11*
X157500000Y-86196938D03*
D12*
X157500000Y-115196938D03*
D11*
X172500000Y-86196938D03*
X172500000Y-115196938D03*
D10*
X179500000Y-93196938D03*
X179500000Y-108196938D03*
%TD*%
D13*
%TO.N,unconnected-(J2-Pin_1-Pad1)*%
%TO.C,J2*%
X183110000Y-91696938D03*
%TO.N,unconnected-(J2-Pin_2-Pad2)*%
X187280000Y-91696938D03*
%TO.N,unconnected-(J2-Pin_3-Pad3)*%
X183110000Y-93696938D03*
%TO.N,unconnected-(J2-Pin_4-Pad4)*%
X187280000Y-93696938D03*
%TO.N,VCC*%
X183110000Y-95696938D03*
X187280000Y-95696938D03*
%TO.N,unconnected-(J2-Pin_7-Pad7)*%
X183110000Y-97696938D03*
%TO.N,unconnected-(J2-Pin_8-Pad8)*%
X187280000Y-97696938D03*
%TO.N,unconnected-(J2-Pin_9-Pad9)*%
X183110000Y-99696938D03*
%TO.N,unconnected-(J2-Pin_10-Pad10)*%
X187280000Y-99696938D03*
%TO.N,unconnected-(J2-Pin_11-Pad11)*%
X183110000Y-101696938D03*
%TO.N,unconnected-(J2-Pin_12-Pad12)*%
X187280000Y-101696938D03*
%TO.N,GND*%
X183110000Y-103696938D03*
X187280000Y-103696938D03*
X183110000Y-105696938D03*
X187280000Y-105696938D03*
%TO.N,unconnected-(J2-Pin_17-Pad17)*%
X183110000Y-107696938D03*
%TO.N,unconnected-(J2-Pin_18-Pad18)*%
X187280000Y-107696938D03*
%TO.N,unconnected-(J2-Pin_19-Pad19)*%
X183110000Y-109696938D03*
%TO.N,unconnected-(J2-Pin_20-Pad20)*%
X187280000Y-109696938D03*
%TD*%
%TO.N,I2C_1_SDA*%
%TO.C,J1*%
X142720000Y-91696938D03*
%TO.N,unconnected-(J1-Pin_2-Pad2)*%
X146890000Y-91696938D03*
%TO.N,I2C_1_SCL*%
X142720000Y-93696938D03*
%TO.N,unconnected-(J1-Pin_4-Pad4)*%
X146890000Y-93696938D03*
%TO.N,unconnected-(J1-Pin_5-Pad5)*%
X142720000Y-95696938D03*
%TO.N,unconnected-(J1-Pin_6-Pad6)*%
X146890000Y-95696938D03*
%TO.N,GND*%
X142720000Y-97696938D03*
%TO.N,unconnected-(J1-Pin_8-Pad8)*%
X146890000Y-97696938D03*
%TO.N,GND*%
X142720000Y-99696938D03*
%TO.N,unconnected-(J1-Pin_10-Pad10)*%
X146890000Y-99696938D03*
%TO.N,unconnected-(J1-Pin_11-Pad11)*%
X142720000Y-101696938D03*
%TO.N,/EXP0_USART_TXD*%
X146890000Y-101696938D03*
%TO.N,unconnected-(J1-Pin_13-Pad13)*%
X142720000Y-103696938D03*
%TO.N,/EXP0_USART_RXD*%
X146890000Y-103696938D03*
%TO.N,unconnected-(J1-Pin_15-Pad15)*%
X142720000Y-105696938D03*
%TO.N,unconnected-(J1-Pin_16-Pad16)*%
X146890000Y-105696938D03*
%TO.N,GND*%
X142720000Y-107696938D03*
X146890000Y-107696938D03*
X142720000Y-109696938D03*
X146890000Y-109696938D03*
%TD*%
D14*
%TO.N,VCC*%
%TO.C,J3*%
X161190000Y-77500000D03*
%TO.N,/USB_DP*%
X163730000Y-77500000D03*
%TO.N,/USB_DN*%
X166270000Y-77500000D03*
%TO.N,GND*%
X168810000Y-77500000D03*
%TD*%
%TO.N,Trigger*%
%TO.C,J4*%
X168810000Y-124000000D03*
%TO.N,Signal*%
X166270000Y-124000000D03*
%TO.N,Amplifier*%
X163730000Y-124000000D03*
%TO.N,SiPM*%
X161190000Y-124000000D03*
%TD*%
D15*
%TO.N,GND*%
X179400000Y-86000000D03*
X160800000Y-82500000D03*
X152400000Y-80000000D03*
X149200000Y-77700000D03*
X149700000Y-97000000D03*
X149700000Y-101400000D03*
X141356870Y-112381779D03*
X148100000Y-122700000D03*
X177500000Y-124100000D03*
X186300000Y-117300000D03*
X187400000Y-114000000D03*
X183100000Y-112400000D03*
X185200000Y-87400000D03*
X189000000Y-88000000D03*
X185000000Y-83800000D03*
D16*
X142470000Y-89050000D03*
D15*
X180350000Y-78850000D03*
X181325000Y-89300000D03*
X180600000Y-119625000D03*
X181325000Y-87800000D03*
X164050000Y-80050000D03*
D16*
X148870000Y-84600000D03*
D15*
X157612500Y-124400000D03*
X182550000Y-119650000D03*
D16*
X157987500Y-122182500D03*
D15*
X166050000Y-80050000D03*
D16*
X153670000Y-85000000D03*
D15*
X181325000Y-82200000D03*
D16*
X142470000Y-88100000D03*
D17*
X146571475Y-85371475D03*
D16*
X142470000Y-87150000D03*
D15*
X161000000Y-84468000D03*
X162710000Y-116750000D03*
D17*
X156650000Y-83575000D03*
D16*
X174300000Y-121430000D03*
D15*
X146687500Y-112300000D03*
D17*
X168700000Y-117575000D03*
D16*
X148770000Y-80400000D03*
D17*
X173562500Y-81600000D03*
X144850000Y-112550000D03*
D15*
X164050000Y-85350000D03*
X168050000Y-80050000D03*
D17*
X177985000Y-76290000D03*
D16*
X143220000Y-84250000D03*
D15*
X170225000Y-80150000D03*
D16*
X157027500Y-122182500D03*
D15*
X171650000Y-124825000D03*
D17*
X166515000Y-117750000D03*
X153900000Y-116100000D03*
D15*
X155800000Y-77000000D03*
D17*
X147500000Y-117800000D03*
D15*
X178650000Y-121012500D03*
D16*
X155320000Y-79800000D03*
D15*
X181325000Y-80700000D03*
D16*
X147880000Y-80400000D03*
D17*
X182025000Y-86150000D03*
D15*
X179500000Y-82500000D03*
D17*
X150325000Y-82810000D03*
D15*
X168050000Y-85350000D03*
D18*
X147820000Y-87250000D03*
D16*
X175250000Y-121432500D03*
D15*
X171750000Y-78550000D03*
D17*
X173562500Y-82550000D03*
X151400000Y-118350000D03*
D15*
X144900000Y-116450000D03*
D17*
X154950000Y-81300000D03*
D15*
X166050000Y-85350000D03*
D16*
%TO.N,+3.3V*%
X152460000Y-77500000D03*
D19*
X143430000Y-88100000D03*
D16*
X146920000Y-80400000D03*
D18*
X148780000Y-87250000D03*
D17*
X151362325Y-85330415D03*
D15*
X157700000Y-77000000D03*
D19*
X144175000Y-84975000D03*
D16*
X157987500Y-121222500D03*
D17*
X149062500Y-82810650D03*
D15*
X149850000Y-112350000D03*
D16*
X175250000Y-120472500D03*
D15*
X182875000Y-80700000D03*
D17*
%TO.N,VRef*%
X144701409Y-88376409D03*
X152387500Y-124400000D03*
D15*
X146687500Y-114200000D03*
D17*
%TO.N,TriggerReset*%
X148261795Y-90370024D03*
X167950000Y-116250000D03*
D15*
%TO.N,Amplifier*%
X155787500Y-124400000D03*
X175700000Y-117475000D03*
%TO.N,Peak*%
X160810000Y-116750000D03*
X158750000Y-118700000D03*
D17*
%TO.N,VCC*%
X162400000Y-81396000D03*
X174724000Y-83550000D03*
%TO.N,TriggerTresh*%
X146000613Y-90370024D03*
D15*
X180600000Y-117800000D03*
D19*
%TO.N,+1V1*%
X143430000Y-87150000D03*
D17*
X158225000Y-84175000D03*
%TO.N,Signal*%
X146750597Y-90370024D03*
D15*
X171700000Y-123025000D03*
D16*
%TO.N,I2C_1_SCL*%
X150762502Y-85724000D03*
%TO.N,I2C_1_SDA*%
X153049833Y-83425000D03*
D19*
%TO.N,/LED2*%
X153150000Y-81325000D03*
D16*
%TO.N,/QSPI_SCLK*%
X144025000Y-83450000D03*
X157650000Y-81550000D03*
D19*
%TO.N,/LED1*%
X153589000Y-82897500D03*
D17*
%TO.N,PWM*%
X150125000Y-87150000D03*
D15*
X182462500Y-116050000D03*
D17*
%TO.N,Trigger*%
X147500000Y-90400000D03*
D16*
%TO.N,/EXP0_USART_RXD*%
X140750000Y-90200000D03*
X146474201Y-82355436D03*
%TO.N,/EXP0_USART_TXD*%
X140900000Y-89375000D03*
X147342894Y-82400000D03*
D17*
%TO.N,SiPM*%
X162150000Y-103696938D03*
X159625000Y-121350000D03*
X152000000Y-116075000D03*
%TO.N,HV*%
X149575000Y-90425000D03*
D15*
X178450000Y-78850000D03*
X171850000Y-83700000D03*
D17*
X161200000Y-85700000D03*
%TO.N,Net-(U7-CATHODE)*%
X167850000Y-97696938D03*
%TO.N,Net-(D1-A)*%
X177650000Y-82662500D03*
X177650000Y-77350000D03*
D16*
%TO.N,/USB_DP*%
X142420000Y-85250000D03*
%TO.N,/USB_DN*%
X142420000Y-86200000D03*
%TO.N,Net-(U5-~{CS})*%
X145662501Y-81336085D03*
D19*
%TO.N,Net-(R24-Pad1)*%
X153510000Y-76450000D03*
D17*
%TO.N,Net-(U8-GPIO28_ADC2)*%
X146675000Y-87225000D03*
D16*
%TO.N,Net-(U5-DO{slash}IO_{1})*%
X146000000Y-82800000D03*
%TO.N,Net-(U5-DI{slash}IO_{0})*%
X146375000Y-83801000D03*
%TO.N,Net-(U5-~{WP}{slash}IO_{2})*%
X144375000Y-82775000D03*
%TO.N,Net-(U5-~{HOLD}{slash}~{RESET}{slash}IO_{3})*%
X146532896Y-84431533D03*
X153150000Y-82351000D03*
%TD*%
%TA.AperFunction,Conductor*%
%TO.N,GND*%
G36*
X152799614Y-75917123D02*
G01*
X152845369Y-75969927D01*
X152855313Y-76039085D01*
X152838118Y-76083961D01*
X152838926Y-76084393D01*
X152836051Y-76089770D01*
X152778725Y-76228169D01*
X152778723Y-76228177D01*
X152749500Y-76375092D01*
X152749500Y-76375096D01*
X152749500Y-76375097D01*
X152749500Y-76524903D01*
X152760512Y-76580263D01*
X152768692Y-76621388D01*
X152762464Y-76690980D01*
X152719600Y-76746157D01*
X152653710Y-76769401D01*
X152622882Y-76767196D01*
X152533920Y-76749500D01*
X152533918Y-76749500D01*
X152386082Y-76749500D01*
X152386080Y-76749500D01*
X152241092Y-76778340D01*
X152241082Y-76778343D01*
X152104511Y-76834912D01*
X152104498Y-76834919D01*
X151981584Y-76917048D01*
X151981580Y-76917051D01*
X151877051Y-77021580D01*
X151877048Y-77021584D01*
X151794919Y-77144498D01*
X151794912Y-77144511D01*
X151738343Y-77281082D01*
X151738340Y-77281092D01*
X151709500Y-77426079D01*
X151709500Y-77426080D01*
X151709500Y-77426082D01*
X151709500Y-77573918D01*
X151709500Y-77573920D01*
X151709499Y-77573920D01*
X151738340Y-77718907D01*
X151738343Y-77718917D01*
X151794912Y-77855488D01*
X151794919Y-77855501D01*
X151877048Y-77978415D01*
X151877051Y-77978419D01*
X151981580Y-78082948D01*
X151981584Y-78082951D01*
X152104498Y-78165080D01*
X152104511Y-78165087D01*
X152207669Y-78207816D01*
X152241087Y-78221658D01*
X152241091Y-78221658D01*
X152241092Y-78221659D01*
X152386079Y-78250500D01*
X152386082Y-78250500D01*
X152533920Y-78250500D01*
X152631462Y-78231096D01*
X152678913Y-78221658D01*
X152815495Y-78165084D01*
X152938416Y-78082951D01*
X153042951Y-77978416D01*
X153125084Y-77855495D01*
X153181658Y-77718913D01*
X153191096Y-77671462D01*
X153210500Y-77573920D01*
X153210500Y-77426080D01*
X153193653Y-77341390D01*
X153192803Y-77337116D01*
X153199030Y-77267526D01*
X153241892Y-77212348D01*
X153307781Y-77189103D01*
X153338609Y-77191307D01*
X153435094Y-77210499D01*
X153435096Y-77210500D01*
X153435097Y-77210500D01*
X153584904Y-77210500D01*
X153584905Y-77210499D01*
X153731830Y-77181275D01*
X153870232Y-77123947D01*
X153994791Y-77040719D01*
X154100719Y-76934791D01*
X154183947Y-76810232D01*
X154241275Y-76671830D01*
X154270500Y-76524903D01*
X154270500Y-76375097D01*
X154241275Y-76228170D01*
X154187978Y-76099500D01*
X154183948Y-76089770D01*
X154181074Y-76084393D01*
X154182263Y-76083757D01*
X154163445Y-76023642D01*
X154181934Y-75956263D01*
X154233917Y-75909577D01*
X154287425Y-75897438D01*
X157385312Y-75897438D01*
X157452351Y-75917123D01*
X157498106Y-75969927D01*
X157508050Y-76039085D01*
X157479025Y-76102641D01*
X157432764Y-76135999D01*
X157273459Y-76201983D01*
X157273446Y-76201990D01*
X157125965Y-76300535D01*
X157125961Y-76300538D01*
X157000538Y-76425961D01*
X157000535Y-76425965D01*
X156901990Y-76573446D01*
X156901983Y-76573459D01*
X156834106Y-76737332D01*
X156834103Y-76737341D01*
X156799500Y-76911304D01*
X156799500Y-77088695D01*
X156834103Y-77262658D01*
X156834106Y-77262667D01*
X156901983Y-77426540D01*
X156901990Y-77426553D01*
X157000535Y-77574034D01*
X157000538Y-77574038D01*
X157125961Y-77699461D01*
X157125965Y-77699464D01*
X157273446Y-77798009D01*
X157273459Y-77798016D01*
X157396363Y-77848923D01*
X157437334Y-77865894D01*
X157437336Y-77865894D01*
X157437341Y-77865896D01*
X157611304Y-77900499D01*
X157611307Y-77900500D01*
X157611309Y-77900500D01*
X157788693Y-77900500D01*
X157788694Y-77900499D01*
X157846682Y-77888964D01*
X157962658Y-77865896D01*
X157962661Y-77865894D01*
X157962666Y-77865894D01*
X158126547Y-77798013D01*
X158274035Y-77699464D01*
X158399464Y-77574035D01*
X158498013Y-77426547D01*
X158511613Y-77393713D01*
X159839500Y-77393713D01*
X159839500Y-77606286D01*
X159872735Y-77816127D01*
X159872754Y-77816243D01*
X159927296Y-77984106D01*
X159938444Y-78018414D01*
X160034951Y-78207820D01*
X160159890Y-78379786D01*
X160310213Y-78530109D01*
X160482179Y-78655048D01*
X160482181Y-78655049D01*
X160482184Y-78655051D01*
X160671588Y-78751557D01*
X160873757Y-78817246D01*
X161083713Y-78850500D01*
X161083714Y-78850500D01*
X161296286Y-78850500D01*
X161296287Y-78850500D01*
X161506243Y-78817246D01*
X161708412Y-78751557D01*
X161897816Y-78655051D01*
X161952572Y-78615269D01*
X162069786Y-78530109D01*
X162069788Y-78530106D01*
X162069792Y-78530104D01*
X162220104Y-78379792D01*
X162220106Y-78379788D01*
X162220109Y-78379786D01*
X162345048Y-78207820D01*
X162345047Y-78207820D01*
X162345051Y-78207816D01*
X162349514Y-78199054D01*
X162397488Y-78148259D01*
X162465308Y-78131463D01*
X162531444Y-78153999D01*
X162570486Y-78199056D01*
X162574951Y-78207820D01*
X162699890Y-78379786D01*
X162850213Y-78530109D01*
X163022179Y-78655048D01*
X163022181Y-78655049D01*
X163022184Y-78655051D01*
X163211588Y-78751557D01*
X163413757Y-78817246D01*
X163623713Y-78850500D01*
X163623714Y-78850500D01*
X163836286Y-78850500D01*
X163836287Y-78850500D01*
X164046243Y-78817246D01*
X164248412Y-78751557D01*
X164437816Y-78655051D01*
X164492572Y-78615269D01*
X164609786Y-78530109D01*
X164609788Y-78530106D01*
X164609792Y-78530104D01*
X164760104Y-78379792D01*
X164760106Y-78379788D01*
X164760109Y-78379786D01*
X164885048Y-78207820D01*
X164885047Y-78207820D01*
X164885051Y-78207816D01*
X164889514Y-78199054D01*
X164937488Y-78148259D01*
X165005308Y-78131463D01*
X165071444Y-78153999D01*
X165110486Y-78199056D01*
X165114951Y-78207820D01*
X165239890Y-78379786D01*
X165390213Y-78530109D01*
X165562179Y-78655048D01*
X165562181Y-78655049D01*
X165562184Y-78655051D01*
X165751588Y-78751557D01*
X165953757Y-78817246D01*
X166163713Y-78850500D01*
X166163714Y-78850500D01*
X166376286Y-78850500D01*
X166376287Y-78850500D01*
X166586243Y-78817246D01*
X166788412Y-78751557D01*
X166977816Y-78655051D01*
X167032572Y-78615269D01*
X167149786Y-78530109D01*
X167149788Y-78530106D01*
X167149792Y-78530104D01*
X167300104Y-78379792D01*
X167300106Y-78379788D01*
X167300109Y-78379786D01*
X167385890Y-78261717D01*
X167425051Y-78207816D01*
X167429793Y-78198508D01*
X167477763Y-78147711D01*
X167545583Y-78130911D01*
X167611719Y-78153445D01*
X167650763Y-78198500D01*
X167655373Y-78207547D01*
X167694728Y-78261716D01*
X168327037Y-77629408D01*
X168344075Y-77692993D01*
X168409901Y-77807007D01*
X168502993Y-77900099D01*
X168617007Y-77965925D01*
X168680590Y-77982962D01*
X168048282Y-78615269D01*
X168048282Y-78615270D01*
X168102449Y-78654624D01*
X168291782Y-78751095D01*
X168493870Y-78816757D01*
X168703754Y-78850000D01*
X168916246Y-78850000D01*
X169126127Y-78816757D01*
X169126130Y-78816757D01*
X169328217Y-78751095D01*
X169517554Y-78654622D01*
X169571716Y-78615270D01*
X169571717Y-78615270D01*
X168939408Y-77982962D01*
X169002993Y-77965925D01*
X169117007Y-77900099D01*
X169210099Y-77807007D01*
X169275925Y-77692993D01*
X169292962Y-77629408D01*
X169925270Y-78261717D01*
X169925270Y-78261716D01*
X169964622Y-78207554D01*
X170061095Y-78018217D01*
X170126757Y-77816130D01*
X170126757Y-77816127D01*
X170160000Y-77606246D01*
X170160000Y-77393753D01*
X170142690Y-77284464D01*
X170140582Y-77271153D01*
X176849500Y-77271153D01*
X176849500Y-77428846D01*
X176880261Y-77583489D01*
X176880264Y-77583501D01*
X176940602Y-77729172D01*
X176940609Y-77729185D01*
X177028210Y-77860288D01*
X177028213Y-77860292D01*
X177139707Y-77971786D01*
X177139711Y-77971789D01*
X177270814Y-78059390D01*
X177270827Y-78059397D01*
X177416498Y-78119735D01*
X177416503Y-78119737D01*
X177557137Y-78147711D01*
X177571153Y-78150499D01*
X177571156Y-78150500D01*
X177602381Y-78150500D01*
X177669420Y-78170185D01*
X177715175Y-78222989D01*
X177725119Y-78292147D01*
X177705483Y-78343389D01*
X177681165Y-78379786D01*
X177651987Y-78423452D01*
X177651983Y-78423459D01*
X177584106Y-78587332D01*
X177584103Y-78587341D01*
X177549500Y-78761304D01*
X177549500Y-78938695D01*
X177584103Y-79112658D01*
X177584106Y-79112667D01*
X177651983Y-79276540D01*
X177651990Y-79276553D01*
X177750535Y-79424034D01*
X177750538Y-79424038D01*
X177875961Y-79549461D01*
X177875965Y-79549464D01*
X178023446Y-79648009D01*
X178023459Y-79648016D01*
X178146363Y-79698923D01*
X178187334Y-79715894D01*
X178187336Y-79715894D01*
X178187341Y-79715896D01*
X178361304Y-79750499D01*
X178361307Y-79750500D01*
X178361309Y-79750500D01*
X178538693Y-79750500D01*
X178538694Y-79750499D01*
X178596682Y-79738964D01*
X178712658Y-79715896D01*
X178712661Y-79715894D01*
X178712666Y-79715894D01*
X178876547Y-79648013D01*
X179024035Y-79549464D01*
X179149464Y-79424035D01*
X179248013Y-79276547D01*
X179315894Y-79112666D01*
X179350500Y-78938691D01*
X179350500Y-78761309D01*
X179350500Y-78761306D01*
X179350499Y-78761304D01*
X179315896Y-78587341D01*
X179315893Y-78587332D01*
X179248016Y-78423459D01*
X179248009Y-78423446D01*
X179149464Y-78275965D01*
X179149461Y-78275961D01*
X179024038Y-78150538D01*
X179024034Y-78150535D01*
X178876553Y-78051990D01*
X178876540Y-78051983D01*
X178712667Y-77984106D01*
X178712658Y-77984103D01*
X178538694Y-77949500D01*
X178538691Y-77949500D01*
X178444168Y-77949500D01*
X178377129Y-77929815D01*
X178331374Y-77877011D01*
X178321430Y-77807853D01*
X178341067Y-77756608D01*
X178359389Y-77729187D01*
X178359390Y-77729184D01*
X178359394Y-77729179D01*
X178419737Y-77583497D01*
X178450500Y-77428842D01*
X178450500Y-77271158D01*
X178450500Y-77271155D01*
X178450499Y-77271153D01*
X178434178Y-77189103D01*
X178419737Y-77116503D01*
X178403610Y-77077569D01*
X178359397Y-76970827D01*
X178359390Y-76970814D01*
X178271789Y-76839711D01*
X178271786Y-76839707D01*
X178160292Y-76728213D01*
X178160288Y-76728210D01*
X178029185Y-76640609D01*
X178029172Y-76640602D01*
X177883501Y-76580264D01*
X177883489Y-76580261D01*
X177728845Y-76549500D01*
X177728842Y-76549500D01*
X177571158Y-76549500D01*
X177571155Y-76549500D01*
X177416510Y-76580261D01*
X177416498Y-76580264D01*
X177270827Y-76640602D01*
X177270814Y-76640609D01*
X177139711Y-76728210D01*
X177139707Y-76728213D01*
X177028213Y-76839707D01*
X177028210Y-76839711D01*
X176940609Y-76970814D01*
X176940602Y-76970827D01*
X176880264Y-77116498D01*
X176880261Y-77116510D01*
X176849500Y-77271153D01*
X170140582Y-77271153D01*
X170126757Y-77183872D01*
X170126757Y-77183869D01*
X170061095Y-76981782D01*
X169964624Y-76792449D01*
X169925270Y-76738282D01*
X169925269Y-76738282D01*
X169292962Y-77370590D01*
X169275925Y-77307007D01*
X169210099Y-77192993D01*
X169117007Y-77099901D01*
X169002993Y-77034075D01*
X168939409Y-77017037D01*
X169571716Y-76384728D01*
X169517550Y-76345375D01*
X169328217Y-76248904D01*
X169126129Y-76183242D01*
X168916246Y-76150000D01*
X168703754Y-76150000D01*
X168493872Y-76183242D01*
X168493869Y-76183242D01*
X168291782Y-76248904D01*
X168102439Y-76345380D01*
X168048282Y-76384727D01*
X168048282Y-76384728D01*
X168680591Y-77017037D01*
X168617007Y-77034075D01*
X168502993Y-77099901D01*
X168409901Y-77192993D01*
X168344075Y-77307007D01*
X168327037Y-77370591D01*
X167694728Y-76738282D01*
X167694727Y-76738282D01*
X167655380Y-76792440D01*
X167655376Y-76792446D01*
X167650760Y-76801505D01*
X167602781Y-76852297D01*
X167534959Y-76869087D01*
X167468826Y-76846543D01*
X167429794Y-76801493D01*
X167425051Y-76792184D01*
X167425049Y-76792181D01*
X167425048Y-76792179D01*
X167300109Y-76620213D01*
X167149786Y-76469890D01*
X166977820Y-76344951D01*
X166788414Y-76248444D01*
X166788413Y-76248443D01*
X166788412Y-76248443D01*
X166586243Y-76182754D01*
X166586241Y-76182753D01*
X166586240Y-76182753D01*
X166424957Y-76157208D01*
X166376287Y-76149500D01*
X166163713Y-76149500D01*
X166115042Y-76157208D01*
X165953760Y-76182753D01*
X165751585Y-76248444D01*
X165562179Y-76344951D01*
X165390213Y-76469890D01*
X165239890Y-76620213D01*
X165114949Y-76792182D01*
X165110484Y-76800946D01*
X165062509Y-76851742D01*
X164994688Y-76868536D01*
X164928553Y-76845998D01*
X164889516Y-76800946D01*
X164885050Y-76792182D01*
X164760109Y-76620213D01*
X164609786Y-76469890D01*
X164437820Y-76344951D01*
X164248414Y-76248444D01*
X164248413Y-76248443D01*
X164248412Y-76248443D01*
X164046243Y-76182754D01*
X164046241Y-76182753D01*
X164046240Y-76182753D01*
X163884957Y-76157208D01*
X163836287Y-76149500D01*
X163623713Y-76149500D01*
X163575042Y-76157208D01*
X163413760Y-76182753D01*
X163211585Y-76248444D01*
X163022179Y-76344951D01*
X162850213Y-76469890D01*
X162699890Y-76620213D01*
X162574949Y-76792182D01*
X162570484Y-76800946D01*
X162522509Y-76851742D01*
X162454688Y-76868536D01*
X162388553Y-76845998D01*
X162349516Y-76800946D01*
X162345050Y-76792182D01*
X162220109Y-76620213D01*
X162069786Y-76469890D01*
X161897820Y-76344951D01*
X161708414Y-76248444D01*
X161708413Y-76248443D01*
X161708412Y-76248443D01*
X161506243Y-76182754D01*
X161506241Y-76182753D01*
X161506240Y-76182753D01*
X161344957Y-76157208D01*
X161296287Y-76149500D01*
X161083713Y-76149500D01*
X161035042Y-76157208D01*
X160873760Y-76182753D01*
X160671585Y-76248444D01*
X160482179Y-76344951D01*
X160310213Y-76469890D01*
X160159890Y-76620213D01*
X160034951Y-76792179D01*
X159938444Y-76981585D01*
X159872753Y-77183760D01*
X159839500Y-77393713D01*
X158511613Y-77393713D01*
X158565894Y-77262666D01*
X158581590Y-77183760D01*
X158600499Y-77088695D01*
X158600500Y-77088693D01*
X158600500Y-76911306D01*
X158600499Y-76911304D01*
X158565896Y-76737341D01*
X158565893Y-76737332D01*
X158498016Y-76573459D01*
X158498009Y-76573446D01*
X158399464Y-76425965D01*
X158399461Y-76425961D01*
X158274038Y-76300538D01*
X158274034Y-76300535D01*
X158126553Y-76201990D01*
X158126540Y-76201983D01*
X157967236Y-76135999D01*
X157912832Y-76092159D01*
X157890767Y-76025865D01*
X157908046Y-75958165D01*
X157959183Y-75910554D01*
X158014688Y-75897438D01*
X179605718Y-75897438D01*
X179670360Y-75915620D01*
X179751534Y-75965209D01*
X180425624Y-76377004D01*
X180429169Y-76379253D01*
X181240049Y-76913123D01*
X181243516Y-76915490D01*
X182035892Y-77476529D01*
X182039277Y-77479013D01*
X182320775Y-77692993D01*
X182812216Y-78066561D01*
X182815483Y-78069133D01*
X183568053Y-78682480D01*
X183568065Y-78682490D01*
X183571262Y-78685187D01*
X183647290Y-78751557D01*
X184302650Y-79323670D01*
X184305756Y-79326475D01*
X184848977Y-79834103D01*
X185015134Y-79989373D01*
X185018152Y-79992291D01*
X185704644Y-80678784D01*
X185707562Y-80681802D01*
X186260987Y-81274034D01*
X186370449Y-81391171D01*
X186373263Y-81394287D01*
X186378169Y-81399907D01*
X186994035Y-82105390D01*
X187011735Y-82125665D01*
X187014442Y-82128874D01*
X187627796Y-82881455D01*
X187630393Y-82884754D01*
X188217907Y-83657650D01*
X188220391Y-83661034D01*
X188781424Y-84453405D01*
X188783792Y-84456872D01*
X189317688Y-85267794D01*
X189319936Y-85271339D01*
X189358971Y-85335238D01*
X189598424Y-85727214D01*
X189781317Y-86026602D01*
X189799500Y-86091245D01*
X189799500Y-115302656D01*
X189781318Y-115367297D01*
X189361389Y-116054708D01*
X189319944Y-116122552D01*
X189317695Y-116126097D01*
X188783804Y-116937011D01*
X188781436Y-116940478D01*
X188220403Y-117732850D01*
X188217919Y-117736234D01*
X187630405Y-118509131D01*
X187627808Y-118512430D01*
X187014454Y-119265012D01*
X187011747Y-119268221D01*
X186373276Y-119999600D01*
X186370462Y-120002716D01*
X185707574Y-120712086D01*
X185704656Y-120715104D01*
X185018164Y-121401598D01*
X185015146Y-121404516D01*
X184305778Y-122067405D01*
X184302662Y-122070219D01*
X183571285Y-122708693D01*
X183568076Y-122711400D01*
X182815510Y-123324745D01*
X182812212Y-123327342D01*
X182039288Y-123914879D01*
X182035903Y-123917363D01*
X181243528Y-124478402D01*
X181240061Y-124480769D01*
X180429180Y-125014640D01*
X180425635Y-125016889D01*
X179850867Y-125368011D01*
X179672862Y-125476753D01*
X179670403Y-125478255D01*
X179605760Y-125496438D01*
X169357650Y-125496438D01*
X169290611Y-125476753D01*
X169244856Y-125423949D01*
X169234912Y-125354791D01*
X169263937Y-125291235D01*
X169319329Y-125254508D01*
X169328412Y-125251557D01*
X169517816Y-125155051D01*
X169580658Y-125109394D01*
X169689786Y-125030109D01*
X169689788Y-125030106D01*
X169689792Y-125030104D01*
X169840104Y-124879792D01*
X169840106Y-124879788D01*
X169840109Y-124879786D01*
X169965048Y-124707820D01*
X169965047Y-124707820D01*
X169965051Y-124707816D01*
X170061557Y-124518412D01*
X170127246Y-124316243D01*
X170160500Y-124106287D01*
X170160500Y-123893713D01*
X170127246Y-123683757D01*
X170061557Y-123481588D01*
X169965051Y-123292184D01*
X169965049Y-123292181D01*
X169965048Y-123292179D01*
X169840109Y-123120213D01*
X169689786Y-122969890D01*
X169643558Y-122936304D01*
X170799500Y-122936304D01*
X170799500Y-123113695D01*
X170834103Y-123287658D01*
X170834106Y-123287667D01*
X170901983Y-123451540D01*
X170901990Y-123451553D01*
X171000535Y-123599034D01*
X171000538Y-123599038D01*
X171125961Y-123724461D01*
X171125965Y-123724464D01*
X171273446Y-123823009D01*
X171273459Y-123823016D01*
X171396363Y-123873923D01*
X171437334Y-123890894D01*
X171437336Y-123890894D01*
X171437341Y-123890896D01*
X171611304Y-123925499D01*
X171611307Y-123925500D01*
X171611309Y-123925500D01*
X171788693Y-123925500D01*
X171788694Y-123925499D01*
X171846682Y-123913964D01*
X171962658Y-123890896D01*
X171962661Y-123890894D01*
X171962666Y-123890894D01*
X172126547Y-123823013D01*
X172274035Y-123724464D01*
X172399464Y-123599035D01*
X172498013Y-123451547D01*
X172565894Y-123287666D01*
X172600500Y-123113691D01*
X172600500Y-122936309D01*
X172600500Y-122936306D01*
X172600499Y-122936304D01*
X172565896Y-122762341D01*
X172565893Y-122762332D01*
X172498016Y-122598459D01*
X172498009Y-122598446D01*
X172399464Y-122450965D01*
X172399461Y-122450961D01*
X172274038Y-122325538D01*
X172274034Y-122325535D01*
X172126553Y-122226990D01*
X172126540Y-122226983D01*
X171962667Y-122159106D01*
X171962658Y-122159103D01*
X171788694Y-122124500D01*
X171788691Y-122124500D01*
X171611309Y-122124500D01*
X171611306Y-122124500D01*
X171437341Y-122159103D01*
X171437332Y-122159106D01*
X171273459Y-122226983D01*
X171273446Y-122226990D01*
X171125965Y-122325535D01*
X171125961Y-122325538D01*
X171000538Y-122450961D01*
X171000535Y-122450965D01*
X170901990Y-122598446D01*
X170901983Y-122598459D01*
X170834106Y-122762332D01*
X170834103Y-122762341D01*
X170799500Y-122936304D01*
X169643558Y-122936304D01*
X169517820Y-122844951D01*
X169328414Y-122748444D01*
X169328413Y-122748443D01*
X169328412Y-122748443D01*
X169126243Y-122682754D01*
X169126241Y-122682753D01*
X169126240Y-122682753D01*
X168964957Y-122657208D01*
X168916287Y-122649500D01*
X168703713Y-122649500D01*
X168655042Y-122657208D01*
X168493760Y-122682753D01*
X168291585Y-122748444D01*
X168102179Y-122844951D01*
X167930213Y-122969890D01*
X167779890Y-123120213D01*
X167654949Y-123292182D01*
X167650484Y-123300946D01*
X167602509Y-123351742D01*
X167534688Y-123368536D01*
X167468553Y-123345998D01*
X167429516Y-123300946D01*
X167425050Y-123292182D01*
X167300109Y-123120213D01*
X167149786Y-122969890D01*
X166977820Y-122844951D01*
X166788414Y-122748444D01*
X166788413Y-122748443D01*
X166788412Y-122748443D01*
X166586243Y-122682754D01*
X166586241Y-122682753D01*
X166586240Y-122682753D01*
X166424957Y-122657208D01*
X166376287Y-122649500D01*
X166163713Y-122649500D01*
X166115042Y-122657208D01*
X165953760Y-122682753D01*
X165751585Y-122748444D01*
X165562179Y-122844951D01*
X165390213Y-122969890D01*
X165239890Y-123120213D01*
X165114949Y-123292182D01*
X165110484Y-123300946D01*
X165062509Y-123351742D01*
X164994688Y-123368536D01*
X164928553Y-123345998D01*
X164889516Y-123300946D01*
X164885050Y-123292182D01*
X164760109Y-123120213D01*
X164609786Y-122969890D01*
X164437820Y-122844951D01*
X164248414Y-122748444D01*
X164248413Y-122748443D01*
X164248412Y-122748443D01*
X164046243Y-122682754D01*
X164046241Y-122682753D01*
X164046240Y-122682753D01*
X163884957Y-122657208D01*
X163836287Y-122649500D01*
X163623713Y-122649500D01*
X163575042Y-122657208D01*
X163413760Y-122682753D01*
X163211585Y-122748444D01*
X163022179Y-122844951D01*
X162850213Y-122969890D01*
X162699890Y-123120213D01*
X162574949Y-123292182D01*
X162570484Y-123300946D01*
X162522509Y-123351742D01*
X162454688Y-123368536D01*
X162388553Y-123345998D01*
X162349516Y-123300946D01*
X162345050Y-123292182D01*
X162220109Y-123120213D01*
X162069786Y-122969890D01*
X161897820Y-122844951D01*
X161708414Y-122748444D01*
X161708413Y-122748443D01*
X161708412Y-122748443D01*
X161506243Y-122682754D01*
X161506241Y-122682753D01*
X161506240Y-122682753D01*
X161344957Y-122657208D01*
X161296287Y-122649500D01*
X161083713Y-122649500D01*
X161035042Y-122657208D01*
X160873760Y-122682753D01*
X160671585Y-122748444D01*
X160482179Y-122844951D01*
X160310213Y-122969890D01*
X160159890Y-123120213D01*
X160034951Y-123292179D01*
X159938444Y-123481585D01*
X159872753Y-123683760D01*
X159839500Y-123893713D01*
X159839500Y-124106286D01*
X159871972Y-124311309D01*
X159872754Y-124316243D01*
X159928787Y-124488695D01*
X159938444Y-124518414D01*
X160034951Y-124707820D01*
X160159890Y-124879786D01*
X160310213Y-125030109D01*
X160482179Y-125155048D01*
X160482181Y-125155049D01*
X160482184Y-125155051D01*
X160511009Y-125169738D01*
X160671583Y-125251555D01*
X160671585Y-125251555D01*
X160671588Y-125251557D01*
X160680670Y-125254508D01*
X160738344Y-125293945D01*
X160765542Y-125358303D01*
X160753627Y-125427150D01*
X160706383Y-125478625D01*
X160642350Y-125496438D01*
X156116973Y-125496438D01*
X156049934Y-125476753D01*
X156004179Y-125423949D01*
X155994235Y-125354791D01*
X156023260Y-125291235D01*
X156069521Y-125257877D01*
X156214040Y-125198016D01*
X156214040Y-125198015D01*
X156214047Y-125198013D01*
X156361535Y-125099464D01*
X156486964Y-124974035D01*
X156585513Y-124826547D01*
X156653394Y-124662666D01*
X156659196Y-124633501D01*
X156687999Y-124488695D01*
X156688000Y-124488693D01*
X156688000Y-124311306D01*
X156687999Y-124311304D01*
X156653396Y-124137341D01*
X156653393Y-124137332D01*
X156585516Y-123973459D01*
X156585509Y-123973446D01*
X156486964Y-123825965D01*
X156486961Y-123825961D01*
X156361538Y-123700538D01*
X156361534Y-123700535D01*
X156214053Y-123601990D01*
X156214040Y-123601983D01*
X156050167Y-123534106D01*
X156050158Y-123534103D01*
X155876194Y-123499500D01*
X155876191Y-123499500D01*
X155698809Y-123499500D01*
X155698806Y-123499500D01*
X155524841Y-123534103D01*
X155524832Y-123534106D01*
X155360959Y-123601983D01*
X155360946Y-123601990D01*
X155213465Y-123700535D01*
X155213461Y-123700538D01*
X155088038Y-123825961D01*
X155088035Y-123825965D01*
X154989490Y-123973446D01*
X154989483Y-123973459D01*
X154921606Y-124137332D01*
X154921603Y-124137341D01*
X154887000Y-124311304D01*
X154887000Y-124488695D01*
X154921603Y-124662658D01*
X154921606Y-124662667D01*
X154989483Y-124826540D01*
X154989490Y-124826553D01*
X155088035Y-124974034D01*
X155088038Y-124974038D01*
X155213461Y-125099461D01*
X155213465Y-125099464D01*
X155360946Y-125198009D01*
X155360959Y-125198016D01*
X155505479Y-125257877D01*
X155559883Y-125301717D01*
X155581948Y-125368011D01*
X155564669Y-125435711D01*
X155513532Y-125483322D01*
X155458027Y-125496438D01*
X150394282Y-125496438D01*
X150329639Y-125478255D01*
X150327180Y-125476753D01*
X150040655Y-125301717D01*
X149574376Y-125016871D01*
X149570831Y-125014622D01*
X148759951Y-124480751D01*
X148756484Y-124478384D01*
X148668754Y-124416267D01*
X148534421Y-124321153D01*
X151587000Y-124321153D01*
X151587000Y-124478846D01*
X151617761Y-124633489D01*
X151617764Y-124633501D01*
X151678102Y-124779172D01*
X151678109Y-124779185D01*
X151765710Y-124910288D01*
X151765713Y-124910292D01*
X151877207Y-125021786D01*
X151877211Y-125021789D01*
X152008314Y-125109390D01*
X152008327Y-125109397D01*
X152153998Y-125169735D01*
X152154003Y-125169737D01*
X152296135Y-125198009D01*
X152308653Y-125200499D01*
X152308656Y-125200500D01*
X152308658Y-125200500D01*
X152466344Y-125200500D01*
X152466345Y-125200499D01*
X152620997Y-125169737D01*
X152766679Y-125109394D01*
X152897789Y-125021789D01*
X153009289Y-124910289D01*
X153096894Y-124779179D01*
X153157237Y-124633497D01*
X153188000Y-124478842D01*
X153188000Y-124321158D01*
X153188000Y-124321155D01*
X153187999Y-124321153D01*
X153157238Y-124166510D01*
X153157237Y-124166503D01*
X153132295Y-124106287D01*
X153096897Y-124020827D01*
X153096890Y-124020814D01*
X153009289Y-123889711D01*
X153009285Y-123889706D01*
X152897792Y-123778213D01*
X152897788Y-123778210D01*
X152766685Y-123690609D01*
X152766672Y-123690602D01*
X152621001Y-123630264D01*
X152620989Y-123630261D01*
X152466345Y-123599500D01*
X152466342Y-123599500D01*
X152308658Y-123599500D01*
X152308655Y-123599500D01*
X152154010Y-123630261D01*
X152153998Y-123630264D01*
X152008327Y-123690602D01*
X152008314Y-123690609D01*
X151877211Y-123778210D01*
X151877207Y-123778213D01*
X151765715Y-123889706D01*
X151765710Y-123889711D01*
X151678109Y-124020814D01*
X151678102Y-124020827D01*
X151617764Y-124166498D01*
X151617761Y-124166510D01*
X151587000Y-124321153D01*
X148534421Y-124321153D01*
X147964109Y-123917345D01*
X147960724Y-123914861D01*
X147242015Y-123368536D01*
X147187792Y-123327319D01*
X147184523Y-123324745D01*
X146431937Y-122711383D01*
X146428729Y-122708676D01*
X145697352Y-122070203D01*
X145694236Y-122067389D01*
X144984868Y-121404500D01*
X144981850Y-121401582D01*
X144876689Y-121296420D01*
X157236999Y-121296420D01*
X157265840Y-121441407D01*
X157265843Y-121441417D01*
X157322412Y-121577988D01*
X157322419Y-121578001D01*
X157404548Y-121700915D01*
X157404551Y-121700919D01*
X157509080Y-121805448D01*
X157509084Y-121805451D01*
X157631998Y-121887580D01*
X157632011Y-121887587D01*
X157768582Y-121944156D01*
X157768587Y-121944158D01*
X157768591Y-121944158D01*
X157768592Y-121944159D01*
X157913579Y-121973000D01*
X157913582Y-121973000D01*
X158061420Y-121973000D01*
X158158962Y-121953596D01*
X158206413Y-121944158D01*
X158342995Y-121887584D01*
X158465916Y-121805451D01*
X158570451Y-121700916D01*
X158633084Y-121607179D01*
X158647409Y-121585741D01*
X158701021Y-121540935D01*
X158770346Y-121532228D01*
X158833373Y-121562382D01*
X158865072Y-121607179D01*
X158915602Y-121729172D01*
X158915609Y-121729185D01*
X159003210Y-121860288D01*
X159003213Y-121860292D01*
X159114707Y-121971786D01*
X159114711Y-121971789D01*
X159245814Y-122059390D01*
X159245827Y-122059397D01*
X159391498Y-122119735D01*
X159391503Y-122119737D01*
X159546153Y-122150499D01*
X159546156Y-122150500D01*
X159546158Y-122150500D01*
X159703844Y-122150500D01*
X159703845Y-122150499D01*
X159858497Y-122119737D01*
X160004179Y-122059394D01*
X160135289Y-121971789D01*
X160246789Y-121860289D01*
X160334394Y-121729179D01*
X160394737Y-121583497D01*
X160425500Y-121428842D01*
X160425500Y-121271158D01*
X160425500Y-121271155D01*
X160425499Y-121271153D01*
X160410184Y-121194159D01*
X160394737Y-121116503D01*
X160369449Y-121055451D01*
X160334397Y-120970827D01*
X160334390Y-120970814D01*
X160246789Y-120839711D01*
X160246786Y-120839707D01*
X160135292Y-120728213D01*
X160135288Y-120728210D01*
X160004185Y-120640609D01*
X160004172Y-120640602D01*
X159858501Y-120580264D01*
X159858489Y-120580261D01*
X159703845Y-120549500D01*
X159703842Y-120549500D01*
X159546158Y-120549500D01*
X159546155Y-120549500D01*
X159391510Y-120580261D01*
X159391498Y-120580264D01*
X159245827Y-120640602D01*
X159245814Y-120640609D01*
X159114711Y-120728210D01*
X159114707Y-120728213D01*
X159003213Y-120839707D01*
X159003210Y-120839711D01*
X158915606Y-120970819D01*
X158915234Y-120971516D01*
X158914943Y-120971812D01*
X158912221Y-120975886D01*
X158911448Y-120975369D01*
X158866270Y-121021359D01*
X158798132Y-121036818D01*
X158732453Y-121012985D01*
X158691316Y-120960512D01*
X158652587Y-120867011D01*
X158652580Y-120866998D01*
X158570451Y-120744084D01*
X158570448Y-120744080D01*
X158465919Y-120639551D01*
X158465915Y-120639548D01*
X158343001Y-120557419D01*
X158342992Y-120557414D01*
X158316450Y-120546420D01*
X174499499Y-120546420D01*
X174528340Y-120691407D01*
X174528343Y-120691417D01*
X174584912Y-120827988D01*
X174584919Y-120828001D01*
X174667048Y-120950915D01*
X174667051Y-120950919D01*
X174771580Y-121055448D01*
X174771584Y-121055451D01*
X174894498Y-121137580D01*
X174894511Y-121137587D01*
X175031082Y-121194156D01*
X175031087Y-121194158D01*
X175031091Y-121194158D01*
X175031092Y-121194159D01*
X175176079Y-121223000D01*
X175176082Y-121223000D01*
X175323920Y-121223000D01*
X175421462Y-121203596D01*
X175468913Y-121194158D01*
X175605495Y-121137584D01*
X175728416Y-121055451D01*
X175832951Y-120950916D01*
X175915084Y-120827995D01*
X175971658Y-120691413D01*
X175982514Y-120636837D01*
X176000500Y-120546420D01*
X176000500Y-120398579D01*
X175971659Y-120253592D01*
X175971658Y-120253591D01*
X175971658Y-120253587D01*
X175971656Y-120253582D01*
X175915087Y-120117011D01*
X175915080Y-120116998D01*
X175832951Y-119994084D01*
X175832948Y-119994080D01*
X175728419Y-119889551D01*
X175728415Y-119889548D01*
X175605501Y-119807419D01*
X175605488Y-119807412D01*
X175468917Y-119750843D01*
X175468907Y-119750840D01*
X175323920Y-119722000D01*
X175323918Y-119722000D01*
X175176082Y-119722000D01*
X175176080Y-119722000D01*
X175031092Y-119750840D01*
X175031082Y-119750843D01*
X174894511Y-119807412D01*
X174894498Y-119807419D01*
X174771584Y-119889548D01*
X174771580Y-119889551D01*
X174667051Y-119994080D01*
X174667048Y-119994084D01*
X174584919Y-120116998D01*
X174584912Y-120117011D01*
X174528343Y-120253582D01*
X174528340Y-120253592D01*
X174499500Y-120398579D01*
X174499500Y-120398582D01*
X174499500Y-120546418D01*
X174499500Y-120546420D01*
X174499499Y-120546420D01*
X158316450Y-120546420D01*
X158221406Y-120507052D01*
X158221405Y-120507052D01*
X158206413Y-120500842D01*
X158206408Y-120500841D01*
X158206407Y-120500840D01*
X158061420Y-120472000D01*
X158061418Y-120472000D01*
X157913582Y-120472000D01*
X157913580Y-120472000D01*
X157768592Y-120500840D01*
X157768582Y-120500843D01*
X157632011Y-120557412D01*
X157631998Y-120557419D01*
X157509084Y-120639548D01*
X157509080Y-120639551D01*
X157404551Y-120744080D01*
X157404548Y-120744084D01*
X157322419Y-120866998D01*
X157322412Y-120867011D01*
X157265843Y-121003582D01*
X157265840Y-121003592D01*
X157237000Y-121148579D01*
X157237000Y-121148582D01*
X157237000Y-121296418D01*
X157237000Y-121296420D01*
X157236999Y-121296420D01*
X144876689Y-121296420D01*
X144810440Y-121230171D01*
X144295359Y-120715088D01*
X144292441Y-120712070D01*
X144137645Y-120546420D01*
X143629551Y-120002698D01*
X143626740Y-119999585D01*
X143542496Y-119903082D01*
X142988263Y-119268201D01*
X142985561Y-119264998D01*
X142889634Y-119147296D01*
X142452800Y-118611304D01*
X157849500Y-118611304D01*
X157849500Y-118788695D01*
X157884103Y-118962658D01*
X157884106Y-118962667D01*
X157951983Y-119126540D01*
X157951990Y-119126553D01*
X158050535Y-119274034D01*
X158050538Y-119274038D01*
X158175961Y-119399461D01*
X158175965Y-119399464D01*
X158323446Y-119498009D01*
X158323459Y-119498016D01*
X158446363Y-119548923D01*
X158487334Y-119565894D01*
X158487336Y-119565894D01*
X158487341Y-119565896D01*
X158661304Y-119600499D01*
X158661307Y-119600500D01*
X158661309Y-119600500D01*
X158838693Y-119600500D01*
X158838694Y-119600499D01*
X158896682Y-119588964D01*
X159012658Y-119565896D01*
X159012661Y-119565894D01*
X159012666Y-119565894D01*
X159176547Y-119498013D01*
X159324035Y-119399464D01*
X159449464Y-119274035D01*
X159548013Y-119126547D01*
X159615894Y-118962666D01*
X159650500Y-118788691D01*
X159650500Y-118611309D01*
X159650500Y-118611306D01*
X159650499Y-118611304D01*
X159615896Y-118437341D01*
X159615893Y-118437332D01*
X159548016Y-118273459D01*
X159548009Y-118273446D01*
X159449464Y-118125965D01*
X159449461Y-118125961D01*
X159324038Y-118000538D01*
X159324034Y-118000535D01*
X159176553Y-117901990D01*
X159176540Y-117901983D01*
X159012667Y-117834106D01*
X159012658Y-117834103D01*
X158838694Y-117799500D01*
X158838691Y-117799500D01*
X158661309Y-117799500D01*
X158661306Y-117799500D01*
X158487341Y-117834103D01*
X158487332Y-117834106D01*
X158323459Y-117901983D01*
X158323446Y-117901990D01*
X158175965Y-118000535D01*
X158175961Y-118000538D01*
X158050538Y-118125961D01*
X158050535Y-118125965D01*
X157951990Y-118273446D01*
X157951983Y-118273459D01*
X157884106Y-118437332D01*
X157884103Y-118437341D01*
X157849500Y-118611304D01*
X142452800Y-118611304D01*
X142372178Y-118512381D01*
X142369611Y-118509118D01*
X142266931Y-118374038D01*
X141782094Y-117736216D01*
X141779614Y-117732837D01*
X141641194Y-117537341D01*
X141218577Y-116940460D01*
X141216213Y-116936999D01*
X141192486Y-116900961D01*
X140682308Y-116126061D01*
X140680089Y-116122563D01*
X140602867Y-115996153D01*
X151199500Y-115996153D01*
X151199500Y-116153846D01*
X151230261Y-116308489D01*
X151230264Y-116308501D01*
X151290602Y-116454172D01*
X151290609Y-116454185D01*
X151378210Y-116585288D01*
X151378213Y-116585292D01*
X151489707Y-116696786D01*
X151489711Y-116696789D01*
X151620814Y-116784390D01*
X151620827Y-116784397D01*
X151751911Y-116838693D01*
X151766503Y-116844737D01*
X151902487Y-116871786D01*
X151921153Y-116875499D01*
X151921156Y-116875500D01*
X151921158Y-116875500D01*
X152078844Y-116875500D01*
X152078845Y-116875499D01*
X152233497Y-116844737D01*
X152379179Y-116784394D01*
X152510289Y-116696789D01*
X152621789Y-116585289D01*
X152709394Y-116454179D01*
X152769737Y-116308497D01*
X152800500Y-116153842D01*
X152800500Y-115996158D01*
X152800500Y-115996155D01*
X152800499Y-115996153D01*
X152785685Y-115921678D01*
X152769737Y-115841503D01*
X152727572Y-115739707D01*
X152709397Y-115695827D01*
X152709390Y-115695814D01*
X152621789Y-115564711D01*
X152621786Y-115564707D01*
X152510292Y-115453213D01*
X152510288Y-115453210D01*
X152379185Y-115365609D01*
X152379172Y-115365602D01*
X152233501Y-115305264D01*
X152233489Y-115305261D01*
X152078845Y-115274500D01*
X152078842Y-115274500D01*
X151921158Y-115274500D01*
X151921155Y-115274500D01*
X151766510Y-115305261D01*
X151766498Y-115305264D01*
X151620827Y-115365602D01*
X151620814Y-115365609D01*
X151489711Y-115453210D01*
X151489707Y-115453213D01*
X151378213Y-115564707D01*
X151378210Y-115564711D01*
X151290609Y-115695814D01*
X151290602Y-115695827D01*
X151230264Y-115841498D01*
X151230261Y-115841510D01*
X151199500Y-115996153D01*
X140602867Y-115996153D01*
X140289678Y-115483474D01*
X140218682Y-115367255D01*
X140200500Y-115302613D01*
X140200500Y-114111304D01*
X145787000Y-114111304D01*
X145787000Y-114288695D01*
X145821603Y-114462658D01*
X145821606Y-114462667D01*
X145889483Y-114626540D01*
X145889490Y-114626553D01*
X145988035Y-114774034D01*
X145988038Y-114774038D01*
X146113461Y-114899461D01*
X146113465Y-114899464D01*
X146260946Y-114998009D01*
X146260959Y-114998016D01*
X146347433Y-115033834D01*
X146424834Y-115065894D01*
X146424836Y-115065894D01*
X146424841Y-115065896D01*
X146598804Y-115100499D01*
X146598807Y-115100500D01*
X146598809Y-115100500D01*
X146776193Y-115100500D01*
X146776194Y-115100499D01*
X146816336Y-115092514D01*
X154799500Y-115092514D01*
X154799500Y-115301361D01*
X154801232Y-115337492D01*
X154802313Y-115360042D01*
X154829752Y-115517617D01*
X154847107Y-115617281D01*
X154847107Y-115617282D01*
X154873628Y-115695821D01*
X154930643Y-115864668D01*
X154975982Y-115951990D01*
X155050966Y-116096408D01*
X155205244Y-116307051D01*
X155205248Y-116307056D01*
X155389881Y-116491689D01*
X155389886Y-116491693D01*
X155600529Y-116645971D01*
X155600532Y-116645972D01*
X155600534Y-116645974D01*
X155832270Y-116766295D01*
X156079657Y-116849831D01*
X156336896Y-116894625D01*
X156395590Y-116897438D01*
X156395607Y-116897438D01*
X158604393Y-116897438D01*
X158604410Y-116897438D01*
X158663104Y-116894625D01*
X158920343Y-116849831D01*
X159167730Y-116766295D01*
X159399466Y-116645974D01*
X159610119Y-116491689D01*
X159737599Y-116364208D01*
X159798918Y-116330726D01*
X159868610Y-116335710D01*
X159924544Y-116377581D01*
X159948961Y-116443045D01*
X159944683Y-116481237D01*
X159945294Y-116481359D01*
X159909500Y-116661304D01*
X159909500Y-116838695D01*
X159944103Y-117012658D01*
X159944106Y-117012667D01*
X160011983Y-117176540D01*
X160011990Y-117176553D01*
X160110535Y-117324034D01*
X160110538Y-117324038D01*
X160235961Y-117449461D01*
X160235965Y-117449464D01*
X160383446Y-117548009D01*
X160383459Y-117548016D01*
X160444149Y-117573154D01*
X160547334Y-117615894D01*
X160547336Y-117615894D01*
X160547341Y-117615896D01*
X160721304Y-117650499D01*
X160721307Y-117650500D01*
X160721309Y-117650500D01*
X160898693Y-117650500D01*
X160898694Y-117650499D01*
X160956682Y-117638964D01*
X161072658Y-117615896D01*
X161072661Y-117615894D01*
X161072666Y-117615894D01*
X161236547Y-117548013D01*
X161384035Y-117449464D01*
X161447195Y-117386304D01*
X174799500Y-117386304D01*
X174799500Y-117563695D01*
X174834103Y-117737658D01*
X174834106Y-117737667D01*
X174901983Y-117901540D01*
X174901990Y-117901553D01*
X175000535Y-118049034D01*
X175000538Y-118049038D01*
X175125961Y-118174461D01*
X175125965Y-118174464D01*
X175273446Y-118273009D01*
X175273459Y-118273016D01*
X175396363Y-118323923D01*
X175437334Y-118340894D01*
X175437336Y-118340894D01*
X175437341Y-118340896D01*
X175611304Y-118375499D01*
X175611307Y-118375500D01*
X175611309Y-118375500D01*
X175788693Y-118375500D01*
X175788694Y-118375499D01*
X175846682Y-118363964D01*
X175962658Y-118340896D01*
X175962661Y-118340894D01*
X175962666Y-118340894D01*
X176126547Y-118273013D01*
X176274035Y-118174464D01*
X176399464Y-118049035D01*
X176498013Y-117901547D01*
X176565894Y-117737666D01*
X176566179Y-117736234D01*
X176571138Y-117711304D01*
X179699500Y-117711304D01*
X179699500Y-117888695D01*
X179734103Y-118062658D01*
X179734106Y-118062667D01*
X179801983Y-118226540D01*
X179801990Y-118226553D01*
X179900535Y-118374034D01*
X179900538Y-118374038D01*
X180025961Y-118499461D01*
X180025965Y-118499464D01*
X180173446Y-118598009D01*
X180173459Y-118598016D01*
X180296363Y-118648923D01*
X180337334Y-118665894D01*
X180337336Y-118665894D01*
X180337341Y-118665896D01*
X180511304Y-118700499D01*
X180511307Y-118700500D01*
X180511309Y-118700500D01*
X180688693Y-118700500D01*
X180688694Y-118700499D01*
X180773879Y-118683555D01*
X180862658Y-118665896D01*
X180862661Y-118665894D01*
X180862666Y-118665894D01*
X181026547Y-118598013D01*
X181174035Y-118499464D01*
X181299464Y-118374035D01*
X181398013Y-118226547D01*
X181465894Y-118062666D01*
X181468606Y-118049035D01*
X181488964Y-117946682D01*
X181500500Y-117888691D01*
X181500500Y-117711309D01*
X181500500Y-117711306D01*
X181500499Y-117711304D01*
X181465896Y-117537341D01*
X181465893Y-117537332D01*
X181398016Y-117373459D01*
X181398009Y-117373446D01*
X181299464Y-117225965D01*
X181299461Y-117225961D01*
X181174038Y-117100538D01*
X181174034Y-117100535D01*
X181026553Y-117001990D01*
X181026540Y-117001983D01*
X180862667Y-116934106D01*
X180862658Y-116934103D01*
X180688694Y-116899500D01*
X180688691Y-116899500D01*
X180511309Y-116899500D01*
X180511306Y-116899500D01*
X180337341Y-116934103D01*
X180337332Y-116934106D01*
X180173459Y-117001983D01*
X180173446Y-117001990D01*
X180025965Y-117100535D01*
X180025961Y-117100538D01*
X179900538Y-117225961D01*
X179900535Y-117225965D01*
X179801990Y-117373446D01*
X179801983Y-117373459D01*
X179734106Y-117537332D01*
X179734103Y-117537341D01*
X179699500Y-117711304D01*
X176571138Y-117711304D01*
X176577161Y-117681026D01*
X176600499Y-117563695D01*
X176600500Y-117563693D01*
X176600500Y-117386306D01*
X176600499Y-117386304D01*
X176565896Y-117212341D01*
X176565893Y-117212332D01*
X176498016Y-117048459D01*
X176498009Y-117048446D01*
X176399464Y-116900965D01*
X176399461Y-116900961D01*
X176274038Y-116775538D01*
X176274034Y-116775535D01*
X176126553Y-116676990D01*
X176126540Y-116676983D01*
X175962667Y-116609106D01*
X175962658Y-116609103D01*
X175788694Y-116574500D01*
X175788691Y-116574500D01*
X175611309Y-116574500D01*
X175611306Y-116574500D01*
X175437341Y-116609103D01*
X175437332Y-116609106D01*
X175273459Y-116676983D01*
X175273446Y-116676990D01*
X175125965Y-116775535D01*
X175125961Y-116775538D01*
X175000538Y-116900961D01*
X175000535Y-116900965D01*
X174901990Y-117048446D01*
X174901983Y-117048459D01*
X174834106Y-117212332D01*
X174834103Y-117212341D01*
X174799500Y-117386304D01*
X161447195Y-117386304D01*
X161509464Y-117324035D01*
X161608013Y-117176547D01*
X161675894Y-117012666D01*
X161678019Y-117001987D01*
X161708646Y-116848013D01*
X161710500Y-116838691D01*
X161710500Y-116661309D01*
X161710500Y-116661306D01*
X161710499Y-116661304D01*
X161675896Y-116487341D01*
X161675893Y-116487332D01*
X161673368Y-116481237D01*
X161657549Y-116443045D01*
X161608016Y-116323459D01*
X161608009Y-116323446D01*
X161548214Y-116233957D01*
X161509464Y-116175965D01*
X161509461Y-116175961D01*
X161504653Y-116171153D01*
X167149500Y-116171153D01*
X167149500Y-116328846D01*
X167180261Y-116483489D01*
X167180264Y-116483501D01*
X167240602Y-116629172D01*
X167240609Y-116629185D01*
X167328210Y-116760288D01*
X167328213Y-116760292D01*
X167439707Y-116871786D01*
X167439711Y-116871789D01*
X167570814Y-116959390D01*
X167570827Y-116959397D01*
X167699432Y-117012666D01*
X167716503Y-117019737D01*
X167860832Y-117048446D01*
X167871153Y-117050499D01*
X167871156Y-117050500D01*
X167871158Y-117050500D01*
X168028844Y-117050500D01*
X168028845Y-117050499D01*
X168183497Y-117019737D01*
X168329179Y-116959394D01*
X168460289Y-116871789D01*
X168571789Y-116760289D01*
X168659394Y-116629179D01*
X168661524Y-116624038D01*
X168682043Y-116574500D01*
X168719737Y-116483497D01*
X168750500Y-116328842D01*
X168750500Y-116171158D01*
X168750500Y-116171155D01*
X168750499Y-116171153D01*
X168741188Y-116124342D01*
X168719737Y-116016503D01*
X168693012Y-115951983D01*
X168659397Y-115870827D01*
X168659390Y-115870814D01*
X168571789Y-115739711D01*
X168571786Y-115739707D01*
X168460292Y-115628213D01*
X168460288Y-115628210D01*
X168329185Y-115540609D01*
X168329172Y-115540602D01*
X168183501Y-115480264D01*
X168183489Y-115480261D01*
X168028845Y-115449500D01*
X168028842Y-115449500D01*
X167871158Y-115449500D01*
X167871155Y-115449500D01*
X167716510Y-115480261D01*
X167716498Y-115480264D01*
X167570827Y-115540602D01*
X167570814Y-115540609D01*
X167439711Y-115628210D01*
X167439707Y-115628213D01*
X167328213Y-115739707D01*
X167328210Y-115739711D01*
X167240609Y-115870814D01*
X167240602Y-115870827D01*
X167180264Y-116016498D01*
X167180261Y-116016510D01*
X167149500Y-116171153D01*
X161504653Y-116171153D01*
X161384038Y-116050538D01*
X161384034Y-116050535D01*
X161236553Y-115951990D01*
X161236540Y-115951983D01*
X161072667Y-115884106D01*
X161072658Y-115884103D01*
X160898694Y-115849500D01*
X160898691Y-115849500D01*
X160721309Y-115849500D01*
X160721306Y-115849500D01*
X160547341Y-115884103D01*
X160547332Y-115884106D01*
X160383459Y-115951983D01*
X160383446Y-115951990D01*
X160234475Y-116051530D01*
X160167797Y-116072408D01*
X160100417Y-116053923D01*
X160053727Y-116001944D01*
X160042551Y-115932974D01*
X160055532Y-115891293D01*
X160069357Y-115864668D01*
X160152893Y-115617281D01*
X160197687Y-115360042D01*
X160200500Y-115301348D01*
X160200500Y-115092528D01*
X160200499Y-115092514D01*
X169799500Y-115092514D01*
X169799500Y-115301361D01*
X169801232Y-115337492D01*
X169802313Y-115360042D01*
X169829752Y-115517617D01*
X169847107Y-115617281D01*
X169847107Y-115617282D01*
X169873628Y-115695821D01*
X169930643Y-115864668D01*
X169975982Y-115951990D01*
X170050966Y-116096408D01*
X170205244Y-116307051D01*
X170205248Y-116307056D01*
X170389881Y-116491689D01*
X170389886Y-116491693D01*
X170600529Y-116645971D01*
X170600532Y-116645972D01*
X170600534Y-116645974D01*
X170832270Y-116766295D01*
X171079657Y-116849831D01*
X171336896Y-116894625D01*
X171395590Y-116897438D01*
X171395607Y-116897438D01*
X173604393Y-116897438D01*
X173604410Y-116897438D01*
X173663104Y-116894625D01*
X173920343Y-116849831D01*
X174167730Y-116766295D01*
X174399466Y-116645974D01*
X174610119Y-116491689D01*
X174794751Y-116307057D01*
X174949036Y-116096404D01*
X175019182Y-115961304D01*
X181562000Y-115961304D01*
X181562000Y-116138695D01*
X181596603Y-116312658D01*
X181596606Y-116312667D01*
X181664483Y-116476540D01*
X181664490Y-116476553D01*
X181763035Y-116624034D01*
X181763038Y-116624038D01*
X181888461Y-116749461D01*
X181888465Y-116749464D01*
X182035946Y-116848009D01*
X182035959Y-116848016D01*
X182155274Y-116897437D01*
X182199834Y-116915894D01*
X182199836Y-116915894D01*
X182199841Y-116915896D01*
X182373804Y-116950499D01*
X182373807Y-116950500D01*
X182373809Y-116950500D01*
X182551193Y-116950500D01*
X182551194Y-116950499D01*
X182610277Y-116938747D01*
X182725158Y-116915896D01*
X182725161Y-116915894D01*
X182725166Y-116915894D01*
X182884658Y-116849831D01*
X182889040Y-116848016D01*
X182889040Y-116848015D01*
X182889047Y-116848013D01*
X183036535Y-116749464D01*
X183161964Y-116624035D01*
X183260513Y-116476547D01*
X183328394Y-116312666D01*
X183329223Y-116308501D01*
X183362999Y-116138695D01*
X183363000Y-116138693D01*
X183363000Y-115961306D01*
X183362999Y-115961304D01*
X183328396Y-115787341D01*
X183328393Y-115787332D01*
X183260516Y-115623459D01*
X183260509Y-115623446D01*
X183161964Y-115475965D01*
X183161961Y-115475961D01*
X183036538Y-115350538D01*
X183036534Y-115350535D01*
X182889053Y-115251990D01*
X182889040Y-115251983D01*
X182725167Y-115184106D01*
X182725158Y-115184103D01*
X182551194Y-115149500D01*
X182551191Y-115149500D01*
X182373809Y-115149500D01*
X182373806Y-115149500D01*
X182199841Y-115184103D01*
X182199832Y-115184106D01*
X182035959Y-115251983D01*
X182035946Y-115251990D01*
X181888465Y-115350535D01*
X181888461Y-115350538D01*
X181763038Y-115475961D01*
X181763035Y-115475965D01*
X181664490Y-115623446D01*
X181664483Y-115623459D01*
X181596606Y-115787332D01*
X181596603Y-115787341D01*
X181562000Y-115961304D01*
X175019182Y-115961304D01*
X175069357Y-115864668D01*
X175152893Y-115617281D01*
X175197687Y-115360042D01*
X175200500Y-115301348D01*
X175200500Y-115092528D01*
X175197687Y-115033834D01*
X175152893Y-114776595D01*
X175069357Y-114529208D01*
X174949036Y-114297472D01*
X174949034Y-114297470D01*
X174949033Y-114297467D01*
X174794755Y-114086824D01*
X174794751Y-114086819D01*
X174610118Y-113902186D01*
X174610113Y-113902182D01*
X174399470Y-113747904D01*
X174369587Y-113732388D01*
X174167730Y-113627581D01*
X173920343Y-113544045D01*
X173663104Y-113499251D01*
X173652098Y-113498723D01*
X173604423Y-113496438D01*
X173604410Y-113496438D01*
X171395590Y-113496438D01*
X171395576Y-113496438D01*
X171344232Y-113498899D01*
X171336896Y-113499251D01*
X171165403Y-113529113D01*
X171079656Y-113544045D01*
X171079655Y-113544045D01*
X170832270Y-113627581D01*
X170600529Y-113747904D01*
X170389886Y-113902182D01*
X170389881Y-113902186D01*
X170205248Y-114086819D01*
X170205244Y-114086824D01*
X170050966Y-114297467D01*
X169930643Y-114529208D01*
X169847107Y-114776593D01*
X169847107Y-114776594D01*
X169847107Y-114776595D01*
X169808552Y-114998009D01*
X169802313Y-115033836D01*
X169799500Y-115092514D01*
X160200499Y-115092514D01*
X160197687Y-115033834D01*
X160152893Y-114776595D01*
X160069357Y-114529208D01*
X159949036Y-114297472D01*
X159949034Y-114297470D01*
X159949033Y-114297467D01*
X159794755Y-114086824D01*
X159794751Y-114086819D01*
X159610118Y-113902186D01*
X159610113Y-113902182D01*
X159399470Y-113747904D01*
X159369587Y-113732388D01*
X159167730Y-113627581D01*
X158920343Y-113544045D01*
X158663104Y-113499251D01*
X158652098Y-113498723D01*
X158604423Y-113496438D01*
X158604410Y-113496438D01*
X156395590Y-113496438D01*
X156395576Y-113496438D01*
X156344232Y-113498899D01*
X156336896Y-113499251D01*
X156165403Y-113529113D01*
X156079656Y-113544045D01*
X156079655Y-113544045D01*
X155832270Y-113627581D01*
X155600529Y-113747904D01*
X155389886Y-113902182D01*
X155389881Y-113902186D01*
X155205248Y-114086819D01*
X155205244Y-114086824D01*
X155050966Y-114297467D01*
X154930643Y-114529208D01*
X154847107Y-114776593D01*
X154847107Y-114776594D01*
X154847107Y-114776595D01*
X154808552Y-114998009D01*
X154802313Y-115033836D01*
X154799500Y-115092514D01*
X146816336Y-115092514D01*
X146834182Y-115088964D01*
X146950158Y-115065896D01*
X146950161Y-115065894D01*
X146950166Y-115065894D01*
X147114047Y-114998013D01*
X147119807Y-114994163D01*
X147129123Y-114987940D01*
X147129123Y-114987939D01*
X147261535Y-114899464D01*
X147386964Y-114774035D01*
X147485513Y-114626547D01*
X147553394Y-114462666D01*
X147588000Y-114288691D01*
X147588000Y-114111309D01*
X147588000Y-114111306D01*
X147587999Y-114111304D01*
X147553396Y-113937341D01*
X147553393Y-113937332D01*
X147485516Y-113773459D01*
X147485509Y-113773446D01*
X147386964Y-113625965D01*
X147386961Y-113625961D01*
X147261538Y-113500538D01*
X147261534Y-113500535D01*
X147114053Y-113401990D01*
X147114040Y-113401983D01*
X146950167Y-113334106D01*
X146950158Y-113334103D01*
X146776194Y-113299500D01*
X146776191Y-113299500D01*
X146598809Y-113299500D01*
X146598806Y-113299500D01*
X146424841Y-113334103D01*
X146424832Y-113334106D01*
X146260959Y-113401983D01*
X146260946Y-113401990D01*
X146113465Y-113500535D01*
X146113461Y-113500538D01*
X145988038Y-113625961D01*
X145988035Y-113625965D01*
X145889490Y-113773446D01*
X145889483Y-113773459D01*
X145821606Y-113937332D01*
X145821603Y-113937341D01*
X145787000Y-114111304D01*
X140200500Y-114111304D01*
X140200500Y-112261304D01*
X148949500Y-112261304D01*
X148949500Y-112438695D01*
X148984103Y-112612658D01*
X148984106Y-112612667D01*
X149051983Y-112776540D01*
X149051990Y-112776553D01*
X149150535Y-112924034D01*
X149150538Y-112924038D01*
X149275961Y-113049461D01*
X149275965Y-113049464D01*
X149423446Y-113148009D01*
X149423459Y-113148016D01*
X149546363Y-113198923D01*
X149587334Y-113215894D01*
X149587336Y-113215894D01*
X149587341Y-113215896D01*
X149761304Y-113250499D01*
X149761307Y-113250500D01*
X149761309Y-113250500D01*
X149938693Y-113250500D01*
X149938694Y-113250499D01*
X149996682Y-113238964D01*
X150112658Y-113215896D01*
X150112661Y-113215894D01*
X150112666Y-113215894D01*
X150276547Y-113148013D01*
X150424035Y-113049464D01*
X150549464Y-112924035D01*
X150648013Y-112776547D01*
X150715894Y-112612666D01*
X150750500Y-112438691D01*
X150750500Y-112261309D01*
X150750500Y-112261306D01*
X150750499Y-112261304D01*
X150715896Y-112087341D01*
X150715893Y-112087332D01*
X150648016Y-111923459D01*
X150648009Y-111923446D01*
X150549464Y-111775965D01*
X150549461Y-111775961D01*
X150424038Y-111650538D01*
X150424034Y-111650535D01*
X150276553Y-111551990D01*
X150276540Y-111551983D01*
X150112667Y-111484106D01*
X150112658Y-111484103D01*
X149938694Y-111449500D01*
X149938691Y-111449500D01*
X149761309Y-111449500D01*
X149761306Y-111449500D01*
X149587341Y-111484103D01*
X149587332Y-111484106D01*
X149423459Y-111551983D01*
X149423446Y-111551990D01*
X149275965Y-111650535D01*
X149275961Y-111650538D01*
X149150538Y-111775961D01*
X149150535Y-111775965D01*
X149051990Y-111923446D01*
X149051983Y-111923459D01*
X148984106Y-112087332D01*
X148984103Y-112087341D01*
X148949500Y-112261304D01*
X140200500Y-112261304D01*
X140200500Y-110244782D01*
X140930000Y-110244782D01*
X140936401Y-110304310D01*
X140936403Y-110304317D01*
X140986645Y-110439024D01*
X140986649Y-110439031D01*
X141072809Y-110554125D01*
X141072812Y-110554128D01*
X141187906Y-110640288D01*
X141187913Y-110640292D01*
X141322620Y-110690534D01*
X141322627Y-110690536D01*
X141382155Y-110696937D01*
X141382172Y-110696938D01*
X142470000Y-110696938D01*
X142970000Y-110696938D01*
X144057828Y-110696938D01*
X144057844Y-110696937D01*
X144117372Y-110690536D01*
X144117379Y-110690534D01*
X144252086Y-110640292D01*
X144252093Y-110640288D01*
X144367187Y-110554128D01*
X144367190Y-110554125D01*
X144453350Y-110439031D01*
X144453354Y-110439024D01*
X144503596Y-110304317D01*
X144503598Y-110304310D01*
X144509999Y-110244782D01*
X145100000Y-110244782D01*
X145106401Y-110304310D01*
X145106403Y-110304317D01*
X145156645Y-110439024D01*
X145156649Y-110439031D01*
X145242809Y-110554125D01*
X145242812Y-110554128D01*
X145357906Y-110640288D01*
X145357913Y-110640292D01*
X145492620Y-110690534D01*
X145492627Y-110690536D01*
X145552155Y-110696937D01*
X145552172Y-110696938D01*
X146640000Y-110696938D01*
X146640000Y-109946938D01*
X145100000Y-109946938D01*
X145100000Y-110244782D01*
X144509999Y-110244782D01*
X144510000Y-110244765D01*
X144510000Y-109946938D01*
X142970000Y-109946938D01*
X142970000Y-110696938D01*
X142470000Y-110696938D01*
X142470000Y-109946938D01*
X140930000Y-109946938D01*
X140930000Y-110244782D01*
X140200500Y-110244782D01*
X140200500Y-109650860D01*
X142370000Y-109650860D01*
X142370000Y-109743016D01*
X142393852Y-109832033D01*
X142439930Y-109911843D01*
X142505095Y-109977008D01*
X142584905Y-110023086D01*
X142673922Y-110046938D01*
X142766078Y-110046938D01*
X142855095Y-110023086D01*
X142934905Y-109977008D01*
X143000070Y-109911843D01*
X143046148Y-109832033D01*
X143070000Y-109743016D01*
X143070000Y-109650860D01*
X143046148Y-109561843D01*
X143000070Y-109482033D01*
X142964975Y-109446938D01*
X142970000Y-109446938D01*
X144510000Y-109446938D01*
X144510000Y-109149110D01*
X144509999Y-109149093D01*
X144503598Y-109089565D01*
X144503596Y-109089558D01*
X144453354Y-108954851D01*
X144453350Y-108954844D01*
X144367190Y-108839751D01*
X144309021Y-108796205D01*
X144267150Y-108740271D01*
X144262166Y-108670579D01*
X144295651Y-108609256D01*
X144309021Y-108597671D01*
X144367190Y-108554124D01*
X144453350Y-108439031D01*
X144453354Y-108439024D01*
X144503596Y-108304317D01*
X144503598Y-108304310D01*
X144509999Y-108244782D01*
X145100000Y-108244782D01*
X145106401Y-108304310D01*
X145106403Y-108304317D01*
X145156645Y-108439024D01*
X145156649Y-108439031D01*
X145242809Y-108554125D01*
X145300979Y-108597672D01*
X145342849Y-108653606D01*
X145347833Y-108723298D01*
X145314347Y-108784621D01*
X145300979Y-108796204D01*
X145242809Y-108839750D01*
X145156649Y-108954844D01*
X145156645Y-108954851D01*
X145106403Y-109089558D01*
X145106401Y-109089565D01*
X145100000Y-109149093D01*
X145100000Y-109446938D01*
X146640000Y-109446938D01*
X146640000Y-107946938D01*
X145100000Y-107946938D01*
X145100000Y-108244782D01*
X144509999Y-108244782D01*
X144510000Y-108244765D01*
X144510000Y-107946938D01*
X142970000Y-107946938D01*
X142970000Y-109446938D01*
X142964975Y-109446938D01*
X142934905Y-109416868D01*
X142855095Y-109370790D01*
X142766078Y-109346938D01*
X142673922Y-109346938D01*
X142584905Y-109370790D01*
X142505095Y-109416868D01*
X142439930Y-109482033D01*
X142393852Y-109561843D01*
X142370000Y-109650860D01*
X140200500Y-109650860D01*
X140200500Y-108244782D01*
X140930000Y-108244782D01*
X140936401Y-108304310D01*
X140936403Y-108304317D01*
X140986645Y-108439024D01*
X140986649Y-108439031D01*
X141072809Y-108554125D01*
X141130979Y-108597672D01*
X141172849Y-108653606D01*
X141177833Y-108723298D01*
X141144347Y-108784621D01*
X141130979Y-108796204D01*
X141072809Y-108839750D01*
X140986649Y-108954844D01*
X140986645Y-108954851D01*
X140936403Y-109089558D01*
X140936401Y-109089565D01*
X140930000Y-109149093D01*
X140930000Y-109446938D01*
X142470000Y-109446938D01*
X142470000Y-107946938D01*
X140930000Y-107946938D01*
X140930000Y-108244782D01*
X140200500Y-108244782D01*
X140200500Y-101149073D01*
X140929500Y-101149073D01*
X140929500Y-102244808D01*
X140929501Y-102244814D01*
X140935908Y-102304421D01*
X140986202Y-102439266D01*
X140986206Y-102439273D01*
X141072452Y-102554482D01*
X141072453Y-102554482D01*
X141072454Y-102554484D01*
X141101615Y-102576314D01*
X141130145Y-102597672D01*
X141172015Y-102653606D01*
X141176999Y-102723298D01*
X141143513Y-102784621D01*
X141130145Y-102796204D01*
X141072452Y-102839393D01*
X140986206Y-102954602D01*
X140986202Y-102954609D01*
X140935908Y-103089455D01*
X140929501Y-103149054D01*
X140929501Y-103149061D01*
X140929500Y-103149073D01*
X140929500Y-104244808D01*
X140929501Y-104244814D01*
X140935908Y-104304421D01*
X140986202Y-104439266D01*
X140986206Y-104439273D01*
X141072452Y-104554482D01*
X141072453Y-104554482D01*
X141072454Y-104554484D01*
X141101615Y-104576314D01*
X141130145Y-104597672D01*
X141172015Y-104653606D01*
X141176999Y-104723298D01*
X141143513Y-104784621D01*
X141130145Y-104796204D01*
X141072452Y-104839393D01*
X140986206Y-104954602D01*
X140986202Y-104954609D01*
X140935908Y-105089455D01*
X140929501Y-105149054D01*
X140929501Y-105149061D01*
X140929500Y-105149073D01*
X140929500Y-106244808D01*
X140929501Y-106244814D01*
X140935908Y-106304421D01*
X140986202Y-106439266D01*
X140986206Y-106439273D01*
X141072452Y-106554482D01*
X141072453Y-106554482D01*
X141072454Y-106554484D01*
X141107727Y-106580889D01*
X141130562Y-106597984D01*
X141172432Y-106653918D01*
X141177416Y-106723610D01*
X141143930Y-106784932D01*
X141130562Y-106796516D01*
X141072809Y-106839750D01*
X140986649Y-106954844D01*
X140986645Y-106954851D01*
X140936403Y-107089558D01*
X140936401Y-107089565D01*
X140930000Y-107149093D01*
X140930000Y-107446938D01*
X142475025Y-107446938D01*
X142439930Y-107482033D01*
X142393852Y-107561843D01*
X142370000Y-107650860D01*
X142370000Y-107743016D01*
X142393852Y-107832033D01*
X142439930Y-107911843D01*
X142505095Y-107977008D01*
X142584905Y-108023086D01*
X142673922Y-108046938D01*
X142766078Y-108046938D01*
X142855095Y-108023086D01*
X142934905Y-107977008D01*
X143000070Y-107911843D01*
X143046148Y-107832033D01*
X143070000Y-107743016D01*
X143070000Y-107650860D01*
X143046148Y-107561843D01*
X143000070Y-107482033D01*
X142964975Y-107446938D01*
X144510000Y-107446938D01*
X144510000Y-107149110D01*
X144509999Y-107149093D01*
X144503598Y-107089565D01*
X144503596Y-107089558D01*
X144453354Y-106954851D01*
X144453350Y-106954844D01*
X144367190Y-106839750D01*
X144367187Y-106839747D01*
X144309438Y-106796516D01*
X144267567Y-106740583D01*
X144262583Y-106670891D01*
X144296069Y-106609568D01*
X144309432Y-106597987D01*
X144367546Y-106554484D01*
X144453796Y-106439269D01*
X144504091Y-106304421D01*
X144510500Y-106244811D01*
X144510499Y-105149066D01*
X144504091Y-105089455D01*
X144453884Y-104954844D01*
X144453797Y-104954609D01*
X144453793Y-104954602D01*
X144402123Y-104885581D01*
X144367546Y-104839392D01*
X144309854Y-104796203D01*
X144267984Y-104740271D01*
X144263000Y-104670579D01*
X144296485Y-104609256D01*
X144309854Y-104597672D01*
X144367546Y-104554484D01*
X144453796Y-104439269D01*
X144504091Y-104304421D01*
X144510500Y-104244811D01*
X144510499Y-103149066D01*
X144504091Y-103089455D01*
X144498755Y-103075149D01*
X144453797Y-102954609D01*
X144453793Y-102954602D01*
X144367814Y-102839750D01*
X144367546Y-102839392D01*
X144309854Y-102796203D01*
X144267984Y-102740271D01*
X144263000Y-102670579D01*
X144296485Y-102609256D01*
X144309854Y-102597672D01*
X144367546Y-102554484D01*
X144453796Y-102439269D01*
X144504091Y-102304421D01*
X144510500Y-102244811D01*
X144510499Y-101149066D01*
X144504091Y-101089455D01*
X144453796Y-100954607D01*
X144453795Y-100954606D01*
X144453793Y-100954602D01*
X144367547Y-100839393D01*
X144367544Y-100839391D01*
X144309856Y-100796205D01*
X144309437Y-100795891D01*
X144267567Y-100739957D01*
X144262583Y-100670265D01*
X144296069Y-100608942D01*
X144309439Y-100597358D01*
X144367189Y-100554126D01*
X144367190Y-100554125D01*
X144453350Y-100439031D01*
X144453354Y-100439024D01*
X144503596Y-100304317D01*
X144503598Y-100304310D01*
X144509999Y-100244782D01*
X144510000Y-100244765D01*
X144510000Y-99946938D01*
X142964975Y-99946938D01*
X143000070Y-99911843D01*
X143046148Y-99832033D01*
X143070000Y-99743016D01*
X143070000Y-99650860D01*
X143046148Y-99561843D01*
X143000070Y-99482033D01*
X142964975Y-99446938D01*
X142970000Y-99446938D01*
X144510000Y-99446938D01*
X144510000Y-99149110D01*
X144509999Y-99149093D01*
X144503598Y-99089565D01*
X144503596Y-99089558D01*
X144453354Y-98954851D01*
X144453350Y-98954844D01*
X144367190Y-98839751D01*
X144309021Y-98796205D01*
X144267150Y-98740271D01*
X144262166Y-98670579D01*
X144295651Y-98609256D01*
X144309021Y-98597671D01*
X144367190Y-98554124D01*
X144453350Y-98439031D01*
X144453354Y-98439024D01*
X144503596Y-98304317D01*
X144503598Y-98304310D01*
X144509999Y-98244782D01*
X144510000Y-98244765D01*
X144510000Y-97946938D01*
X142970000Y-97946938D01*
X142970000Y-99446938D01*
X142964975Y-99446938D01*
X142934905Y-99416868D01*
X142855095Y-99370790D01*
X142766078Y-99346938D01*
X142673922Y-99346938D01*
X142584905Y-99370790D01*
X142505095Y-99416868D01*
X142439930Y-99482033D01*
X142393852Y-99561843D01*
X142370000Y-99650860D01*
X142370000Y-99743016D01*
X142393852Y-99832033D01*
X142439930Y-99911843D01*
X142475025Y-99946938D01*
X140930000Y-99946938D01*
X140930000Y-100244782D01*
X140936401Y-100304310D01*
X140936403Y-100304317D01*
X140986645Y-100439024D01*
X140986649Y-100439031D01*
X141072809Y-100554124D01*
X141130561Y-100597358D01*
X141172432Y-100653292D01*
X141177416Y-100722984D01*
X141143931Y-100784307D01*
X141130563Y-100795890D01*
X141072454Y-100839391D01*
X141072452Y-100839393D01*
X140986206Y-100954602D01*
X140986202Y-100954609D01*
X140935908Y-101089455D01*
X140929501Y-101149054D01*
X140929501Y-101149061D01*
X140929500Y-101149073D01*
X140200500Y-101149073D01*
X140200500Y-98244782D01*
X140930000Y-98244782D01*
X140936401Y-98304310D01*
X140936403Y-98304317D01*
X140986645Y-98439024D01*
X140986649Y-98439031D01*
X141072809Y-98554125D01*
X141130979Y-98597672D01*
X141172849Y-98653606D01*
X141177833Y-98723298D01*
X141144347Y-98784621D01*
X141130979Y-98796204D01*
X141072809Y-98839750D01*
X140986649Y-98954844D01*
X140986645Y-98954851D01*
X140936403Y-99089558D01*
X140936401Y-99089565D01*
X140930000Y-99149093D01*
X140930000Y-99446938D01*
X142470000Y-99446938D01*
X142470000Y-97946938D01*
X140930000Y-97946938D01*
X140930000Y-98244782D01*
X140200500Y-98244782D01*
X140200500Y-90967442D01*
X140220185Y-90900403D01*
X140272989Y-90854648D01*
X140342147Y-90844704D01*
X140388909Y-90862623D01*
X140389130Y-90862211D01*
X140392415Y-90863967D01*
X140393394Y-90864342D01*
X140394500Y-90865081D01*
X140394511Y-90865087D01*
X140531082Y-90921656D01*
X140531087Y-90921658D01*
X140531091Y-90921658D01*
X140531092Y-90921659D01*
X140676079Y-90950500D01*
X140812803Y-90950500D01*
X140879842Y-90970185D01*
X140925597Y-91022989D01*
X140936092Y-91087756D01*
X140929500Y-91149057D01*
X140929500Y-92244808D01*
X140929501Y-92244814D01*
X140935908Y-92304421D01*
X140986202Y-92439266D01*
X140986206Y-92439273D01*
X141072452Y-92554482D01*
X141072453Y-92554482D01*
X141072454Y-92554484D01*
X141101615Y-92576314D01*
X141130145Y-92597672D01*
X141172015Y-92653606D01*
X141176999Y-92723298D01*
X141143513Y-92784621D01*
X141130145Y-92796204D01*
X141072452Y-92839393D01*
X140986206Y-92954602D01*
X140986202Y-92954609D01*
X140935908Y-93089455D01*
X140929501Y-93149054D01*
X140929501Y-93149061D01*
X140929500Y-93149073D01*
X140929500Y-94244808D01*
X140929501Y-94244814D01*
X140935908Y-94304421D01*
X140986202Y-94439266D01*
X140986206Y-94439273D01*
X141072452Y-94554482D01*
X141072453Y-94554482D01*
X141072454Y-94554484D01*
X141101615Y-94576314D01*
X141130145Y-94597672D01*
X141172015Y-94653606D01*
X141176999Y-94723298D01*
X141143513Y-94784621D01*
X141130145Y-94796204D01*
X141072452Y-94839393D01*
X140986206Y-94954602D01*
X140986202Y-94954609D01*
X140935908Y-95089455D01*
X140935161Y-95096408D01*
X140929501Y-95149061D01*
X140929500Y-95149073D01*
X140929500Y-96244808D01*
X140929501Y-96244814D01*
X140935908Y-96304421D01*
X140986202Y-96439266D01*
X140986206Y-96439273D01*
X141072452Y-96554482D01*
X141072453Y-96554482D01*
X141072454Y-96554484D01*
X141107727Y-96580889D01*
X141130562Y-96597984D01*
X141172432Y-96653918D01*
X141177416Y-96723610D01*
X141143930Y-96784932D01*
X141130562Y-96796516D01*
X141072809Y-96839750D01*
X140986649Y-96954844D01*
X140986645Y-96954851D01*
X140936403Y-97089558D01*
X140936401Y-97089565D01*
X140930000Y-97149093D01*
X140930000Y-97446938D01*
X142475025Y-97446938D01*
X142439930Y-97482033D01*
X142393852Y-97561843D01*
X142370000Y-97650860D01*
X142370000Y-97743016D01*
X142393852Y-97832033D01*
X142439930Y-97911843D01*
X142505095Y-97977008D01*
X142584905Y-98023086D01*
X142673922Y-98046938D01*
X142766078Y-98046938D01*
X142855095Y-98023086D01*
X142934905Y-97977008D01*
X143000070Y-97911843D01*
X143046148Y-97832033D01*
X143070000Y-97743016D01*
X143070000Y-97650860D01*
X143046148Y-97561843D01*
X143000070Y-97482033D01*
X142964975Y-97446938D01*
X144510000Y-97446938D01*
X144510000Y-97149110D01*
X144509999Y-97149093D01*
X144503598Y-97089565D01*
X144503596Y-97089558D01*
X144453354Y-96954851D01*
X144453350Y-96954844D01*
X144367190Y-96839750D01*
X144367187Y-96839747D01*
X144309438Y-96796516D01*
X144267567Y-96740583D01*
X144262583Y-96670891D01*
X144296069Y-96609568D01*
X144309432Y-96597987D01*
X144367546Y-96554484D01*
X144453796Y-96439269D01*
X144504091Y-96304421D01*
X144510500Y-96244811D01*
X144510499Y-95149066D01*
X144504091Y-95089455D01*
X144453796Y-94954607D01*
X144453795Y-94954606D01*
X144453793Y-94954602D01*
X144402123Y-94885581D01*
X144367546Y-94839392D01*
X144309854Y-94796203D01*
X144267984Y-94740271D01*
X144263000Y-94670579D01*
X144296485Y-94609256D01*
X144309854Y-94597672D01*
X144367546Y-94554484D01*
X144453796Y-94439269D01*
X144504091Y-94304421D01*
X144510500Y-94244811D01*
X144510499Y-93149066D01*
X144504091Y-93089455D01*
X144453796Y-92954607D01*
X144453795Y-92954606D01*
X144453793Y-92954602D01*
X144367547Y-92839394D01*
X144367548Y-92839394D01*
X144367546Y-92839392D01*
X144309854Y-92796203D01*
X144267984Y-92740271D01*
X144263000Y-92670579D01*
X144296485Y-92609256D01*
X144309854Y-92597672D01*
X144367546Y-92554484D01*
X144453796Y-92439269D01*
X144504091Y-92304421D01*
X144510500Y-92244811D01*
X144510499Y-91149073D01*
X145099500Y-91149073D01*
X145099500Y-92244808D01*
X145099501Y-92244814D01*
X145105908Y-92304421D01*
X145156202Y-92439266D01*
X145156206Y-92439273D01*
X145242452Y-92554482D01*
X145242453Y-92554482D01*
X145242454Y-92554484D01*
X145271615Y-92576314D01*
X145300145Y-92597672D01*
X145342015Y-92653606D01*
X145346999Y-92723298D01*
X145313513Y-92784621D01*
X145300145Y-92796204D01*
X145242452Y-92839393D01*
X145156206Y-92954602D01*
X145156202Y-92954609D01*
X145105908Y-93089455D01*
X145099501Y-93149054D01*
X145099501Y-93149061D01*
X145099500Y-93149073D01*
X145099500Y-94244808D01*
X145099501Y-94244814D01*
X145105908Y-94304421D01*
X145156202Y-94439266D01*
X145156206Y-94439273D01*
X145242452Y-94554482D01*
X145242453Y-94554482D01*
X145242454Y-94554484D01*
X145271615Y-94576314D01*
X145300145Y-94597672D01*
X145342015Y-94653606D01*
X145346999Y-94723298D01*
X145313513Y-94784621D01*
X145300145Y-94796204D01*
X145242452Y-94839393D01*
X145156206Y-94954602D01*
X145156202Y-94954609D01*
X145105908Y-95089455D01*
X145105161Y-95096408D01*
X145099501Y-95149061D01*
X145099500Y-95149073D01*
X145099500Y-96244808D01*
X145099501Y-96244814D01*
X145105908Y-96304421D01*
X145156202Y-96439266D01*
X145156206Y-96439273D01*
X145242452Y-96554482D01*
X145242453Y-96554482D01*
X145242454Y-96554484D01*
X145271615Y-96576314D01*
X145300145Y-96597672D01*
X145342015Y-96653606D01*
X145346999Y-96723298D01*
X145313513Y-96784621D01*
X145300145Y-96796204D01*
X145242452Y-96839393D01*
X145156206Y-96954602D01*
X145156202Y-96954609D01*
X145105908Y-97089455D01*
X145099501Y-97149054D01*
X145099501Y-97149061D01*
X145099500Y-97149073D01*
X145099500Y-98244808D01*
X145099501Y-98244814D01*
X145105908Y-98304421D01*
X145156202Y-98439266D01*
X145156206Y-98439273D01*
X145242452Y-98554482D01*
X145242453Y-98554482D01*
X145242454Y-98554484D01*
X145271615Y-98576314D01*
X145300145Y-98597672D01*
X145342015Y-98653606D01*
X145346999Y-98723298D01*
X145313513Y-98784621D01*
X145300145Y-98796204D01*
X145242452Y-98839393D01*
X145156206Y-98954602D01*
X145156202Y-98954609D01*
X145105908Y-99089455D01*
X145099501Y-99149054D01*
X145099501Y-99149061D01*
X145099500Y-99149073D01*
X145099500Y-100244808D01*
X145099501Y-100244814D01*
X145105908Y-100304421D01*
X145156202Y-100439266D01*
X145156206Y-100439273D01*
X145242452Y-100554482D01*
X145242453Y-100554482D01*
X145242454Y-100554484D01*
X145271615Y-100576314D01*
X145300145Y-100597672D01*
X145342015Y-100653606D01*
X145346999Y-100723298D01*
X145313513Y-100784621D01*
X145300145Y-100796204D01*
X145242452Y-100839393D01*
X145156206Y-100954602D01*
X145156202Y-100954609D01*
X145105908Y-101089455D01*
X145099501Y-101149054D01*
X145099501Y-101149061D01*
X145099500Y-101149073D01*
X145099500Y-102244808D01*
X145099501Y-102244814D01*
X145105908Y-102304421D01*
X145156202Y-102439266D01*
X145156206Y-102439273D01*
X145242452Y-102554482D01*
X145242453Y-102554482D01*
X145242454Y-102554484D01*
X145271615Y-102576314D01*
X145300145Y-102597672D01*
X145342015Y-102653606D01*
X145346999Y-102723298D01*
X145313513Y-102784621D01*
X145300145Y-102796204D01*
X145242452Y-102839393D01*
X145156206Y-102954602D01*
X145156202Y-102954609D01*
X145105908Y-103089455D01*
X145099501Y-103149054D01*
X145099501Y-103149061D01*
X145099500Y-103149073D01*
X145099500Y-104244808D01*
X145099501Y-104244814D01*
X145105908Y-104304421D01*
X145156202Y-104439266D01*
X145156206Y-104439273D01*
X145242452Y-104554482D01*
X145242453Y-104554482D01*
X145242454Y-104554484D01*
X145271615Y-104576314D01*
X145300145Y-104597672D01*
X145342015Y-104653606D01*
X145346999Y-104723298D01*
X145313513Y-104784621D01*
X145300145Y-104796204D01*
X145242452Y-104839393D01*
X145156206Y-104954602D01*
X145156202Y-104954609D01*
X145105908Y-105089455D01*
X145099501Y-105149054D01*
X145099501Y-105149061D01*
X145099500Y-105149073D01*
X145099500Y-106244808D01*
X145099501Y-106244814D01*
X145105908Y-106304421D01*
X145156202Y-106439266D01*
X145156206Y-106439273D01*
X145242452Y-106554482D01*
X145242453Y-106554482D01*
X145242454Y-106554484D01*
X145277727Y-106580889D01*
X145300562Y-106597984D01*
X145342432Y-106653918D01*
X145347416Y-106723610D01*
X145313930Y-106784932D01*
X145300562Y-106796516D01*
X145242809Y-106839750D01*
X145156649Y-106954844D01*
X145156645Y-106954851D01*
X145106403Y-107089558D01*
X145106401Y-107089565D01*
X145100000Y-107149093D01*
X145100000Y-107446938D01*
X146645025Y-107446938D01*
X146609930Y-107482033D01*
X146563852Y-107561843D01*
X146540000Y-107650860D01*
X146540000Y-107743016D01*
X146563852Y-107832033D01*
X146609930Y-107911843D01*
X146675095Y-107977008D01*
X146754905Y-108023086D01*
X146843922Y-108046938D01*
X146936078Y-108046938D01*
X147025095Y-108023086D01*
X147104905Y-107977008D01*
X147140000Y-107941913D01*
X147140000Y-109451963D01*
X147104905Y-109416868D01*
X147025095Y-109370790D01*
X146936078Y-109346938D01*
X146843922Y-109346938D01*
X146754905Y-109370790D01*
X146675095Y-109416868D01*
X146609930Y-109482033D01*
X146563852Y-109561843D01*
X146540000Y-109650860D01*
X146540000Y-109743016D01*
X146563852Y-109832033D01*
X146609930Y-109911843D01*
X146675095Y-109977008D01*
X146754905Y-110023086D01*
X146843922Y-110046938D01*
X146936078Y-110046938D01*
X147025095Y-110023086D01*
X147104905Y-109977008D01*
X147140000Y-109941913D01*
X147140000Y-110696938D01*
X148227828Y-110696938D01*
X148227844Y-110696937D01*
X148287372Y-110690536D01*
X148287379Y-110690534D01*
X148422086Y-110640292D01*
X148422093Y-110640288D01*
X148537187Y-110554128D01*
X148537190Y-110554125D01*
X148623350Y-110439031D01*
X148623354Y-110439024D01*
X148673596Y-110304317D01*
X148673598Y-110304310D01*
X148679999Y-110244782D01*
X148680000Y-110244765D01*
X148680000Y-109877210D01*
X148699685Y-109810171D01*
X148752489Y-109764416D01*
X148821647Y-109754472D01*
X148885203Y-109783497D01*
X148921483Y-109837540D01*
X148930641Y-109864664D01*
X148930642Y-109864665D01*
X148930643Y-109864668D01*
X149035450Y-110066525D01*
X149050966Y-110096408D01*
X149205244Y-110307051D01*
X149205248Y-110307056D01*
X149389881Y-110491689D01*
X149389886Y-110491693D01*
X149600529Y-110645971D01*
X149600532Y-110645972D01*
X149600534Y-110645974D01*
X149832270Y-110766295D01*
X150079657Y-110849831D01*
X150336896Y-110894625D01*
X150395590Y-110897438D01*
X150395607Y-110897438D01*
X150604393Y-110897438D01*
X150604410Y-110897438D01*
X150663104Y-110894625D01*
X150920343Y-110849831D01*
X151167730Y-110766295D01*
X151399466Y-110645974D01*
X151610119Y-110491689D01*
X151794751Y-110307057D01*
X151949036Y-110096404D01*
X152069357Y-109864668D01*
X152152893Y-109617281D01*
X152197687Y-109360042D01*
X152200500Y-109301348D01*
X152200500Y-107092528D01*
X152200499Y-107092514D01*
X177799500Y-107092514D01*
X177799500Y-109301361D01*
X177801685Y-109346938D01*
X177802313Y-109360042D01*
X177817445Y-109446938D01*
X177847107Y-109617281D01*
X177847107Y-109617282D01*
X177888875Y-109740974D01*
X177930643Y-109864668D01*
X178035450Y-110066525D01*
X178050966Y-110096408D01*
X178205244Y-110307051D01*
X178205248Y-110307056D01*
X178389881Y-110491689D01*
X178389886Y-110491693D01*
X178600529Y-110645971D01*
X178600532Y-110645972D01*
X178600534Y-110645974D01*
X178832270Y-110766295D01*
X179079657Y-110849831D01*
X179336896Y-110894625D01*
X179395590Y-110897438D01*
X179395607Y-110897438D01*
X179604393Y-110897438D01*
X179604410Y-110897438D01*
X179663104Y-110894625D01*
X179920343Y-110849831D01*
X180167730Y-110766295D01*
X180399466Y-110645974D01*
X180610119Y-110491689D01*
X180794751Y-110307057D01*
X180949036Y-110096404D01*
X181069357Y-109864668D01*
X181078018Y-109839017D01*
X181118112Y-109781802D01*
X181182779Y-109755343D01*
X181251484Y-109768046D01*
X181302415Y-109815877D01*
X181319500Y-109878689D01*
X181319500Y-110244807D01*
X181319501Y-110244814D01*
X181325908Y-110304421D01*
X181376202Y-110439266D01*
X181376206Y-110439273D01*
X181462452Y-110554482D01*
X181462455Y-110554485D01*
X181577664Y-110640731D01*
X181577671Y-110640735D01*
X181712517Y-110691029D01*
X181712516Y-110691029D01*
X181719444Y-110691773D01*
X181772127Y-110697438D01*
X184447872Y-110697437D01*
X184507483Y-110691029D01*
X184642331Y-110640734D01*
X184757546Y-110554484D01*
X184843796Y-110439269D01*
X184894091Y-110304421D01*
X184900500Y-110244811D01*
X184900499Y-109149066D01*
X184894091Y-109089455D01*
X184843884Y-108954844D01*
X184843797Y-108954609D01*
X184843793Y-108954602D01*
X184792123Y-108885581D01*
X184757546Y-108839392D01*
X184699854Y-108796203D01*
X184657984Y-108740271D01*
X184653000Y-108670579D01*
X184686485Y-108609256D01*
X184699854Y-108597672D01*
X184757546Y-108554484D01*
X184843796Y-108439269D01*
X184894091Y-108304421D01*
X184900500Y-108244811D01*
X184900499Y-107149073D01*
X185489500Y-107149073D01*
X185489500Y-108244808D01*
X185489501Y-108244814D01*
X185495908Y-108304421D01*
X185546202Y-108439266D01*
X185546206Y-108439273D01*
X185632452Y-108554482D01*
X185632453Y-108554482D01*
X185632454Y-108554484D01*
X185661615Y-108576314D01*
X185690145Y-108597672D01*
X185732015Y-108653606D01*
X185736999Y-108723298D01*
X185703513Y-108784621D01*
X185690145Y-108796204D01*
X185632452Y-108839393D01*
X185546206Y-108954602D01*
X185546202Y-108954609D01*
X185495908Y-109089455D01*
X185489501Y-109149054D01*
X185489501Y-109149061D01*
X185489500Y-109149073D01*
X185489500Y-110244808D01*
X185489501Y-110244814D01*
X185495908Y-110304421D01*
X185546202Y-110439266D01*
X185546206Y-110439273D01*
X185632452Y-110554482D01*
X185632455Y-110554485D01*
X185747664Y-110640731D01*
X185747671Y-110640735D01*
X185882517Y-110691029D01*
X185882516Y-110691029D01*
X185889444Y-110691773D01*
X185942127Y-110697438D01*
X188617872Y-110697437D01*
X188677483Y-110691029D01*
X188812331Y-110640734D01*
X188927546Y-110554484D01*
X189013796Y-110439269D01*
X189064091Y-110304421D01*
X189070500Y-110244811D01*
X189070499Y-109149066D01*
X189064091Y-109089455D01*
X189013884Y-108954844D01*
X189013797Y-108954609D01*
X189013793Y-108954602D01*
X188962123Y-108885581D01*
X188927546Y-108839392D01*
X188869854Y-108796203D01*
X188827984Y-108740271D01*
X188823000Y-108670579D01*
X188856485Y-108609256D01*
X188869854Y-108597672D01*
X188927546Y-108554484D01*
X189013796Y-108439269D01*
X189064091Y-108304421D01*
X189070500Y-108244811D01*
X189070499Y-107149066D01*
X189064091Y-107089455D01*
X189043346Y-107033836D01*
X189013797Y-106954609D01*
X189013793Y-106954602D01*
X188927547Y-106839393D01*
X188927544Y-106839391D01*
X188909909Y-106826189D01*
X188869437Y-106795891D01*
X188827567Y-106739957D01*
X188822583Y-106670265D01*
X188856069Y-106608942D01*
X188869439Y-106597358D01*
X188927189Y-106554126D01*
X188927190Y-106554125D01*
X189013350Y-106439031D01*
X189013354Y-106439024D01*
X189063596Y-106304317D01*
X189063598Y-106304310D01*
X189069999Y-106244782D01*
X189070000Y-106244765D01*
X189070000Y-105946938D01*
X187524975Y-105946938D01*
X187560070Y-105911843D01*
X187606148Y-105832033D01*
X187630000Y-105743016D01*
X187630000Y-105650860D01*
X187606148Y-105561843D01*
X187560070Y-105482033D01*
X187524975Y-105446938D01*
X187530000Y-105446938D01*
X189070000Y-105446938D01*
X189070000Y-105149110D01*
X189069999Y-105149093D01*
X189063598Y-105089565D01*
X189063596Y-105089558D01*
X189013354Y-104954851D01*
X189013350Y-104954844D01*
X188927190Y-104839751D01*
X188869021Y-104796205D01*
X188827150Y-104740271D01*
X188822166Y-104670579D01*
X188855651Y-104609256D01*
X188869021Y-104597671D01*
X188927190Y-104554124D01*
X189013350Y-104439031D01*
X189013354Y-104439024D01*
X189063596Y-104304317D01*
X189063598Y-104304310D01*
X189069999Y-104244782D01*
X189070000Y-104244765D01*
X189070000Y-103946938D01*
X187530000Y-103946938D01*
X187530000Y-105446938D01*
X187524975Y-105446938D01*
X187494905Y-105416868D01*
X187415095Y-105370790D01*
X187326078Y-105346938D01*
X187233922Y-105346938D01*
X187144905Y-105370790D01*
X187065095Y-105416868D01*
X186999930Y-105482033D01*
X186953852Y-105561843D01*
X186930000Y-105650860D01*
X186930000Y-105743016D01*
X186953852Y-105832033D01*
X186999930Y-105911843D01*
X187035025Y-105946938D01*
X185490000Y-105946938D01*
X185490000Y-106244782D01*
X185496401Y-106304310D01*
X185496403Y-106304317D01*
X185546645Y-106439024D01*
X185546649Y-106439031D01*
X185632809Y-106554124D01*
X185690561Y-106597358D01*
X185732432Y-106653292D01*
X185737416Y-106722984D01*
X185703931Y-106784307D01*
X185690563Y-106795890D01*
X185632454Y-106839391D01*
X185632452Y-106839393D01*
X185546206Y-106954602D01*
X185546202Y-106954609D01*
X185495908Y-107089455D01*
X185489501Y-107149054D01*
X185489501Y-107149061D01*
X185489500Y-107149073D01*
X184900499Y-107149073D01*
X184900499Y-107149066D01*
X184894091Y-107089455D01*
X184873346Y-107033836D01*
X184843797Y-106954609D01*
X184843793Y-106954602D01*
X184757547Y-106839393D01*
X184757544Y-106839391D01*
X184739909Y-106826189D01*
X184699437Y-106795891D01*
X184657567Y-106739957D01*
X184652583Y-106670265D01*
X184686069Y-106608942D01*
X184699439Y-106597358D01*
X184757189Y-106554126D01*
X184757190Y-106554125D01*
X184843350Y-106439031D01*
X184843354Y-106439024D01*
X184893596Y-106304317D01*
X184893598Y-106304310D01*
X184899999Y-106244782D01*
X184900000Y-106244765D01*
X184900000Y-105946938D01*
X183354975Y-105946938D01*
X183390070Y-105911843D01*
X183436148Y-105832033D01*
X183460000Y-105743016D01*
X183460000Y-105650860D01*
X183436148Y-105561843D01*
X183390070Y-105482033D01*
X183354975Y-105446938D01*
X183360000Y-105446938D01*
X184900000Y-105446938D01*
X184900000Y-105149110D01*
X184899999Y-105149093D01*
X184893598Y-105089565D01*
X184893596Y-105089558D01*
X184843354Y-104954851D01*
X184843350Y-104954844D01*
X184757190Y-104839751D01*
X184699021Y-104796205D01*
X184657150Y-104740271D01*
X184652166Y-104670579D01*
X184685651Y-104609256D01*
X184699021Y-104597671D01*
X184757190Y-104554124D01*
X184843350Y-104439031D01*
X184843354Y-104439024D01*
X184893596Y-104304317D01*
X184893598Y-104304310D01*
X184899999Y-104244782D01*
X185490000Y-104244782D01*
X185496401Y-104304310D01*
X185496403Y-104304317D01*
X185546645Y-104439024D01*
X185546649Y-104439031D01*
X185632809Y-104554125D01*
X185690979Y-104597672D01*
X185732849Y-104653606D01*
X185737833Y-104723298D01*
X185704347Y-104784621D01*
X185690979Y-104796204D01*
X185632809Y-104839750D01*
X185546649Y-104954844D01*
X185546645Y-104954851D01*
X185496403Y-105089558D01*
X185496401Y-105089565D01*
X185490000Y-105149093D01*
X185490000Y-105446938D01*
X187030000Y-105446938D01*
X187030000Y-103946938D01*
X185490000Y-103946938D01*
X185490000Y-104244782D01*
X184899999Y-104244782D01*
X184900000Y-104244765D01*
X184900000Y-103946938D01*
X183360000Y-103946938D01*
X183360000Y-105446938D01*
X183354975Y-105446938D01*
X183324905Y-105416868D01*
X183245095Y-105370790D01*
X183156078Y-105346938D01*
X183063922Y-105346938D01*
X182974905Y-105370790D01*
X182895095Y-105416868D01*
X182829930Y-105482033D01*
X182783852Y-105561843D01*
X182760000Y-105650860D01*
X182760000Y-105743016D01*
X182783852Y-105832033D01*
X182829930Y-105911843D01*
X182865025Y-105946938D01*
X181320000Y-105946938D01*
X181320000Y-106244782D01*
X181326401Y-106304310D01*
X181326403Y-106304317D01*
X181376645Y-106439024D01*
X181376649Y-106439031D01*
X181462809Y-106554124D01*
X181520561Y-106597358D01*
X181562432Y-106653292D01*
X181567416Y-106722984D01*
X181536381Y-106781786D01*
X181529071Y-106789522D01*
X181462454Y-106839392D01*
X181388079Y-106938743D01*
X181383196Y-106943912D01*
X181358907Y-106958082D01*
X181336397Y-106974933D01*
X181329135Y-106975452D01*
X181322847Y-106979121D01*
X181294756Y-106977910D01*
X181266705Y-106979917D01*
X181260314Y-106976427D01*
X181253042Y-106976114D01*
X181230066Y-106959909D01*
X181205382Y-106946431D01*
X181201892Y-106940040D01*
X181195944Y-106935845D01*
X181185375Y-106909789D01*
X181171898Y-106885107D01*
X181170903Y-106880024D01*
X181163890Y-106839750D01*
X181152893Y-106776595D01*
X181069357Y-106529208D01*
X180949036Y-106297472D01*
X180949034Y-106297470D01*
X180949033Y-106297467D01*
X180794755Y-106086824D01*
X180794751Y-106086819D01*
X180610118Y-105902186D01*
X180610113Y-105902182D01*
X180399470Y-105747904D01*
X180369587Y-105732388D01*
X180167730Y-105627581D01*
X179920343Y-105544045D01*
X179663104Y-105499251D01*
X179652098Y-105498723D01*
X179604423Y-105496438D01*
X179604410Y-105496438D01*
X179395590Y-105496438D01*
X179395576Y-105496438D01*
X179344232Y-105498899D01*
X179336896Y-105499251D01*
X179165403Y-105529113D01*
X179079656Y-105544045D01*
X179079655Y-105544045D01*
X178832270Y-105627581D01*
X178600529Y-105747904D01*
X178389886Y-105902182D01*
X178389881Y-105902186D01*
X178205248Y-106086819D01*
X178205244Y-106086824D01*
X178050966Y-106297467D01*
X177930643Y-106529208D01*
X177847107Y-106776593D01*
X177847107Y-106776594D01*
X177847107Y-106776595D01*
X177811841Y-106979121D01*
X177802313Y-107033836D01*
X177799500Y-107092514D01*
X152200499Y-107092514D01*
X152197687Y-107033834D01*
X152152893Y-106776595D01*
X152069357Y-106529208D01*
X151949036Y-106297472D01*
X151949034Y-106297470D01*
X151949033Y-106297467D01*
X151794755Y-106086824D01*
X151794751Y-106086819D01*
X151610118Y-105902186D01*
X151610113Y-105902182D01*
X151399470Y-105747904D01*
X151369587Y-105732388D01*
X151167730Y-105627581D01*
X150920343Y-105544045D01*
X150663104Y-105499251D01*
X150652098Y-105498723D01*
X150604423Y-105496438D01*
X150604410Y-105496438D01*
X150395590Y-105496438D01*
X150395576Y-105496438D01*
X150344232Y-105498899D01*
X150336896Y-105499251D01*
X150165403Y-105529113D01*
X150079656Y-105544045D01*
X150079655Y-105544045D01*
X149832270Y-105627581D01*
X149600529Y-105747904D01*
X149389886Y-105902182D01*
X149389881Y-105902186D01*
X149205248Y-106086819D01*
X149205244Y-106086824D01*
X149050966Y-106297467D01*
X148930643Y-106529208D01*
X148847107Y-106776593D01*
X148847107Y-106776594D01*
X148828979Y-106880701D01*
X148823043Y-106892741D01*
X148821699Y-106906100D01*
X148807894Y-106923471D01*
X148798085Y-106943369D01*
X148786581Y-106950289D01*
X148778229Y-106960800D01*
X148757224Y-106967950D01*
X148738214Y-106979387D01*
X148724795Y-106978989D01*
X148712087Y-106983316D01*
X148690553Y-106977975D01*
X148668375Y-106977319D01*
X148655814Y-106969360D01*
X148644271Y-106966498D01*
X148627052Y-106951137D01*
X148616640Y-106944540D01*
X148463572Y-106782362D01*
X148452367Y-106760353D01*
X148437567Y-106740583D01*
X148436793Y-106729763D01*
X148431872Y-106720097D01*
X148434344Y-106695523D01*
X148432583Y-106670891D01*
X148437780Y-106661372D01*
X148438867Y-106650578D01*
X148454234Y-106631240D01*
X148466069Y-106609568D01*
X148479432Y-106597987D01*
X148537546Y-106554484D01*
X148623796Y-106439269D01*
X148674091Y-106304421D01*
X148680500Y-106244811D01*
X148680499Y-105149066D01*
X148674091Y-105089455D01*
X148623884Y-104954844D01*
X148623797Y-104954609D01*
X148623793Y-104954602D01*
X148572123Y-104885581D01*
X148537546Y-104839392D01*
X148479854Y-104796203D01*
X148437984Y-104740271D01*
X148433000Y-104670579D01*
X148466485Y-104609256D01*
X148479854Y-104597672D01*
X148537546Y-104554484D01*
X148623796Y-104439269D01*
X148674091Y-104304421D01*
X148680500Y-104244811D01*
X148680499Y-103618091D01*
X161349500Y-103618091D01*
X161349500Y-103775784D01*
X161380261Y-103930427D01*
X161380264Y-103930439D01*
X161440602Y-104076110D01*
X161440609Y-104076123D01*
X161528210Y-104207226D01*
X161528213Y-104207230D01*
X161639707Y-104318724D01*
X161639711Y-104318727D01*
X161770814Y-104406328D01*
X161770827Y-104406335D01*
X161850348Y-104439273D01*
X161916503Y-104466675D01*
X162071153Y-104497437D01*
X162071156Y-104497438D01*
X162071158Y-104497438D01*
X162228844Y-104497438D01*
X162228845Y-104497437D01*
X162383497Y-104466675D01*
X162529179Y-104406332D01*
X162660289Y-104318727D01*
X162734234Y-104244782D01*
X181320000Y-104244782D01*
X181326401Y-104304310D01*
X181326403Y-104304317D01*
X181376645Y-104439024D01*
X181376649Y-104439031D01*
X181462809Y-104554125D01*
X181520979Y-104597672D01*
X181562849Y-104653606D01*
X181567833Y-104723298D01*
X181534347Y-104784621D01*
X181520979Y-104796204D01*
X181462809Y-104839750D01*
X181376649Y-104954844D01*
X181376645Y-104954851D01*
X181326403Y-105089558D01*
X181326401Y-105089565D01*
X181320000Y-105149093D01*
X181320000Y-105446938D01*
X182860000Y-105446938D01*
X182860000Y-103946938D01*
X181320000Y-103946938D01*
X181320000Y-104244782D01*
X162734234Y-104244782D01*
X162771789Y-104207227D01*
X162859394Y-104076117D01*
X162919737Y-103930435D01*
X162939311Y-103832033D01*
X162950500Y-103775782D01*
X162950500Y-103618093D01*
X162950499Y-103618091D01*
X162919737Y-103463441D01*
X162881360Y-103370790D01*
X162859397Y-103317765D01*
X162859390Y-103317752D01*
X162771789Y-103186649D01*
X162771786Y-103186645D01*
X162660292Y-103075151D01*
X162660288Y-103075148D01*
X162529185Y-102987547D01*
X162529172Y-102987540D01*
X162383501Y-102927202D01*
X162383489Y-102927199D01*
X162228845Y-102896438D01*
X162228842Y-102896438D01*
X162071158Y-102896438D01*
X162071155Y-102896438D01*
X161916510Y-102927199D01*
X161916498Y-102927202D01*
X161770827Y-102987540D01*
X161770814Y-102987547D01*
X161639711Y-103075148D01*
X161639707Y-103075151D01*
X161528213Y-103186645D01*
X161528210Y-103186649D01*
X161440609Y-103317752D01*
X161440602Y-103317765D01*
X161380264Y-103463436D01*
X161380261Y-103463448D01*
X161349500Y-103618091D01*
X148680499Y-103618091D01*
X148680499Y-103149066D01*
X148674091Y-103089455D01*
X148668755Y-103075149D01*
X148623797Y-102954609D01*
X148623793Y-102954602D01*
X148537814Y-102839750D01*
X148537546Y-102839392D01*
X148479854Y-102796203D01*
X148437984Y-102740271D01*
X148433000Y-102670579D01*
X148466485Y-102609256D01*
X148479854Y-102597672D01*
X148537546Y-102554484D01*
X148623796Y-102439269D01*
X148674091Y-102304421D01*
X148680500Y-102244811D01*
X148680499Y-101149066D01*
X148674091Y-101089455D01*
X148623796Y-100954607D01*
X148623795Y-100954606D01*
X148623793Y-100954602D01*
X148537547Y-100839394D01*
X148537548Y-100839394D01*
X148537546Y-100839392D01*
X148479854Y-100796203D01*
X148437984Y-100740271D01*
X148433000Y-100670579D01*
X148466485Y-100609256D01*
X148479854Y-100597672D01*
X148537546Y-100554484D01*
X148623796Y-100439269D01*
X148674091Y-100304421D01*
X148680500Y-100244811D01*
X148680499Y-99149066D01*
X148674091Y-99089455D01*
X148623884Y-98954844D01*
X148623797Y-98954609D01*
X148623793Y-98954602D01*
X148572123Y-98885581D01*
X148537546Y-98839392D01*
X148479854Y-98796203D01*
X148437984Y-98740271D01*
X148433000Y-98670579D01*
X148466485Y-98609256D01*
X148479854Y-98597672D01*
X148537546Y-98554484D01*
X148623796Y-98439269D01*
X148674091Y-98304421D01*
X148680500Y-98244811D01*
X148680499Y-97618091D01*
X167049500Y-97618091D01*
X167049500Y-97775784D01*
X167080261Y-97930427D01*
X167080264Y-97930439D01*
X167140602Y-98076110D01*
X167140609Y-98076123D01*
X167228210Y-98207226D01*
X167228213Y-98207230D01*
X167339707Y-98318724D01*
X167339711Y-98318727D01*
X167470814Y-98406328D01*
X167470827Y-98406335D01*
X167550348Y-98439273D01*
X167616503Y-98466675D01*
X167771153Y-98497437D01*
X167771156Y-98497438D01*
X167771158Y-98497438D01*
X167928844Y-98497438D01*
X167928845Y-98497437D01*
X168083497Y-98466675D01*
X168229179Y-98406332D01*
X168360289Y-98318727D01*
X168471789Y-98207227D01*
X168559394Y-98076117D01*
X168619737Y-97930435D01*
X168650500Y-97775780D01*
X168650500Y-97618096D01*
X168650500Y-97618093D01*
X168650499Y-97618091D01*
X168619737Y-97463441D01*
X168581360Y-97370790D01*
X168559397Y-97317765D01*
X168559390Y-97317752D01*
X168471789Y-97186649D01*
X168471786Y-97186645D01*
X168360292Y-97075151D01*
X168360288Y-97075148D01*
X168229185Y-96987547D01*
X168229172Y-96987540D01*
X168083501Y-96927202D01*
X168083489Y-96927199D01*
X167928845Y-96896438D01*
X167928842Y-96896438D01*
X167771158Y-96896438D01*
X167771155Y-96896438D01*
X167616510Y-96927199D01*
X167616498Y-96927202D01*
X167470827Y-96987540D01*
X167470814Y-96987547D01*
X167339711Y-97075148D01*
X167339707Y-97075151D01*
X167228213Y-97186645D01*
X167228210Y-97186649D01*
X167140609Y-97317752D01*
X167140602Y-97317765D01*
X167080264Y-97463436D01*
X167080261Y-97463448D01*
X167049500Y-97618091D01*
X148680499Y-97618091D01*
X148680499Y-97149066D01*
X148674091Y-97089455D01*
X148668755Y-97075149D01*
X148623797Y-96954609D01*
X148623793Y-96954602D01*
X148537814Y-96839750D01*
X148537546Y-96839392D01*
X148479854Y-96796203D01*
X148437984Y-96740271D01*
X148433000Y-96670579D01*
X148466485Y-96609256D01*
X148479854Y-96597672D01*
X148537546Y-96554484D01*
X148623796Y-96439269D01*
X148674091Y-96304421D01*
X148680500Y-96244811D01*
X148680499Y-95149066D01*
X148674091Y-95089455D01*
X148623796Y-94954607D01*
X148623795Y-94954606D01*
X148623793Y-94954602D01*
X148572123Y-94885581D01*
X148537546Y-94839392D01*
X148479854Y-94796203D01*
X148437984Y-94740271D01*
X148433000Y-94670579D01*
X148464001Y-94611813D01*
X148471319Y-94604061D01*
X148537546Y-94554484D01*
X148611913Y-94455142D01*
X148616769Y-94449999D01*
X148641072Y-94435806D01*
X148663601Y-94418942D01*
X148670837Y-94418424D01*
X148677104Y-94414765D01*
X148705222Y-94415965D01*
X148733292Y-94413958D01*
X148739660Y-94417435D01*
X148746910Y-94417745D01*
X148769913Y-94433954D01*
X148794616Y-94447443D01*
X148798093Y-94453812D01*
X148804024Y-94457991D01*
X148814613Y-94484065D01*
X148828100Y-94508766D01*
X148829096Y-94513850D01*
X148847107Y-94617281D01*
X148930643Y-94864668D01*
X148977338Y-94954602D01*
X149050966Y-95096408D01*
X149205244Y-95307051D01*
X149205248Y-95307056D01*
X149389881Y-95491689D01*
X149389886Y-95491693D01*
X149600529Y-95645971D01*
X149600532Y-95645972D01*
X149600534Y-95645974D01*
X149832270Y-95766295D01*
X150079657Y-95849831D01*
X150336896Y-95894625D01*
X150395590Y-95897438D01*
X150395607Y-95897438D01*
X150604393Y-95897438D01*
X150604410Y-95897438D01*
X150663104Y-95894625D01*
X150920343Y-95849831D01*
X151167730Y-95766295D01*
X151399466Y-95645974D01*
X151610119Y-95491689D01*
X151794751Y-95307057D01*
X151949036Y-95096404D01*
X152069357Y-94864668D01*
X152152893Y-94617281D01*
X152197687Y-94360042D01*
X152200500Y-94301348D01*
X152200500Y-92092528D01*
X152200499Y-92092514D01*
X177799500Y-92092514D01*
X177799500Y-94301361D01*
X177799647Y-94304420D01*
X177802313Y-94360042D01*
X177847107Y-94617281D01*
X177930643Y-94864668D01*
X177977338Y-94954602D01*
X178050966Y-95096408D01*
X178205244Y-95307051D01*
X178205248Y-95307056D01*
X178389881Y-95491689D01*
X178389886Y-95491693D01*
X178600529Y-95645971D01*
X178600532Y-95645972D01*
X178600534Y-95645974D01*
X178832270Y-95766295D01*
X179079657Y-95849831D01*
X179336896Y-95894625D01*
X179395590Y-95897438D01*
X179395607Y-95897438D01*
X179604393Y-95897438D01*
X179604410Y-95897438D01*
X179663104Y-95894625D01*
X179920343Y-95849831D01*
X180167730Y-95766295D01*
X180399466Y-95645974D01*
X180610119Y-95491689D01*
X180794751Y-95307057D01*
X180949036Y-95096404D01*
X181069357Y-94864668D01*
X181152893Y-94617281D01*
X181170904Y-94513848D01*
X181176835Y-94501816D01*
X181178177Y-94488469D01*
X181191982Y-94471091D01*
X181201797Y-94451183D01*
X181213293Y-94444266D01*
X181221639Y-94433762D01*
X181242647Y-94426607D01*
X181261667Y-94415165D01*
X181275078Y-94415562D01*
X181287778Y-94411237D01*
X181309320Y-94416576D01*
X181331506Y-94417233D01*
X181344060Y-94425186D01*
X181355596Y-94428045D01*
X181372802Y-94443393D01*
X181383230Y-94449999D01*
X181388090Y-94455147D01*
X181462454Y-94554484D01*
X181528677Y-94604058D01*
X181535998Y-94611813D01*
X181547210Y-94633828D01*
X181562015Y-94653606D01*
X181562788Y-94664415D01*
X181567707Y-94674074D01*
X181565236Y-94698656D01*
X181566999Y-94723298D01*
X181561804Y-94732810D01*
X181560721Y-94743593D01*
X181545355Y-94762934D01*
X181533513Y-94784621D01*
X181520145Y-94796204D01*
X181462452Y-94839393D01*
X181376206Y-94954602D01*
X181376202Y-94954609D01*
X181325908Y-95089455D01*
X181325161Y-95096408D01*
X181319501Y-95149061D01*
X181319500Y-95149073D01*
X181319500Y-96244808D01*
X181319501Y-96244814D01*
X181325908Y-96304421D01*
X181376202Y-96439266D01*
X181376206Y-96439273D01*
X181462452Y-96554482D01*
X181462453Y-96554482D01*
X181462454Y-96554484D01*
X181491615Y-96576314D01*
X181520145Y-96597672D01*
X181562015Y-96653606D01*
X181566999Y-96723298D01*
X181533513Y-96784621D01*
X181520145Y-96796204D01*
X181462452Y-96839393D01*
X181376206Y-96954602D01*
X181376202Y-96954609D01*
X181325908Y-97089455D01*
X181319501Y-97149054D01*
X181319501Y-97149061D01*
X181319500Y-97149073D01*
X181319500Y-98244808D01*
X181319501Y-98244814D01*
X181325908Y-98304421D01*
X181376202Y-98439266D01*
X181376206Y-98439273D01*
X181462452Y-98554482D01*
X181462453Y-98554482D01*
X181462454Y-98554484D01*
X181491615Y-98576314D01*
X181520145Y-98597672D01*
X181562015Y-98653606D01*
X181566999Y-98723298D01*
X181533513Y-98784621D01*
X181520145Y-98796204D01*
X181462452Y-98839393D01*
X181376206Y-98954602D01*
X181376202Y-98954609D01*
X181325908Y-99089455D01*
X181319501Y-99149054D01*
X181319501Y-99149061D01*
X181319500Y-99149073D01*
X181319500Y-100244808D01*
X181319501Y-100244814D01*
X181325908Y-100304421D01*
X181376202Y-100439266D01*
X181376206Y-100439273D01*
X181462452Y-100554482D01*
X181462453Y-100554482D01*
X181462454Y-100554484D01*
X181491615Y-100576314D01*
X181520145Y-100597672D01*
X181562015Y-100653606D01*
X181566999Y-100723298D01*
X181533513Y-100784621D01*
X181520145Y-100796204D01*
X181462452Y-100839393D01*
X181376206Y-100954602D01*
X181376202Y-100954609D01*
X181325908Y-101089455D01*
X181319501Y-101149054D01*
X181319501Y-101149061D01*
X181319500Y-101149073D01*
X181319500Y-102244808D01*
X181319501Y-102244814D01*
X181325908Y-102304421D01*
X181376202Y-102439266D01*
X181376206Y-102439273D01*
X181462452Y-102554482D01*
X181462453Y-102554482D01*
X181462454Y-102554484D01*
X181497727Y-102580889D01*
X181520562Y-102597984D01*
X181562432Y-102653918D01*
X181567416Y-102723610D01*
X181533930Y-102784932D01*
X181520562Y-102796516D01*
X181462809Y-102839750D01*
X181376649Y-102954844D01*
X181376645Y-102954851D01*
X181326403Y-103089558D01*
X181326401Y-103089565D01*
X181320000Y-103149093D01*
X181320000Y-103446938D01*
X182865025Y-103446938D01*
X182829930Y-103482033D01*
X182783852Y-103561843D01*
X182760000Y-103650860D01*
X182760000Y-103743016D01*
X182783852Y-103832033D01*
X182829930Y-103911843D01*
X182895095Y-103977008D01*
X182974905Y-104023086D01*
X183063922Y-104046938D01*
X183156078Y-104046938D01*
X183245095Y-104023086D01*
X183324905Y-103977008D01*
X183390070Y-103911843D01*
X183436148Y-103832033D01*
X183460000Y-103743016D01*
X183460000Y-103650860D01*
X183436148Y-103561843D01*
X183390070Y-103482033D01*
X183354975Y-103446938D01*
X184900000Y-103446938D01*
X184900000Y-103149110D01*
X184899999Y-103149093D01*
X184893598Y-103089565D01*
X184893596Y-103089558D01*
X184843354Y-102954851D01*
X184843350Y-102954844D01*
X184757190Y-102839750D01*
X184757187Y-102839747D01*
X184699438Y-102796516D01*
X184657567Y-102740583D01*
X184652583Y-102670891D01*
X184686069Y-102609568D01*
X184699432Y-102597987D01*
X184757546Y-102554484D01*
X184843796Y-102439269D01*
X184894091Y-102304421D01*
X184900500Y-102244811D01*
X184900499Y-101149066D01*
X184894091Y-101089455D01*
X184843796Y-100954607D01*
X184843795Y-100954606D01*
X184843793Y-100954602D01*
X184757547Y-100839394D01*
X184757548Y-100839394D01*
X184757546Y-100839392D01*
X184699854Y-100796203D01*
X184657984Y-100740271D01*
X184653000Y-100670579D01*
X184686485Y-100609256D01*
X184699854Y-100597672D01*
X184757546Y-100554484D01*
X184843796Y-100439269D01*
X184894091Y-100304421D01*
X184900500Y-100244811D01*
X184900499Y-99149066D01*
X184894091Y-99089455D01*
X184843884Y-98954844D01*
X184843797Y-98954609D01*
X184843793Y-98954602D01*
X184792123Y-98885581D01*
X184757546Y-98839392D01*
X184699854Y-98796203D01*
X184657984Y-98740271D01*
X184653000Y-98670579D01*
X184686485Y-98609256D01*
X184699854Y-98597672D01*
X184757546Y-98554484D01*
X184843796Y-98439269D01*
X184894091Y-98304421D01*
X184900500Y-98244811D01*
X184900499Y-97149066D01*
X184894091Y-97089455D01*
X184888755Y-97075149D01*
X184843797Y-96954609D01*
X184843793Y-96954602D01*
X184757814Y-96839750D01*
X184757546Y-96839392D01*
X184699854Y-96796203D01*
X184657984Y-96740271D01*
X184653000Y-96670579D01*
X184686485Y-96609256D01*
X184699854Y-96597672D01*
X184757546Y-96554484D01*
X184843796Y-96439269D01*
X184894091Y-96304421D01*
X184900500Y-96244811D01*
X184900499Y-95149066D01*
X184894091Y-95089455D01*
X184843796Y-94954607D01*
X184843795Y-94954606D01*
X184843793Y-94954602D01*
X184792123Y-94885581D01*
X184757546Y-94839392D01*
X184699854Y-94796203D01*
X184657984Y-94740271D01*
X184653000Y-94670579D01*
X184686485Y-94609256D01*
X184699854Y-94597672D01*
X184757546Y-94554484D01*
X184843796Y-94439269D01*
X184894091Y-94304421D01*
X184900500Y-94244811D01*
X184900499Y-93149066D01*
X184894091Y-93089455D01*
X184843796Y-92954607D01*
X184843795Y-92954606D01*
X184843793Y-92954602D01*
X184757547Y-92839394D01*
X184757548Y-92839394D01*
X184757546Y-92839392D01*
X184699854Y-92796203D01*
X184657984Y-92740271D01*
X184653000Y-92670579D01*
X184686485Y-92609256D01*
X184699854Y-92597672D01*
X184757546Y-92554484D01*
X184843796Y-92439269D01*
X184894091Y-92304421D01*
X184900500Y-92244811D01*
X184900499Y-91149073D01*
X185489500Y-91149073D01*
X185489500Y-92244808D01*
X185489501Y-92244814D01*
X185495908Y-92304421D01*
X185546202Y-92439266D01*
X185546206Y-92439273D01*
X185632452Y-92554482D01*
X185632453Y-92554482D01*
X185632454Y-92554484D01*
X185661615Y-92576314D01*
X185690145Y-92597672D01*
X185732015Y-92653606D01*
X185736999Y-92723298D01*
X185703513Y-92784621D01*
X185690145Y-92796204D01*
X185632452Y-92839393D01*
X185546206Y-92954602D01*
X185546202Y-92954609D01*
X185495908Y-93089455D01*
X185489501Y-93149054D01*
X185489501Y-93149061D01*
X185489500Y-93149073D01*
X185489500Y-94244808D01*
X185489501Y-94244814D01*
X185495908Y-94304421D01*
X185546202Y-94439266D01*
X185546206Y-94439273D01*
X185632452Y-94554482D01*
X185632453Y-94554482D01*
X185632454Y-94554484D01*
X185661615Y-94576314D01*
X185690145Y-94597672D01*
X185732015Y-94653606D01*
X185736999Y-94723298D01*
X185703513Y-94784621D01*
X185690145Y-94796204D01*
X185632452Y-94839393D01*
X185546206Y-94954602D01*
X185546202Y-94954609D01*
X185495908Y-95089455D01*
X185495161Y-95096408D01*
X185489501Y-95149061D01*
X185489500Y-95149073D01*
X185489500Y-96244808D01*
X185489501Y-96244814D01*
X185495908Y-96304421D01*
X185546202Y-96439266D01*
X185546206Y-96439273D01*
X185632452Y-96554482D01*
X185632453Y-96554482D01*
X185632454Y-96554484D01*
X185661615Y-96576314D01*
X185690145Y-96597672D01*
X185732015Y-96653606D01*
X185736999Y-96723298D01*
X185703513Y-96784621D01*
X185690145Y-96796204D01*
X185632452Y-96839393D01*
X185546206Y-96954602D01*
X185546202Y-96954609D01*
X185495908Y-97089455D01*
X185489501Y-97149054D01*
X185489501Y-97149061D01*
X185489500Y-97149073D01*
X185489500Y-98244808D01*
X185489501Y-98244814D01*
X185495908Y-98304421D01*
X185546202Y-98439266D01*
X185546206Y-98439273D01*
X185632452Y-98554482D01*
X185632453Y-98554482D01*
X185632454Y-98554484D01*
X185661615Y-98576314D01*
X185690145Y-98597672D01*
X185732015Y-98653606D01*
X185736999Y-98723298D01*
X185703513Y-98784621D01*
X185690145Y-98796204D01*
X185632452Y-98839393D01*
X185546206Y-98954602D01*
X185546202Y-98954609D01*
X185495908Y-99089455D01*
X185489501Y-99149054D01*
X185489501Y-99149061D01*
X185489500Y-99149073D01*
X185489500Y-100244808D01*
X185489501Y-100244814D01*
X185495908Y-100304421D01*
X185546202Y-100439266D01*
X185546206Y-100439273D01*
X185632452Y-100554482D01*
X185632453Y-100554482D01*
X185632454Y-100554484D01*
X185661615Y-100576314D01*
X185690145Y-100597672D01*
X185732015Y-100653606D01*
X185736999Y-100723298D01*
X185703513Y-100784621D01*
X185690145Y-100796204D01*
X185632452Y-100839393D01*
X185546206Y-100954602D01*
X185546202Y-100954609D01*
X185495908Y-101089455D01*
X185489501Y-101149054D01*
X185489501Y-101149061D01*
X185489500Y-101149073D01*
X185489500Y-102244808D01*
X185489501Y-102244814D01*
X185495908Y-102304421D01*
X185546202Y-102439266D01*
X185546206Y-102439273D01*
X185632452Y-102554482D01*
X185632453Y-102554482D01*
X185632454Y-102554484D01*
X185667727Y-102580889D01*
X185690562Y-102597984D01*
X185732432Y-102653918D01*
X185737416Y-102723610D01*
X185703930Y-102784932D01*
X185690562Y-102796516D01*
X185632809Y-102839750D01*
X185546649Y-102954844D01*
X185546645Y-102954851D01*
X185496403Y-103089558D01*
X185496401Y-103089565D01*
X185490000Y-103149093D01*
X185490000Y-103446938D01*
X187035025Y-103446938D01*
X186999930Y-103482033D01*
X186953852Y-103561843D01*
X186930000Y-103650860D01*
X186930000Y-103743016D01*
X186953852Y-103832033D01*
X186999930Y-103911843D01*
X187065095Y-103977008D01*
X187144905Y-104023086D01*
X187233922Y-104046938D01*
X187326078Y-104046938D01*
X187415095Y-104023086D01*
X187494905Y-103977008D01*
X187560070Y-103911843D01*
X187606148Y-103832033D01*
X187630000Y-103743016D01*
X187630000Y-103650860D01*
X187606148Y-103561843D01*
X187560070Y-103482033D01*
X187524975Y-103446938D01*
X189070000Y-103446938D01*
X189070000Y-103149110D01*
X189069999Y-103149093D01*
X189063598Y-103089565D01*
X189063596Y-103089558D01*
X189013354Y-102954851D01*
X189013350Y-102954844D01*
X188927190Y-102839750D01*
X188927187Y-102839747D01*
X188869438Y-102796516D01*
X188827567Y-102740583D01*
X188822583Y-102670891D01*
X188856069Y-102609568D01*
X188869432Y-102597987D01*
X188927546Y-102554484D01*
X189013796Y-102439269D01*
X189064091Y-102304421D01*
X189070500Y-102244811D01*
X189070499Y-101149066D01*
X189064091Y-101089455D01*
X189013796Y-100954607D01*
X189013795Y-100954606D01*
X189013793Y-100954602D01*
X188927547Y-100839394D01*
X188927548Y-100839394D01*
X188927546Y-100839392D01*
X188869854Y-100796203D01*
X188827984Y-100740271D01*
X188823000Y-100670579D01*
X188856485Y-100609256D01*
X188869854Y-100597672D01*
X188927546Y-100554484D01*
X189013796Y-100439269D01*
X189064091Y-100304421D01*
X189070500Y-100244811D01*
X189070499Y-99149066D01*
X189064091Y-99089455D01*
X189013884Y-98954844D01*
X189013797Y-98954609D01*
X189013793Y-98954602D01*
X188962123Y-98885581D01*
X188927546Y-98839392D01*
X188869854Y-98796203D01*
X188827984Y-98740271D01*
X188823000Y-98670579D01*
X188856485Y-98609256D01*
X188869854Y-98597672D01*
X188927546Y-98554484D01*
X189013796Y-98439269D01*
X189064091Y-98304421D01*
X189070500Y-98244811D01*
X189070499Y-97149066D01*
X189064091Y-97089455D01*
X189058755Y-97075149D01*
X189013797Y-96954609D01*
X189013793Y-96954602D01*
X188927814Y-96839750D01*
X188927546Y-96839392D01*
X188869854Y-96796203D01*
X188827984Y-96740271D01*
X188823000Y-96670579D01*
X188856485Y-96609256D01*
X188869854Y-96597672D01*
X188927546Y-96554484D01*
X189013796Y-96439269D01*
X189064091Y-96304421D01*
X189070500Y-96244811D01*
X189070499Y-95149066D01*
X189064091Y-95089455D01*
X189013796Y-94954607D01*
X189013795Y-94954606D01*
X189013793Y-94954602D01*
X188962123Y-94885581D01*
X188927546Y-94839392D01*
X188869854Y-94796203D01*
X188827984Y-94740271D01*
X188823000Y-94670579D01*
X188856485Y-94609256D01*
X188869854Y-94597672D01*
X188927546Y-94554484D01*
X189013796Y-94439269D01*
X189064091Y-94304421D01*
X189070500Y-94244811D01*
X189070499Y-93149066D01*
X189064091Y-93089455D01*
X189013796Y-92954607D01*
X189013795Y-92954606D01*
X189013793Y-92954602D01*
X188927547Y-92839394D01*
X188927548Y-92839394D01*
X188927546Y-92839392D01*
X188869854Y-92796203D01*
X188827984Y-92740271D01*
X188823000Y-92670579D01*
X188856485Y-92609256D01*
X188869854Y-92597672D01*
X188927546Y-92554484D01*
X189013796Y-92439269D01*
X189064091Y-92304421D01*
X189070500Y-92244811D01*
X189070499Y-91149066D01*
X189064091Y-91089455D01*
X189063457Y-91087756D01*
X189013797Y-90954609D01*
X189013793Y-90954602D01*
X188927547Y-90839393D01*
X188927544Y-90839390D01*
X188812335Y-90753144D01*
X188812328Y-90753140D01*
X188677482Y-90702846D01*
X188677483Y-90702846D01*
X188617883Y-90696439D01*
X188617881Y-90696438D01*
X188617873Y-90696438D01*
X188617864Y-90696438D01*
X185942129Y-90696438D01*
X185942123Y-90696439D01*
X185882516Y-90702846D01*
X185747671Y-90753140D01*
X185747664Y-90753144D01*
X185632455Y-90839390D01*
X185632452Y-90839393D01*
X185546206Y-90954602D01*
X185546202Y-90954609D01*
X185495908Y-91089455D01*
X185489501Y-91149054D01*
X185489501Y-91149061D01*
X185489500Y-91149073D01*
X184900499Y-91149073D01*
X184900499Y-91149066D01*
X184894091Y-91089455D01*
X184893457Y-91087756D01*
X184843797Y-90954609D01*
X184843793Y-90954602D01*
X184757547Y-90839393D01*
X184757544Y-90839390D01*
X184642335Y-90753144D01*
X184642328Y-90753140D01*
X184507482Y-90702846D01*
X184507483Y-90702846D01*
X184447883Y-90696439D01*
X184447881Y-90696438D01*
X184447873Y-90696438D01*
X184447864Y-90696438D01*
X181772129Y-90696438D01*
X181772123Y-90696439D01*
X181712516Y-90702846D01*
X181577671Y-90753140D01*
X181577664Y-90753144D01*
X181462455Y-90839390D01*
X181462452Y-90839393D01*
X181376206Y-90954602D01*
X181376202Y-90954609D01*
X181325908Y-91089455D01*
X181319501Y-91149054D01*
X181319501Y-91149061D01*
X181319500Y-91149073D01*
X181319500Y-91515185D01*
X181299815Y-91582224D01*
X181247011Y-91627979D01*
X181177853Y-91637923D01*
X181114297Y-91608898D01*
X181078017Y-91554855D01*
X181069358Y-91529211D01*
X181069357Y-91529208D01*
X180949036Y-91297472D01*
X180949034Y-91297470D01*
X180949033Y-91297467D01*
X180794755Y-91086824D01*
X180794751Y-91086819D01*
X180610118Y-90902186D01*
X180610113Y-90902182D01*
X180399470Y-90747904D01*
X180312689Y-90702846D01*
X180167730Y-90627581D01*
X179920343Y-90544045D01*
X179663104Y-90499251D01*
X179652098Y-90498723D01*
X179604423Y-90496438D01*
X179604410Y-90496438D01*
X179395590Y-90496438D01*
X179395576Y-90496438D01*
X179344232Y-90498899D01*
X179336896Y-90499251D01*
X179189113Y-90524985D01*
X179079656Y-90544045D01*
X179079655Y-90544045D01*
X178832270Y-90627581D01*
X178600529Y-90747904D01*
X178389886Y-90902182D01*
X178389881Y-90902186D01*
X178205248Y-91086819D01*
X178205244Y-91086824D01*
X178050966Y-91297467D01*
X177930643Y-91529208D01*
X177847107Y-91776593D01*
X177847107Y-91776594D01*
X177802313Y-92033836D01*
X177799500Y-92092514D01*
X152200499Y-92092514D01*
X152197687Y-92033834D01*
X152152893Y-91776595D01*
X152069357Y-91529208D01*
X151949036Y-91297472D01*
X151949034Y-91297470D01*
X151949033Y-91297467D01*
X151794755Y-91086824D01*
X151794751Y-91086819D01*
X151610118Y-90902186D01*
X151610113Y-90902182D01*
X151399470Y-90747904D01*
X151312689Y-90702846D01*
X151167730Y-90627581D01*
X150920343Y-90544045D01*
X150663104Y-90499251D01*
X150652098Y-90498723D01*
X150604423Y-90496438D01*
X150604410Y-90496438D01*
X150499500Y-90496438D01*
X150432461Y-90476753D01*
X150386706Y-90423949D01*
X150375500Y-90372438D01*
X150375500Y-90346155D01*
X150375499Y-90346153D01*
X150344737Y-90191503D01*
X150344735Y-90191498D01*
X150284397Y-90045827D01*
X150284390Y-90045814D01*
X150196789Y-89914711D01*
X150196786Y-89914707D01*
X150085292Y-89803213D01*
X150085288Y-89803210D01*
X149954185Y-89715609D01*
X149954172Y-89715602D01*
X149808501Y-89655264D01*
X149808489Y-89655261D01*
X149653845Y-89624500D01*
X149653842Y-89624500D01*
X149496158Y-89624500D01*
X149496155Y-89624500D01*
X149341510Y-89655261D01*
X149341498Y-89655264D01*
X149195827Y-89715602D01*
X149195814Y-89715609D01*
X149064711Y-89803210D01*
X149064706Y-89803214D01*
X149033565Y-89834355D01*
X148972241Y-89867840D01*
X148902550Y-89862854D01*
X148858204Y-89834354D01*
X148772087Y-89748237D01*
X148772083Y-89748234D01*
X148640980Y-89660633D01*
X148640967Y-89660626D01*
X148495296Y-89600288D01*
X148495284Y-89600285D01*
X148340640Y-89569524D01*
X148340637Y-89569524D01*
X148182953Y-89569524D01*
X148182950Y-89569524D01*
X148028305Y-89600285D01*
X148028293Y-89600288D01*
X147892164Y-89656674D01*
X147822694Y-89664143D01*
X147797260Y-89656674D01*
X147733498Y-89630263D01*
X147733488Y-89630260D01*
X147578845Y-89599500D01*
X147578842Y-89599500D01*
X147421158Y-89599500D01*
X147421155Y-89599500D01*
X147266505Y-89630261D01*
X147266498Y-89630264D01*
X147208931Y-89654108D01*
X147139462Y-89661575D01*
X147114029Y-89654107D01*
X146984098Y-89600288D01*
X146984086Y-89600285D01*
X146829442Y-89569524D01*
X146829439Y-89569524D01*
X146671755Y-89569524D01*
X146671752Y-89569524D01*
X146517108Y-89600284D01*
X146517107Y-89600285D01*
X146517104Y-89600286D01*
X146517100Y-89600287D01*
X146423054Y-89639241D01*
X146353587Y-89646709D01*
X146328160Y-89639243D01*
X146234110Y-89600287D01*
X146234103Y-89600285D01*
X146234102Y-89600285D01*
X146234101Y-89600284D01*
X146079458Y-89569524D01*
X146079455Y-89569524D01*
X145921771Y-89569524D01*
X145921768Y-89569524D01*
X145767123Y-89600285D01*
X145767111Y-89600288D01*
X145621440Y-89660626D01*
X145621427Y-89660633D01*
X145490324Y-89748234D01*
X145490320Y-89748237D01*
X145378826Y-89859731D01*
X145378823Y-89859735D01*
X145291222Y-89990838D01*
X145291215Y-89990851D01*
X145230877Y-90136522D01*
X145230874Y-90136534D01*
X145200113Y-90291177D01*
X145200113Y-90448870D01*
X145230874Y-90603513D01*
X145230876Y-90603521D01*
X145269363Y-90696438D01*
X145271645Y-90701946D01*
X145279114Y-90771416D01*
X145247839Y-90833895D01*
X145244770Y-90837075D01*
X145242454Y-90839390D01*
X145156206Y-90954602D01*
X145156202Y-90954609D01*
X145105908Y-91089455D01*
X145099501Y-91149054D01*
X145099501Y-91149061D01*
X145099500Y-91149073D01*
X144510499Y-91149073D01*
X144510499Y-91149066D01*
X144504091Y-91089455D01*
X144503457Y-91087756D01*
X144453797Y-90954609D01*
X144453793Y-90954602D01*
X144367547Y-90839393D01*
X144367544Y-90839390D01*
X144252335Y-90753144D01*
X144252328Y-90753140D01*
X144117482Y-90702846D01*
X144117483Y-90702846D01*
X144057883Y-90696439D01*
X144057881Y-90696438D01*
X144057873Y-90696438D01*
X144057865Y-90696438D01*
X141542282Y-90696438D01*
X141475243Y-90676753D01*
X141429488Y-90623949D01*
X141419544Y-90554791D01*
X141427719Y-90524989D01*
X141471658Y-90418913D01*
X141500500Y-90273918D01*
X141500500Y-90126082D01*
X141500500Y-90126079D01*
X141471659Y-89981092D01*
X141471658Y-89981091D01*
X141471658Y-89981087D01*
X141468696Y-89973938D01*
X141461229Y-89904470D01*
X141480157Y-89857597D01*
X141516498Y-89803210D01*
X141565084Y-89730495D01*
X141621658Y-89593913D01*
X141650500Y-89448918D01*
X141650500Y-89301082D01*
X141650500Y-89301079D01*
X141621659Y-89156092D01*
X141621658Y-89156091D01*
X141621658Y-89156087D01*
X141617540Y-89146146D01*
X141565087Y-89019511D01*
X141565080Y-89019498D01*
X141482951Y-88896584D01*
X141482948Y-88896580D01*
X141378419Y-88792051D01*
X141378415Y-88792048D01*
X141255501Y-88709919D01*
X141255488Y-88709912D01*
X141118917Y-88653343D01*
X141118907Y-88653340D01*
X140973920Y-88624500D01*
X140973918Y-88624500D01*
X140826082Y-88624500D01*
X140826080Y-88624500D01*
X140681092Y-88653340D01*
X140681082Y-88653343D01*
X140544511Y-88709912D01*
X140544498Y-88709919D01*
X140421584Y-88792048D01*
X140421580Y-88792051D01*
X140412181Y-88801451D01*
X140350858Y-88834936D01*
X140281166Y-88829952D01*
X140225233Y-88788080D01*
X140200816Y-88722616D01*
X140200500Y-88713770D01*
X140200500Y-86091219D01*
X140218683Y-86026576D01*
X140242285Y-85987941D01*
X140647927Y-85323920D01*
X141669499Y-85323920D01*
X141698340Y-85468907D01*
X141698343Y-85468917D01*
X141754914Y-85605493D01*
X141754915Y-85605495D01*
X141788735Y-85656111D01*
X141809612Y-85722789D01*
X141791126Y-85790168D01*
X141788735Y-85793889D01*
X141754915Y-85844504D01*
X141754914Y-85844506D01*
X141698343Y-85981082D01*
X141698340Y-85981092D01*
X141669500Y-86126079D01*
X141669500Y-86126082D01*
X141669500Y-86273918D01*
X141669500Y-86273920D01*
X141669499Y-86273920D01*
X141698340Y-86418907D01*
X141698343Y-86418917D01*
X141754912Y-86555488D01*
X141754919Y-86555501D01*
X141837048Y-86678415D01*
X141837051Y-86678419D01*
X141941580Y-86782948D01*
X141941584Y-86782951D01*
X142064498Y-86865080D01*
X142064511Y-86865087D01*
X142201082Y-86921656D01*
X142201087Y-86921658D01*
X142201091Y-86921658D01*
X142201092Y-86921659D01*
X142346079Y-86950500D01*
X142346082Y-86950500D01*
X142493918Y-86950500D01*
X142521541Y-86945005D01*
X142591132Y-86951231D01*
X142646310Y-86994093D01*
X142669556Y-87059982D01*
X142669356Y-87069005D01*
X142669500Y-87069005D01*
X142669500Y-87224907D01*
X142698723Y-87371822D01*
X142698725Y-87371830D01*
X142756052Y-87510231D01*
X142786707Y-87556109D01*
X142807585Y-87622787D01*
X142789100Y-87690167D01*
X142786707Y-87693891D01*
X142756052Y-87739768D01*
X142698725Y-87878169D01*
X142698723Y-87878177D01*
X142669500Y-88025092D01*
X142669500Y-88174907D01*
X142698723Y-88321822D01*
X142698725Y-88321830D01*
X142756051Y-88460229D01*
X142756056Y-88460238D01*
X142839280Y-88584790D01*
X142839283Y-88584794D01*
X142945205Y-88690716D01*
X142945209Y-88690719D01*
X143069761Y-88773943D01*
X143069767Y-88773946D01*
X143069768Y-88773947D01*
X143208170Y-88831275D01*
X143355092Y-88860499D01*
X143355096Y-88860500D01*
X143355097Y-88860500D01*
X143504904Y-88860500D01*
X143504905Y-88860499D01*
X143651830Y-88831275D01*
X143790232Y-88773947D01*
X143835110Y-88743959D01*
X143901784Y-88723081D01*
X143969165Y-88741564D01*
X144007103Y-88778170D01*
X144079619Y-88886697D01*
X144079622Y-88886701D01*
X144191116Y-88998195D01*
X144191120Y-88998198D01*
X144322223Y-89085799D01*
X144322236Y-89085806D01*
X144467907Y-89146144D01*
X144467912Y-89146146D01*
X144622562Y-89176908D01*
X144622565Y-89176909D01*
X144622567Y-89176909D01*
X144780253Y-89176909D01*
X144780254Y-89176908D01*
X144934906Y-89146146D01*
X145080588Y-89085803D01*
X145211698Y-88998198D01*
X145323198Y-88886698D01*
X145410803Y-88755588D01*
X145471146Y-88609906D01*
X145501909Y-88455251D01*
X145501909Y-88297567D01*
X145501909Y-88297564D01*
X145501908Y-88297562D01*
X145471147Y-88142919D01*
X145471146Y-88142912D01*
X145422513Y-88025500D01*
X145410806Y-87997236D01*
X145410799Y-87997223D01*
X145323198Y-87866120D01*
X145323195Y-87866116D01*
X145211701Y-87754622D01*
X145211697Y-87754619D01*
X145080594Y-87667018D01*
X145080581Y-87667011D01*
X144934910Y-87606673D01*
X144934898Y-87606670D01*
X144780254Y-87575909D01*
X144780251Y-87575909D01*
X144622567Y-87575909D01*
X144622564Y-87575909D01*
X144467919Y-87606670D01*
X144467907Y-87606673D01*
X144322236Y-87667011D01*
X144322225Y-87667017D01*
X144256963Y-87710624D01*
X144190285Y-87731501D01*
X144122905Y-87713016D01*
X144076216Y-87661037D01*
X144065040Y-87592067D01*
X144084971Y-87538631D01*
X144103947Y-87510232D01*
X144161275Y-87371830D01*
X144190500Y-87224903D01*
X144190500Y-87146153D01*
X145874500Y-87146153D01*
X145874500Y-87303846D01*
X145905261Y-87458489D01*
X145905264Y-87458501D01*
X145965602Y-87604172D01*
X145965609Y-87604185D01*
X146053210Y-87735288D01*
X146053213Y-87735292D01*
X146164707Y-87846786D01*
X146164711Y-87846789D01*
X146295814Y-87934390D01*
X146295827Y-87934397D01*
X146441498Y-87994735D01*
X146441503Y-87994737D01*
X146594107Y-88025092D01*
X146596153Y-88025499D01*
X146596156Y-88025500D01*
X146596158Y-88025500D01*
X146753844Y-88025500D01*
X146753845Y-88025499D01*
X146908497Y-87994737D01*
X147054179Y-87934394D01*
X147185289Y-87846789D01*
X147296789Y-87735289D01*
X147384394Y-87604179D01*
X147444737Y-87458497D01*
X147475500Y-87303842D01*
X147475500Y-87173615D01*
X148004500Y-87173615D01*
X148004500Y-87326384D01*
X148034300Y-87476197D01*
X148034302Y-87476205D01*
X148092759Y-87617334D01*
X148092764Y-87617343D01*
X148177629Y-87744351D01*
X148177632Y-87744355D01*
X148285644Y-87852367D01*
X148285648Y-87852370D01*
X148412656Y-87937235D01*
X148412662Y-87937238D01*
X148412663Y-87937239D01*
X148553795Y-87995698D01*
X148701569Y-88025092D01*
X148703615Y-88025499D01*
X148703619Y-88025500D01*
X148703620Y-88025500D01*
X148856381Y-88025500D01*
X148856382Y-88025499D01*
X149006205Y-87995698D01*
X149147337Y-87937239D01*
X149274352Y-87852370D01*
X149382370Y-87744352D01*
X149382372Y-87744348D01*
X149386234Y-87739644D01*
X149387879Y-87740994D01*
X149434073Y-87702363D01*
X149503395Y-87693632D01*
X149566433Y-87723766D01*
X149571282Y-87728361D01*
X149614707Y-87771786D01*
X149614711Y-87771789D01*
X149745814Y-87859390D01*
X149745827Y-87859397D01*
X149891498Y-87919735D01*
X149891503Y-87919737D01*
X150046153Y-87950499D01*
X150046156Y-87950500D01*
X150046158Y-87950500D01*
X150203844Y-87950500D01*
X150203845Y-87950499D01*
X150358497Y-87919737D01*
X150504179Y-87859394D01*
X150635289Y-87771789D01*
X150746789Y-87660289D01*
X150834394Y-87529179D01*
X150842243Y-87510231D01*
X150856340Y-87476197D01*
X150894737Y-87383497D01*
X150925500Y-87228842D01*
X150925500Y-87071158D01*
X150925500Y-87071155D01*
X150925499Y-87071153D01*
X150909657Y-86991510D01*
X150894737Y-86916503D01*
X150873437Y-86865080D01*
X150834397Y-86770827D01*
X150834390Y-86770814D01*
X150762967Y-86663922D01*
X150742089Y-86597244D01*
X150760574Y-86529864D01*
X150812552Y-86483174D01*
X150841875Y-86473414D01*
X150981415Y-86445658D01*
X151099511Y-86396741D01*
X151117990Y-86389087D01*
X151117990Y-86389086D01*
X151117997Y-86389084D01*
X151240918Y-86306951D01*
X151345453Y-86202416D01*
X151357344Y-86184618D01*
X151410953Y-86139815D01*
X151436255Y-86131892D01*
X151441167Y-86130915D01*
X151595822Y-86100152D01*
X151614262Y-86092514D01*
X154799500Y-86092514D01*
X154799500Y-86301361D01*
X154801226Y-86337357D01*
X154802313Y-86360042D01*
X154831597Y-86528210D01*
X154847107Y-86617281D01*
X154847107Y-86617282D01*
X154888875Y-86740974D01*
X154930643Y-86864668D01*
X154997843Y-86994093D01*
X155050966Y-87096408D01*
X155205244Y-87307051D01*
X155205248Y-87307056D01*
X155389881Y-87491689D01*
X155389886Y-87491693D01*
X155600529Y-87645971D01*
X155600532Y-87645972D01*
X155600534Y-87645974D01*
X155832270Y-87766295D01*
X156079657Y-87849831D01*
X156336896Y-87894625D01*
X156395590Y-87897438D01*
X156395607Y-87897438D01*
X158604393Y-87897438D01*
X158604410Y-87897438D01*
X158663104Y-87894625D01*
X158920343Y-87849831D01*
X159167730Y-87766295D01*
X159399466Y-87645974D01*
X159610119Y-87491689D01*
X159794751Y-87307057D01*
X159949036Y-87096404D01*
X160069357Y-86864668D01*
X160152893Y-86617281D01*
X160197687Y-86360042D01*
X160200500Y-86301348D01*
X160200500Y-86092528D01*
X160197687Y-86033834D01*
X160152893Y-85776595D01*
X160100404Y-85621153D01*
X160399500Y-85621153D01*
X160399500Y-85621158D01*
X160399500Y-85778842D01*
X160430263Y-85933497D01*
X160433166Y-85940506D01*
X160433167Y-85940510D01*
X160490602Y-86079172D01*
X160490609Y-86079185D01*
X160578210Y-86210288D01*
X160578213Y-86210292D01*
X160689707Y-86321786D01*
X160689711Y-86321789D01*
X160820814Y-86409390D01*
X160820827Y-86409397D01*
X160966498Y-86469735D01*
X160966503Y-86469737D01*
X161121153Y-86500499D01*
X161121156Y-86500500D01*
X161121158Y-86500500D01*
X161278844Y-86500500D01*
X161278845Y-86500499D01*
X161433497Y-86469737D01*
X161579179Y-86409394D01*
X161710289Y-86321789D01*
X161821789Y-86210289D01*
X161900484Y-86092514D01*
X169799500Y-86092514D01*
X169799500Y-86301361D01*
X169801226Y-86337357D01*
X169802313Y-86360042D01*
X169831597Y-86528210D01*
X169847107Y-86617281D01*
X169847107Y-86617282D01*
X169888875Y-86740974D01*
X169930643Y-86864668D01*
X169997843Y-86994093D01*
X170050966Y-87096408D01*
X170205244Y-87307051D01*
X170205248Y-87307056D01*
X170389881Y-87491689D01*
X170389886Y-87491693D01*
X170600529Y-87645971D01*
X170600532Y-87645972D01*
X170600534Y-87645974D01*
X170832270Y-87766295D01*
X171079657Y-87849831D01*
X171336896Y-87894625D01*
X171395590Y-87897438D01*
X171395607Y-87897438D01*
X173604393Y-87897438D01*
X173604410Y-87897438D01*
X173663104Y-87894625D01*
X173920343Y-87849831D01*
X174167730Y-87766295D01*
X174399466Y-87645974D01*
X174610119Y-87491689D01*
X174794751Y-87307057D01*
X174949036Y-87096404D01*
X175069357Y-86864668D01*
X175152893Y-86617281D01*
X175197687Y-86360042D01*
X175200500Y-86301348D01*
X175200500Y-86092528D01*
X175197687Y-86033834D01*
X175152893Y-85776595D01*
X175069357Y-85529208D01*
X174949036Y-85297472D01*
X174949034Y-85297470D01*
X174949033Y-85297467D01*
X174794755Y-85086824D01*
X174794751Y-85086819D01*
X174610118Y-84902186D01*
X174610113Y-84902182D01*
X174399470Y-84747904D01*
X174243748Y-84667051D01*
X174167730Y-84627581D01*
X173920343Y-84544045D01*
X173663104Y-84499251D01*
X173652098Y-84498723D01*
X173604423Y-84496438D01*
X173604410Y-84496438D01*
X172626424Y-84496438D01*
X172559385Y-84476753D01*
X172513630Y-84423949D01*
X172503686Y-84354791D01*
X172532711Y-84291235D01*
X172538743Y-84284757D01*
X172549461Y-84274038D01*
X172549464Y-84274035D01*
X172648013Y-84126547D01*
X172715894Y-83962666D01*
X172717794Y-83953117D01*
X172747159Y-83805488D01*
X172750500Y-83788691D01*
X172750500Y-83611309D01*
X172750500Y-83611306D01*
X172750499Y-83611304D01*
X172726223Y-83489257D01*
X172722621Y-83471153D01*
X173923500Y-83471153D01*
X173923500Y-83628846D01*
X173954261Y-83783489D01*
X173954264Y-83783501D01*
X174014602Y-83929172D01*
X174014609Y-83929185D01*
X174102210Y-84060288D01*
X174102213Y-84060292D01*
X174213707Y-84171786D01*
X174213711Y-84171789D01*
X174344814Y-84259390D01*
X174344827Y-84259397D01*
X174472913Y-84312451D01*
X174490503Y-84319737D01*
X174645153Y-84350499D01*
X174645156Y-84350500D01*
X174645158Y-84350500D01*
X174802844Y-84350500D01*
X174802845Y-84350499D01*
X174957497Y-84319737D01*
X175103179Y-84259394D01*
X175234289Y-84171789D01*
X175345789Y-84060289D01*
X175433394Y-83929179D01*
X175433711Y-83928415D01*
X175455869Y-83874918D01*
X175493737Y-83783497D01*
X175524500Y-83628842D01*
X175524500Y-83471158D01*
X175524500Y-83471155D01*
X175524499Y-83471153D01*
X175517772Y-83437334D01*
X175493737Y-83316503D01*
X175480394Y-83284289D01*
X175433397Y-83170827D01*
X175433390Y-83170814D01*
X175345789Y-83039711D01*
X175345786Y-83039707D01*
X175234292Y-82928213D01*
X175234288Y-82928210D01*
X175103185Y-82840609D01*
X175103172Y-82840602D01*
X174957501Y-82780264D01*
X174957489Y-82780261D01*
X174802845Y-82749500D01*
X174802842Y-82749500D01*
X174645158Y-82749500D01*
X174645155Y-82749500D01*
X174490510Y-82780261D01*
X174490498Y-82780264D01*
X174344827Y-82840602D01*
X174344814Y-82840609D01*
X174213711Y-82928210D01*
X174213707Y-82928213D01*
X174102213Y-83039707D01*
X174102210Y-83039711D01*
X174014609Y-83170814D01*
X174014602Y-83170827D01*
X173954264Y-83316498D01*
X173954261Y-83316510D01*
X173923500Y-83471153D01*
X172722621Y-83471153D01*
X172717891Y-83447377D01*
X172715894Y-83437334D01*
X172689324Y-83373187D01*
X172648016Y-83273459D01*
X172648009Y-83273446D01*
X172549464Y-83125965D01*
X172549461Y-83125961D01*
X172424038Y-83000538D01*
X172424034Y-83000535D01*
X172276553Y-82901990D01*
X172276540Y-82901983D01*
X172112667Y-82834106D01*
X172112658Y-82834103D01*
X171938694Y-82799500D01*
X171938691Y-82799500D01*
X171761309Y-82799500D01*
X171761306Y-82799500D01*
X171587341Y-82834103D01*
X171587332Y-82834106D01*
X171423459Y-82901983D01*
X171423446Y-82901990D01*
X171275965Y-83000535D01*
X171275961Y-83000538D01*
X171150538Y-83125961D01*
X171150535Y-83125965D01*
X171051990Y-83273446D01*
X171051983Y-83273459D01*
X170984106Y-83437332D01*
X170984103Y-83437341D01*
X170949500Y-83611304D01*
X170949500Y-83788695D01*
X170984103Y-83962658D01*
X170984106Y-83962667D01*
X171051983Y-84126540D01*
X171051990Y-84126553D01*
X171150535Y-84274034D01*
X171150538Y-84274038D01*
X171201116Y-84324616D01*
X171234601Y-84385939D01*
X171229617Y-84455631D01*
X171187745Y-84511564D01*
X171134708Y-84534458D01*
X171102868Y-84540003D01*
X171079656Y-84544045D01*
X171079655Y-84544045D01*
X170832270Y-84627581D01*
X170600529Y-84747904D01*
X170389886Y-84902182D01*
X170389881Y-84902186D01*
X170205248Y-85086819D01*
X170205244Y-85086824D01*
X170050966Y-85297467D01*
X169930643Y-85529208D01*
X169847107Y-85776593D01*
X169847107Y-85776594D01*
X169832175Y-85862341D01*
X169802313Y-86033834D01*
X169801961Y-86041170D01*
X169799500Y-86092514D01*
X161900484Y-86092514D01*
X161909394Y-86079179D01*
X161969737Y-85933497D01*
X162000500Y-85778842D01*
X162000500Y-85621158D01*
X162000500Y-85621155D01*
X162000499Y-85621153D01*
X161970871Y-85472205D01*
X161969737Y-85466503D01*
X161929148Y-85368511D01*
X161909397Y-85320827D01*
X161909390Y-85320814D01*
X161821789Y-85189711D01*
X161821786Y-85189707D01*
X161710292Y-85078213D01*
X161710288Y-85078210D01*
X161579185Y-84990609D01*
X161579172Y-84990602D01*
X161433501Y-84930264D01*
X161433489Y-84930261D01*
X161278845Y-84899500D01*
X161278842Y-84899500D01*
X161121158Y-84899500D01*
X161121155Y-84899500D01*
X160966510Y-84930261D01*
X160966498Y-84930264D01*
X160820827Y-84990602D01*
X160820814Y-84990609D01*
X160689711Y-85078210D01*
X160689707Y-85078213D01*
X160578213Y-85189707D01*
X160578210Y-85189711D01*
X160490609Y-85320814D01*
X160490602Y-85320827D01*
X160430264Y-85466498D01*
X160430261Y-85466510D01*
X160399500Y-85621153D01*
X160100404Y-85621153D01*
X160069357Y-85529208D01*
X159949036Y-85297472D01*
X159949034Y-85297470D01*
X159949033Y-85297467D01*
X159794755Y-85086824D01*
X159794751Y-85086819D01*
X159610118Y-84902186D01*
X159610113Y-84902182D01*
X159399470Y-84747904D01*
X159167735Y-84627583D01*
X159167720Y-84627577D01*
X159061987Y-84591873D01*
X159004769Y-84551775D01*
X158978313Y-84487108D01*
X158987097Y-84426940D01*
X158994737Y-84408497D01*
X159025500Y-84253842D01*
X159025500Y-84096158D01*
X159025500Y-84096155D01*
X159025499Y-84096153D01*
X159012927Y-84032948D01*
X158994737Y-83941503D01*
X158989629Y-83929172D01*
X158934397Y-83795827D01*
X158934390Y-83795814D01*
X158846789Y-83664711D01*
X158846786Y-83664707D01*
X158735292Y-83553213D01*
X158735288Y-83553210D01*
X158604185Y-83465609D01*
X158604172Y-83465602D01*
X158458501Y-83405264D01*
X158458489Y-83405261D01*
X158303845Y-83374500D01*
X158303842Y-83374500D01*
X158146158Y-83374500D01*
X158146155Y-83374500D01*
X157991510Y-83405261D01*
X157991498Y-83405264D01*
X157845827Y-83465602D01*
X157845814Y-83465609D01*
X157714711Y-83553210D01*
X157714707Y-83553213D01*
X157603213Y-83664707D01*
X157603210Y-83664711D01*
X157515609Y-83795814D01*
X157515602Y-83795827D01*
X157455264Y-83941498D01*
X157455261Y-83941510D01*
X157424500Y-84096153D01*
X157424500Y-84096158D01*
X157424500Y-84253842D01*
X157424500Y-84253844D01*
X157424499Y-84253844D01*
X157443278Y-84348246D01*
X157437051Y-84417838D01*
X157394188Y-84473015D01*
X157328298Y-84496260D01*
X157321661Y-84496438D01*
X156395576Y-84496438D01*
X156344232Y-84498899D01*
X156336896Y-84499251D01*
X156169846Y-84528340D01*
X156079656Y-84544045D01*
X156079655Y-84544045D01*
X155832270Y-84627581D01*
X155600529Y-84747904D01*
X155389886Y-84902182D01*
X155389881Y-84902186D01*
X155205248Y-85086819D01*
X155205244Y-85086824D01*
X155050966Y-85297467D01*
X154930643Y-85529208D01*
X154847107Y-85776593D01*
X154847107Y-85776594D01*
X154832175Y-85862341D01*
X154802313Y-86033834D01*
X154801961Y-86041170D01*
X154799500Y-86092514D01*
X151614262Y-86092514D01*
X151732371Y-86043592D01*
X151741497Y-86039812D01*
X151741497Y-86039811D01*
X151741504Y-86039809D01*
X151783472Y-86011767D01*
X151819131Y-85987941D01*
X151847619Y-85968904D01*
X151872614Y-85952204D01*
X151984114Y-85840704D01*
X152071719Y-85709594D01*
X152132062Y-85563912D01*
X152162825Y-85409257D01*
X152162825Y-85251573D01*
X152162825Y-85251570D01*
X152162824Y-85251568D01*
X152150519Y-85189707D01*
X152132062Y-85096918D01*
X152124313Y-85078210D01*
X152071722Y-84951242D01*
X152071715Y-84951229D01*
X151984114Y-84820126D01*
X151984111Y-84820122D01*
X151872617Y-84708628D01*
X151872613Y-84708625D01*
X151741510Y-84621024D01*
X151741497Y-84621017D01*
X151595826Y-84560679D01*
X151595814Y-84560676D01*
X151441170Y-84529915D01*
X151441167Y-84529915D01*
X151283483Y-84529915D01*
X151283480Y-84529915D01*
X151128835Y-84560676D01*
X151128823Y-84560679D01*
X150983152Y-84621017D01*
X150983139Y-84621024D01*
X150852036Y-84708625D01*
X150852032Y-84708628D01*
X150740535Y-84820125D01*
X150658845Y-84942385D01*
X150605233Y-84987190D01*
X150579936Y-84995111D01*
X150543593Y-85002340D01*
X150543586Y-85002342D01*
X150407013Y-85058912D01*
X150407000Y-85058919D01*
X150284086Y-85141048D01*
X150284082Y-85141051D01*
X150179553Y-85245580D01*
X150179550Y-85245584D01*
X150097421Y-85368498D01*
X150097414Y-85368511D01*
X150040845Y-85505082D01*
X150040842Y-85505092D01*
X150012002Y-85650079D01*
X150012002Y-85650082D01*
X150012002Y-85797918D01*
X150012002Y-85797920D01*
X150012001Y-85797920D01*
X150040842Y-85942907D01*
X150040845Y-85942917D01*
X150097414Y-86079488D01*
X150097424Y-86079506D01*
X150148943Y-86156610D01*
X150169821Y-86223287D01*
X150151336Y-86290667D01*
X150099357Y-86337357D01*
X150052136Y-86348071D01*
X150052218Y-86348903D01*
X150046153Y-86349500D01*
X149891510Y-86380261D01*
X149891498Y-86380264D01*
X149745827Y-86440602D01*
X149745814Y-86440609D01*
X149614711Y-86528210D01*
X149614707Y-86528213D01*
X149503211Y-86639709D01*
X149492313Y-86656020D01*
X149438699Y-86700824D01*
X149369374Y-86709530D01*
X149306347Y-86679374D01*
X149301531Y-86674808D01*
X149274355Y-86647632D01*
X149274351Y-86647629D01*
X149147343Y-86562764D01*
X149147334Y-86562759D01*
X149006205Y-86504302D01*
X149006197Y-86504300D01*
X148856384Y-86474500D01*
X148856380Y-86474500D01*
X148703620Y-86474500D01*
X148703615Y-86474500D01*
X148553802Y-86504300D01*
X148553794Y-86504302D01*
X148412665Y-86562759D01*
X148412656Y-86562764D01*
X148285648Y-86647629D01*
X148285644Y-86647632D01*
X148177632Y-86755644D01*
X148177629Y-86755648D01*
X148092764Y-86882656D01*
X148092759Y-86882665D01*
X148034302Y-87023794D01*
X148034300Y-87023802D01*
X148004500Y-87173615D01*
X147475500Y-87173615D01*
X147475500Y-87146158D01*
X147475500Y-87146155D01*
X147475499Y-87146153D01*
X147458358Y-87059982D01*
X147444737Y-86991503D01*
X147418504Y-86928170D01*
X147384397Y-86845827D01*
X147384390Y-86845814D01*
X147296789Y-86714711D01*
X147296786Y-86714707D01*
X147185292Y-86603213D01*
X147185288Y-86603210D01*
X147054185Y-86515609D01*
X147054172Y-86515602D01*
X146908501Y-86455264D01*
X146908489Y-86455261D01*
X146753845Y-86424500D01*
X146753842Y-86424500D01*
X146596158Y-86424500D01*
X146596155Y-86424500D01*
X146441510Y-86455261D01*
X146441498Y-86455264D01*
X146295827Y-86515602D01*
X146295814Y-86515609D01*
X146164711Y-86603210D01*
X146164707Y-86603213D01*
X146053213Y-86714707D01*
X146053210Y-86714711D01*
X145965609Y-86845814D01*
X145965602Y-86845827D01*
X145905264Y-86991498D01*
X145905261Y-86991510D01*
X145874500Y-87146153D01*
X144190500Y-87146153D01*
X144190500Y-87075097D01*
X144161275Y-86928170D01*
X144103947Y-86789768D01*
X144103946Y-86789767D01*
X144103943Y-86789761D01*
X144020719Y-86665209D01*
X144020716Y-86665205D01*
X143914794Y-86559283D01*
X143914790Y-86559280D01*
X143790238Y-86476056D01*
X143790229Y-86476051D01*
X143651830Y-86418725D01*
X143651822Y-86418723D01*
X143504907Y-86389500D01*
X143504903Y-86389500D01*
X143355097Y-86389500D01*
X143355096Y-86389500D01*
X143318688Y-86396741D01*
X143249097Y-86390512D01*
X143193921Y-86347647D01*
X143170678Y-86281757D01*
X143170500Y-86275123D01*
X143170500Y-86126079D01*
X143141659Y-85981092D01*
X143141658Y-85981091D01*
X143141658Y-85981087D01*
X143141656Y-85981082D01*
X143085087Y-85844511D01*
X143085084Y-85844506D01*
X143085084Y-85844505D01*
X143053957Y-85797920D01*
X143051265Y-85793891D01*
X143030387Y-85727214D01*
X143048871Y-85659834D01*
X143051265Y-85656109D01*
X143074620Y-85621155D01*
X143085084Y-85605495D01*
X143141658Y-85468913D01*
X143161632Y-85368498D01*
X143170500Y-85323920D01*
X143170500Y-85176079D01*
X143141659Y-85031092D01*
X143141658Y-85031091D01*
X143141658Y-85031087D01*
X143134780Y-85014481D01*
X143085087Y-84894511D01*
X143085080Y-84894498D01*
X143002951Y-84771584D01*
X143002948Y-84771580D01*
X142898419Y-84667051D01*
X142898415Y-84667048D01*
X142775501Y-84584919D01*
X142775488Y-84584912D01*
X142638917Y-84528343D01*
X142638907Y-84528340D01*
X142493920Y-84499500D01*
X142493918Y-84499500D01*
X142346082Y-84499500D01*
X142346080Y-84499500D01*
X142201092Y-84528340D01*
X142201082Y-84528343D01*
X142064511Y-84584912D01*
X142064498Y-84584919D01*
X141941584Y-84667048D01*
X141941580Y-84667051D01*
X141837051Y-84771580D01*
X141837048Y-84771584D01*
X141754919Y-84894498D01*
X141754912Y-84894511D01*
X141698343Y-85031082D01*
X141698340Y-85031092D01*
X141669500Y-85176079D01*
X141669500Y-85176082D01*
X141669500Y-85323918D01*
X141669500Y-85323920D01*
X141669499Y-85323920D01*
X140647927Y-85323920D01*
X140680076Y-85271293D01*
X140682300Y-85267788D01*
X140696919Y-85245584D01*
X141216218Y-84456832D01*
X141218541Y-84453431D01*
X141779622Y-83660992D01*
X141782057Y-83657675D01*
X141883730Y-83523920D01*
X143274499Y-83523920D01*
X143303340Y-83668907D01*
X143303343Y-83668917D01*
X143359912Y-83805488D01*
X143359919Y-83805501D01*
X143442048Y-83928415D01*
X143442051Y-83928419D01*
X143546580Y-84032948D01*
X143546584Y-84032951D01*
X143669498Y-84115080D01*
X143669511Y-84115087D01*
X143716661Y-84134617D01*
X143771065Y-84178458D01*
X143793130Y-84244752D01*
X143775851Y-84312451D01*
X143738101Y-84352279D01*
X143690211Y-84384278D01*
X143690205Y-84384283D01*
X143584283Y-84490205D01*
X143584280Y-84490209D01*
X143501056Y-84614761D01*
X143501051Y-84614770D01*
X143443725Y-84753169D01*
X143443723Y-84753177D01*
X143414500Y-84900092D01*
X143414500Y-85049907D01*
X143443723Y-85196822D01*
X143443725Y-85196830D01*
X143501051Y-85335229D01*
X143501056Y-85335238D01*
X143584280Y-85459790D01*
X143584283Y-85459794D01*
X143690205Y-85565716D01*
X143690209Y-85565719D01*
X143814761Y-85648943D01*
X143814770Y-85648948D01*
X143846123Y-85661934D01*
X143953170Y-85706275D01*
X144058440Y-85727214D01*
X144100092Y-85735499D01*
X144100096Y-85735500D01*
X144100097Y-85735500D01*
X144249904Y-85735500D01*
X144249905Y-85735499D01*
X144396830Y-85706275D01*
X144535232Y-85648947D01*
X144659791Y-85565719D01*
X144765719Y-85459791D01*
X144848947Y-85335232D01*
X144906275Y-85196830D01*
X144935500Y-85049903D01*
X144935500Y-84900097D01*
X144906275Y-84753170D01*
X144851537Y-84621021D01*
X144848948Y-84614770D01*
X144848943Y-84614761D01*
X144765719Y-84490209D01*
X144765716Y-84490205D01*
X144659794Y-84384283D01*
X144659790Y-84384280D01*
X144535238Y-84301056D01*
X144535229Y-84301051D01*
X144482226Y-84279097D01*
X144427823Y-84235256D01*
X144405758Y-84168962D01*
X144423037Y-84101263D01*
X144460788Y-84061434D01*
X144503416Y-84032951D01*
X144607951Y-83928416D01*
X144690084Y-83805495D01*
X144746658Y-83668913D01*
X144764267Y-83580388D01*
X144775500Y-83523920D01*
X144775500Y-83476291D01*
X144795185Y-83409252D01*
X144830606Y-83373191D01*
X144853416Y-83357951D01*
X144957951Y-83253416D01*
X145040084Y-83130495D01*
X145067761Y-83063674D01*
X145111601Y-83009273D01*
X145177895Y-82987207D01*
X145245594Y-83004486D01*
X145293205Y-83055622D01*
X145296883Y-83063676D01*
X145334912Y-83155488D01*
X145334919Y-83155501D01*
X145417048Y-83278415D01*
X145417051Y-83278419D01*
X145521581Y-83382949D01*
X145521584Y-83382951D01*
X145604898Y-83438619D01*
X145649702Y-83492230D01*
X145658410Y-83561555D01*
X145654668Y-83577715D01*
X145653341Y-83582088D01*
X145624500Y-83727079D01*
X145624500Y-83727082D01*
X145624500Y-83874918D01*
X145624500Y-83874920D01*
X145624499Y-83874920D01*
X145653340Y-84019907D01*
X145653343Y-84019917D01*
X145709912Y-84156488D01*
X145709919Y-84156501D01*
X145768060Y-84243515D01*
X145788938Y-84310193D01*
X145786576Y-84336592D01*
X145782396Y-84357608D01*
X145782396Y-84357615D01*
X145782396Y-84505451D01*
X145782396Y-84505453D01*
X145782395Y-84505453D01*
X145811236Y-84650440D01*
X145811239Y-84650450D01*
X145867808Y-84787021D01*
X145867815Y-84787034D01*
X145949944Y-84909948D01*
X145949947Y-84909952D01*
X146054476Y-85014481D01*
X146054480Y-85014484D01*
X146177394Y-85096613D01*
X146177407Y-85096620D01*
X146284674Y-85141051D01*
X146313983Y-85153191D01*
X146313987Y-85153191D01*
X146313988Y-85153192D01*
X146458975Y-85182033D01*
X146458978Y-85182033D01*
X146606816Y-85182033D01*
X146704358Y-85162629D01*
X146751809Y-85153191D01*
X146875873Y-85101802D01*
X146888384Y-85096620D01*
X146888384Y-85096619D01*
X146888391Y-85096617D01*
X147011312Y-85014484D01*
X147115847Y-84909949D01*
X147197980Y-84787028D01*
X147254554Y-84650446D01*
X147266205Y-84591873D01*
X147283396Y-84505453D01*
X147283396Y-84357612D01*
X147254555Y-84212625D01*
X147254554Y-84212624D01*
X147254554Y-84212620D01*
X147240404Y-84178458D01*
X147197983Y-84076044D01*
X147197976Y-84076031D01*
X147139834Y-83989016D01*
X147118956Y-83922339D01*
X147121319Y-83895934D01*
X147125500Y-83874918D01*
X147125500Y-83727082D01*
X147125500Y-83727079D01*
X147096659Y-83582092D01*
X147096658Y-83582088D01*
X147096658Y-83582087D01*
X147092249Y-83571443D01*
X147040087Y-83445511D01*
X147040080Y-83445498D01*
X146957951Y-83322584D01*
X146957948Y-83322580D01*
X146938352Y-83302984D01*
X146904867Y-83241661D01*
X146909851Y-83171969D01*
X146951723Y-83116036D01*
X147017187Y-83091619D01*
X147073484Y-83100741D01*
X147123981Y-83121658D01*
X147123985Y-83121658D01*
X147123986Y-83121659D01*
X147268973Y-83150500D01*
X147268976Y-83150500D01*
X147416814Y-83150500D01*
X147517381Y-83130495D01*
X147561807Y-83121658D01*
X147698389Y-83065084D01*
X147821310Y-82982951D01*
X147925845Y-82878416D01*
X148007978Y-82755495D01*
X148023439Y-82718166D01*
X148067279Y-82663766D01*
X148133573Y-82641700D01*
X148201272Y-82658979D01*
X148248883Y-82710115D01*
X148262000Y-82765621D01*
X148262000Y-82889496D01*
X148292761Y-83044139D01*
X148292764Y-83044151D01*
X148353102Y-83189822D01*
X148353109Y-83189835D01*
X148440710Y-83320938D01*
X148440713Y-83320942D01*
X148552207Y-83432436D01*
X148552211Y-83432439D01*
X148683314Y-83520040D01*
X148683327Y-83520047D01*
X148807427Y-83571450D01*
X148829003Y-83580387D01*
X148983653Y-83611149D01*
X148983656Y-83611150D01*
X148983658Y-83611150D01*
X149141344Y-83611150D01*
X149141345Y-83611149D01*
X149295997Y-83580387D01*
X149408666Y-83533717D01*
X149441672Y-83520047D01*
X149441672Y-83520046D01*
X149441679Y-83520044D01*
X149473293Y-83498920D01*
X152299332Y-83498920D01*
X152328173Y-83643907D01*
X152328176Y-83643917D01*
X152384745Y-83780488D01*
X152384752Y-83780501D01*
X152466881Y-83903415D01*
X152466884Y-83903419D01*
X152571413Y-84007948D01*
X152571417Y-84007951D01*
X152694331Y-84090080D01*
X152694344Y-84090087D01*
X152782382Y-84126553D01*
X152830920Y-84146658D01*
X152830924Y-84146658D01*
X152830925Y-84146659D01*
X152975912Y-84175500D01*
X152975915Y-84175500D01*
X153123753Y-84175500D01*
X153221295Y-84156096D01*
X153268746Y-84146658D01*
X153405328Y-84090084D01*
X153528249Y-84007951D01*
X153632784Y-83903416D01*
X153714917Y-83780495D01*
X153751257Y-83692760D01*
X153795096Y-83638360D01*
X153818365Y-83625654D01*
X153949225Y-83571450D01*
X153949225Y-83571449D01*
X153949232Y-83571447D01*
X154073791Y-83488219D01*
X154179719Y-83382291D01*
X154262947Y-83257732D01*
X154320275Y-83119330D01*
X154349500Y-82972403D01*
X154349500Y-82822597D01*
X154320275Y-82675670D01*
X154315344Y-82663766D01*
X154299295Y-82625018D01*
X154282161Y-82583653D01*
X176849500Y-82583653D01*
X176849500Y-82741346D01*
X176880261Y-82895989D01*
X176880264Y-82896001D01*
X176940602Y-83041672D01*
X176940609Y-83041685D01*
X177028210Y-83172788D01*
X177028213Y-83172792D01*
X177139707Y-83284286D01*
X177139711Y-83284289D01*
X177270814Y-83371890D01*
X177270827Y-83371897D01*
X177416498Y-83432235D01*
X177416503Y-83432237D01*
X177571153Y-83462999D01*
X177571156Y-83463000D01*
X177571158Y-83463000D01*
X177728844Y-83463000D01*
X177728845Y-83462999D01*
X177883497Y-83432237D01*
X178019068Y-83376082D01*
X178029172Y-83371897D01*
X178029172Y-83371896D01*
X178029179Y-83371894D01*
X178160289Y-83284289D01*
X178271789Y-83172789D01*
X178359394Y-83041679D01*
X178419737Y-82895997D01*
X178450500Y-82741342D01*
X178450500Y-82583658D01*
X178450500Y-82583655D01*
X178450499Y-82583653D01*
X178445015Y-82556082D01*
X178419737Y-82429003D01*
X178375243Y-82321584D01*
X178359397Y-82283327D01*
X178359390Y-82283314D01*
X178271789Y-82152211D01*
X178271786Y-82152207D01*
X178160292Y-82040713D01*
X178160288Y-82040710D01*
X178029185Y-81953109D01*
X178029172Y-81953102D01*
X177883501Y-81892764D01*
X177883489Y-81892761D01*
X177728845Y-81862000D01*
X177728842Y-81862000D01*
X177571158Y-81862000D01*
X177571155Y-81862000D01*
X177416510Y-81892761D01*
X177416498Y-81892764D01*
X177270827Y-81953102D01*
X177270814Y-81953109D01*
X177139711Y-82040710D01*
X177139707Y-82040713D01*
X177028213Y-82152207D01*
X177028210Y-82152211D01*
X176940609Y-82283314D01*
X176940602Y-82283327D01*
X176880264Y-82428998D01*
X176880261Y-82429010D01*
X176849500Y-82583653D01*
X154282161Y-82583653D01*
X154262948Y-82537271D01*
X154262947Y-82537268D01*
X154262945Y-82537265D01*
X154262943Y-82537261D01*
X154179719Y-82412709D01*
X154179716Y-82412705D01*
X154073791Y-82306780D01*
X153949229Y-82223551D01*
X153949230Y-82223551D01*
X153945756Y-82222113D01*
X153944214Y-82220870D01*
X153943854Y-82220678D01*
X153943890Y-82220609D01*
X153891351Y-82178273D01*
X153874125Y-82137707D01*
X153873427Y-82137919D01*
X153871656Y-82132082D01*
X153815087Y-81995511D01*
X153815077Y-81995493D01*
X153761888Y-81915889D01*
X153741010Y-81849212D01*
X153759495Y-81781832D01*
X153761888Y-81778109D01*
X153802572Y-81717220D01*
X153823942Y-81685240D01*
X153823943Y-81685237D01*
X153823947Y-81685232D01*
X153849343Y-81623920D01*
X156899499Y-81623920D01*
X156928340Y-81768907D01*
X156928343Y-81768917D01*
X156984912Y-81905488D01*
X156984919Y-81905501D01*
X157067048Y-82028415D01*
X157067051Y-82028419D01*
X157171580Y-82132948D01*
X157171584Y-82132951D01*
X157294498Y-82215080D01*
X157294511Y-82215087D01*
X157370567Y-82246590D01*
X157431087Y-82271658D01*
X157431091Y-82271658D01*
X157431092Y-82271659D01*
X157576079Y-82300500D01*
X157576082Y-82300500D01*
X157723920Y-82300500D01*
X157841660Y-82277079D01*
X157868913Y-82271658D01*
X157985054Y-82223551D01*
X158005488Y-82215087D01*
X158005488Y-82215086D01*
X158005495Y-82215084D01*
X158128416Y-82132951D01*
X158232951Y-82028416D01*
X158315084Y-81905495D01*
X158371658Y-81768913D01*
X158388302Y-81685240D01*
X158400500Y-81623920D01*
X158400500Y-81476079D01*
X158372488Y-81335258D01*
X158371659Y-81331092D01*
X158371658Y-81331091D01*
X158371658Y-81331087D01*
X158371656Y-81331082D01*
X158365886Y-81317153D01*
X161599500Y-81317153D01*
X161599500Y-81474846D01*
X161630261Y-81629489D01*
X161630264Y-81629501D01*
X161690602Y-81775172D01*
X161690609Y-81775185D01*
X161778210Y-81906288D01*
X161778213Y-81906292D01*
X161889707Y-82017786D01*
X161889711Y-82017789D01*
X162020814Y-82105390D01*
X162020827Y-82105397D01*
X162133838Y-82152207D01*
X162166503Y-82165737D01*
X162298792Y-82192051D01*
X162321153Y-82196499D01*
X162321156Y-82196500D01*
X162321158Y-82196500D01*
X162478844Y-82196500D01*
X162478845Y-82196499D01*
X162633497Y-82165737D01*
X162768262Y-82109916D01*
X162779172Y-82105397D01*
X162779172Y-82105396D01*
X162779179Y-82105394D01*
X162910289Y-82017789D01*
X163021789Y-81906289D01*
X163109394Y-81775179D01*
X163111990Y-81768913D01*
X163144019Y-81691586D01*
X163169737Y-81629497D01*
X163200500Y-81474842D01*
X163200500Y-81317158D01*
X163200500Y-81317155D01*
X163200499Y-81317153D01*
X163191922Y-81274034D01*
X163169737Y-81162503D01*
X163152818Y-81121656D01*
X163109397Y-81016827D01*
X163109390Y-81016814D01*
X163021789Y-80885711D01*
X163021786Y-80885707D01*
X162910292Y-80774213D01*
X162910288Y-80774210D01*
X162811676Y-80708319D01*
X162811674Y-80708317D01*
X162779190Y-80686612D01*
X162779172Y-80686602D01*
X162633501Y-80626264D01*
X162633489Y-80626261D01*
X162558296Y-80611304D01*
X181974500Y-80611304D01*
X181974500Y-80788695D01*
X182009103Y-80962658D01*
X182009106Y-80962667D01*
X182076983Y-81126540D01*
X182076990Y-81126553D01*
X182175535Y-81274034D01*
X182175538Y-81274038D01*
X182300961Y-81399461D01*
X182300965Y-81399464D01*
X182448446Y-81498009D01*
X182448459Y-81498016D01*
X182531585Y-81532447D01*
X182612334Y-81565894D01*
X182612336Y-81565894D01*
X182612341Y-81565896D01*
X182786304Y-81600499D01*
X182786307Y-81600500D01*
X182786309Y-81600500D01*
X182963693Y-81600500D01*
X182963694Y-81600499D01*
X183021682Y-81588964D01*
X183137658Y-81565896D01*
X183137661Y-81565894D01*
X183137666Y-81565894D01*
X183301547Y-81498013D01*
X183449035Y-81399464D01*
X183574464Y-81274035D01*
X183673013Y-81126547D01*
X183675039Y-81121657D01*
X183698470Y-81065087D01*
X183740894Y-80962666D01*
X183756202Y-80885711D01*
X183775499Y-80788695D01*
X183775500Y-80788693D01*
X183775500Y-80611306D01*
X183775499Y-80611304D01*
X183740896Y-80437341D01*
X183740893Y-80437332D01*
X183673016Y-80273459D01*
X183673009Y-80273446D01*
X183574464Y-80125965D01*
X183574461Y-80125961D01*
X183449038Y-80000538D01*
X183449034Y-80000535D01*
X183301553Y-79901990D01*
X183301540Y-79901983D01*
X183137667Y-79834106D01*
X183137658Y-79834103D01*
X182963694Y-79799500D01*
X182963691Y-79799500D01*
X182786309Y-79799500D01*
X182786306Y-79799500D01*
X182612341Y-79834103D01*
X182612332Y-79834106D01*
X182448459Y-79901983D01*
X182448446Y-79901990D01*
X182300965Y-80000535D01*
X182300961Y-80000538D01*
X182175538Y-80125961D01*
X182175535Y-80125965D01*
X182076990Y-80273446D01*
X182076983Y-80273459D01*
X182009106Y-80437332D01*
X182009103Y-80437341D01*
X181974500Y-80611304D01*
X162558296Y-80611304D01*
X162478845Y-80595500D01*
X162478842Y-80595500D01*
X162321158Y-80595500D01*
X162321155Y-80595500D01*
X162166510Y-80626261D01*
X162166498Y-80626264D01*
X162020827Y-80686602D01*
X162020814Y-80686609D01*
X161889711Y-80774210D01*
X161889707Y-80774213D01*
X161778213Y-80885707D01*
X161778210Y-80885711D01*
X161690609Y-81016814D01*
X161690602Y-81016827D01*
X161630264Y-81162498D01*
X161630261Y-81162510D01*
X161599500Y-81317153D01*
X158365886Y-81317153D01*
X158315087Y-81194511D01*
X158315080Y-81194498D01*
X158232951Y-81071584D01*
X158232948Y-81071580D01*
X158128419Y-80967051D01*
X158128415Y-80967048D01*
X158005501Y-80884919D01*
X158005488Y-80884912D01*
X157868917Y-80828343D01*
X157868907Y-80828340D01*
X157723920Y-80799500D01*
X157723918Y-80799500D01*
X157576082Y-80799500D01*
X157576080Y-80799500D01*
X157431092Y-80828340D01*
X157431082Y-80828343D01*
X157294511Y-80884912D01*
X157294498Y-80884919D01*
X157171584Y-80967048D01*
X157171580Y-80967051D01*
X157067051Y-81071580D01*
X157067048Y-81071584D01*
X156984919Y-81194498D01*
X156984912Y-81194511D01*
X156928343Y-81331082D01*
X156928340Y-81331092D01*
X156899500Y-81476079D01*
X156899500Y-81476082D01*
X156899500Y-81623918D01*
X156899500Y-81623920D01*
X156899499Y-81623920D01*
X153849343Y-81623920D01*
X153881275Y-81546830D01*
X153910500Y-81399903D01*
X153910500Y-81250097D01*
X153881275Y-81103170D01*
X153824892Y-80967049D01*
X153823948Y-80964770D01*
X153823943Y-80964761D01*
X153740719Y-80840209D01*
X153740716Y-80840205D01*
X153634794Y-80734283D01*
X153634790Y-80734280D01*
X153510238Y-80651056D01*
X153510229Y-80651051D01*
X153371830Y-80593725D01*
X153371822Y-80593723D01*
X153224907Y-80564500D01*
X153224903Y-80564500D01*
X153075097Y-80564500D01*
X153075092Y-80564500D01*
X152928177Y-80593723D01*
X152928169Y-80593725D01*
X152789770Y-80651051D01*
X152789761Y-80651056D01*
X152665209Y-80734280D01*
X152665205Y-80734283D01*
X152559283Y-80840205D01*
X152559280Y-80840209D01*
X152476056Y-80964761D01*
X152476051Y-80964770D01*
X152418725Y-81103169D01*
X152418723Y-81103177D01*
X152389500Y-81250092D01*
X152389500Y-81399907D01*
X152418723Y-81546822D01*
X152418725Y-81546830D01*
X152476051Y-81685229D01*
X152476056Y-81685238D01*
X152538111Y-81778109D01*
X152558989Y-81844787D01*
X152540505Y-81912167D01*
X152538112Y-81915890D01*
X152484918Y-81995500D01*
X152484912Y-81995511D01*
X152428343Y-82132082D01*
X152428340Y-82132092D01*
X152399500Y-82277079D01*
X152399500Y-82277082D01*
X152399500Y-82424918D01*
X152399500Y-82424920D01*
X152399499Y-82424920D01*
X152428340Y-82569907D01*
X152428343Y-82569917D01*
X152484912Y-82706488D01*
X152484918Y-82706499D01*
X152517321Y-82754994D01*
X152538198Y-82821672D01*
X152519713Y-82889052D01*
X152501900Y-82911564D01*
X152466885Y-82946579D01*
X152466881Y-82946584D01*
X152384752Y-83069498D01*
X152384745Y-83069511D01*
X152328176Y-83206082D01*
X152328173Y-83206092D01*
X152299333Y-83351079D01*
X152299333Y-83351082D01*
X152299333Y-83498918D01*
X152299333Y-83498920D01*
X152299332Y-83498920D01*
X149473293Y-83498920D01*
X149572789Y-83432439D01*
X149684289Y-83320939D01*
X149708780Y-83284286D01*
X149714251Y-83276099D01*
X149771890Y-83189835D01*
X149771890Y-83189834D01*
X149771894Y-83189829D01*
X149832237Y-83044147D01*
X149863000Y-82889492D01*
X149863000Y-82731808D01*
X149863000Y-82731805D01*
X149862999Y-82731803D01*
X149857965Y-82706495D01*
X149832237Y-82577153D01*
X149817562Y-82541723D01*
X149771897Y-82431477D01*
X149771890Y-82431464D01*
X149684289Y-82300361D01*
X149684286Y-82300357D01*
X149572792Y-82188863D01*
X149572788Y-82188860D01*
X149441685Y-82101259D01*
X149441672Y-82101252D01*
X149296001Y-82040914D01*
X149295989Y-82040911D01*
X149141345Y-82010150D01*
X149141342Y-82010150D01*
X148983658Y-82010150D01*
X148983655Y-82010150D01*
X148829010Y-82040911D01*
X148828998Y-82040914D01*
X148683327Y-82101252D01*
X148683314Y-82101259D01*
X148552211Y-82188860D01*
X148552207Y-82188863D01*
X148440713Y-82300357D01*
X148440710Y-82300361D01*
X148353109Y-82431464D01*
X148353102Y-82431477D01*
X148331955Y-82482533D01*
X148288114Y-82536937D01*
X148221820Y-82559002D01*
X148154121Y-82541723D01*
X148106510Y-82490586D01*
X148093394Y-82435081D01*
X148093394Y-82326079D01*
X148064553Y-82181092D01*
X148064552Y-82181091D01*
X148064552Y-82181087D01*
X148046671Y-82137919D01*
X148007981Y-82044511D01*
X148007974Y-82044498D01*
X147925845Y-81921584D01*
X147925842Y-81921580D01*
X147821313Y-81817051D01*
X147821309Y-81817048D01*
X147698395Y-81734919D01*
X147698382Y-81734912D01*
X147561811Y-81678343D01*
X147561801Y-81678340D01*
X147416814Y-81649500D01*
X147416812Y-81649500D01*
X147268976Y-81649500D01*
X147268974Y-81649500D01*
X147123986Y-81678340D01*
X147123976Y-81678343D01*
X146992451Y-81732822D01*
X146922981Y-81740291D01*
X146876109Y-81721364D01*
X146873005Y-81719290D01*
X146829696Y-81690352D01*
X146829693Y-81690350D01*
X146829692Y-81690350D01*
X146693118Y-81633779D01*
X146693108Y-81633776D01*
X146548121Y-81604936D01*
X146548119Y-81604936D01*
X146525321Y-81604936D01*
X146458282Y-81585251D01*
X146412527Y-81532447D01*
X146402583Y-81463289D01*
X146403704Y-81456744D01*
X146413001Y-81410005D01*
X146413001Y-81262164D01*
X146401934Y-81206529D01*
X146408161Y-81136937D01*
X146451024Y-81081760D01*
X146516913Y-81058515D01*
X146571004Y-81067776D01*
X146701087Y-81121658D01*
X146701091Y-81121658D01*
X146701092Y-81121659D01*
X146846079Y-81150500D01*
X146846082Y-81150500D01*
X146993920Y-81150500D01*
X147091462Y-81131096D01*
X147138913Y-81121658D01*
X147275495Y-81065084D01*
X147398416Y-80982951D01*
X147502951Y-80878416D01*
X147585084Y-80755495D01*
X147641658Y-80618913D01*
X147652482Y-80564500D01*
X147670500Y-80473920D01*
X147670500Y-80326079D01*
X147641659Y-80181092D01*
X147641658Y-80181091D01*
X147641658Y-80181087D01*
X147585751Y-80046115D01*
X147585087Y-80044511D01*
X147585080Y-80044498D01*
X147502951Y-79921584D01*
X147502948Y-79921580D01*
X147398419Y-79817051D01*
X147398415Y-79817048D01*
X147275501Y-79734919D01*
X147275488Y-79734912D01*
X147138917Y-79678343D01*
X147138907Y-79678340D01*
X146993920Y-79649500D01*
X146993918Y-79649500D01*
X146846082Y-79649500D01*
X146846080Y-79649500D01*
X146701092Y-79678340D01*
X146701082Y-79678343D01*
X146564511Y-79734912D01*
X146564498Y-79734919D01*
X146441584Y-79817048D01*
X146441580Y-79817051D01*
X146337051Y-79921580D01*
X146337048Y-79921584D01*
X146254919Y-80044498D01*
X146254912Y-80044511D01*
X146198343Y-80181082D01*
X146198340Y-80181092D01*
X146169500Y-80326079D01*
X146169500Y-80326082D01*
X146169500Y-80473918D01*
X146172422Y-80488610D01*
X146180567Y-80529557D01*
X146174339Y-80599148D01*
X146131475Y-80654325D01*
X146065585Y-80677569D01*
X146011497Y-80668308D01*
X145881418Y-80614428D01*
X145881408Y-80614425D01*
X145736421Y-80585585D01*
X145736419Y-80585585D01*
X145588583Y-80585585D01*
X145588581Y-80585585D01*
X145443593Y-80614425D01*
X145443583Y-80614428D01*
X145307012Y-80670997D01*
X145306999Y-80671004D01*
X145184085Y-80753133D01*
X145184081Y-80753136D01*
X145079552Y-80857665D01*
X145079549Y-80857669D01*
X144997420Y-80980583D01*
X144997413Y-80980596D01*
X144940844Y-81117167D01*
X144940841Y-81117177D01*
X144912001Y-81262164D01*
X144912001Y-81262167D01*
X144912001Y-81410003D01*
X144912001Y-81410005D01*
X144912000Y-81410005D01*
X144940841Y-81554992D01*
X144940844Y-81555002D01*
X144997413Y-81691573D01*
X144997420Y-81691586D01*
X145079549Y-81814500D01*
X145079552Y-81814504D01*
X145184081Y-81919033D01*
X145184085Y-81919036D01*
X145306999Y-82001165D01*
X145307011Y-82001172D01*
X145372786Y-82028416D01*
X145439933Y-82056229D01*
X145494336Y-82100068D01*
X145516401Y-82166362D01*
X145499122Y-82234062D01*
X145480162Y-82258470D01*
X145417048Y-82321584D01*
X145334919Y-82444498D01*
X145334914Y-82444508D01*
X145307238Y-82511324D01*
X145263396Y-82565728D01*
X145197102Y-82587792D01*
X145129403Y-82570512D01*
X145081793Y-82519375D01*
X145078117Y-82511327D01*
X145050441Y-82444508D01*
X145040087Y-82419511D01*
X145040080Y-82419498D01*
X144957951Y-82296584D01*
X144957948Y-82296580D01*
X144853419Y-82192051D01*
X144853415Y-82192048D01*
X144730501Y-82109919D01*
X144730488Y-82109912D01*
X144593917Y-82053343D01*
X144593907Y-82053340D01*
X144448920Y-82024500D01*
X144448918Y-82024500D01*
X144301082Y-82024500D01*
X144301080Y-82024500D01*
X144156092Y-82053340D01*
X144156082Y-82053343D01*
X144019511Y-82109912D01*
X144019498Y-82109919D01*
X143896584Y-82192048D01*
X143896580Y-82192051D01*
X143792051Y-82296580D01*
X143792048Y-82296584D01*
X143709919Y-82419498D01*
X143709912Y-82419511D01*
X143653343Y-82556082D01*
X143653340Y-82556092D01*
X143624500Y-82701079D01*
X143624500Y-82748707D01*
X143604815Y-82815746D01*
X143569392Y-82851808D01*
X143546586Y-82867046D01*
X143546580Y-82867051D01*
X143442051Y-82971580D01*
X143442048Y-82971584D01*
X143359919Y-83094498D01*
X143359912Y-83094511D01*
X143303343Y-83231082D01*
X143303340Y-83231092D01*
X143274500Y-83376079D01*
X143274500Y-83376082D01*
X143274500Y-83523918D01*
X143274500Y-83523920D01*
X143274499Y-83523920D01*
X141883730Y-83523920D01*
X142369618Y-82884716D01*
X142372186Y-82881455D01*
X142985576Y-82128831D01*
X142988224Y-82125692D01*
X143626755Y-81394246D01*
X143629511Y-81391195D01*
X144292457Y-80681762D01*
X144295316Y-80678805D01*
X144981868Y-79992252D01*
X144984847Y-79989373D01*
X145694256Y-79326445D01*
X145697307Y-79323690D01*
X146428723Y-78685182D01*
X146431927Y-78682480D01*
X146466106Y-78654624D01*
X147184536Y-78069099D01*
X147187777Y-78066549D01*
X147595515Y-77756608D01*
X147960716Y-77479002D01*
X147964100Y-77476518D01*
X148031432Y-77428844D01*
X148756502Y-76915460D01*
X148759875Y-76913156D01*
X149570869Y-76379211D01*
X149574368Y-76376993D01*
X149577472Y-76375097D01*
X150329614Y-75915620D01*
X150394257Y-75897438D01*
X152732575Y-75897438D01*
X152799614Y-75917123D01*
G37*
%TD.AperFunction*%
%TD*%
M02*
