%TF.GenerationSoftware,KiCad,Pcbnew,9.0.5*%
%TF.CreationDate,2025-10-15T13:23:28+02:00*%
%TF.ProjectId,gaia-muon,67616961-2d6d-4756-9f6e-2e6b69636164,10*%
%TF.SameCoordinates,Original*%
%TF.FileFunction,Paste,Top*%
%TF.FilePolarity,Positive*%
%FSLAX46Y46*%
G04 Gerber Fmt 4.6, Leading zero omitted, Abs format (unit mm)*
G04 Created by KiCad (PCBNEW 9.0.5) date 2025-10-15 13:23:28*
%MOMM*%
%LPD*%
G01*
G04 APERTURE LIST*
G04 Aperture macros list*
%AMRoundRect*
0 Rectangle with rounded corners*
0 $1 Rounding radius*
0 $2 $3 $4 $5 $6 $7 $8 $9 X,Y pos of 4 corners*
0 Add a 4 corners polygon primitive as box body*
4,1,4,$2,$3,$4,$5,$6,$7,$8,$9,$2,$3,0*
0 Add four circle primitives for the rounded corners*
1,1,$1+$1,$2,$3*
1,1,$1+$1,$4,$5*
1,1,$1+$1,$6,$7*
1,1,$1+$1,$8,$9*
0 Add four rect primitives between the rounded corners*
20,1,$1+$1,$2,$3,$4,$5,0*
20,1,$1+$1,$4,$5,$6,$7,0*
20,1,$1+$1,$6,$7,$8,$9,0*
20,1,$1+$1,$8,$9,$2,$3,0*%
%AMFreePoly0*
4,1,77,1.316848,3.199528,1.349699,3.192030,1.380057,3.177410,1.406402,3.156402,1.427410,3.130057,1.442030,3.099699,1.449528,3.066848,1.450000,3.050000,1.450000,1.450000,3.050000,1.450000,3.066848,1.449528,3.099699,1.442030,3.130057,1.427410,3.156402,1.406402,3.177410,1.380057,3.192030,1.349699,3.199528,1.316848,3.200000,1.300000,3.200000,-1.300000,3.199528,-1.316848,
3.192030,-1.349699,3.177410,-1.380057,3.156402,-1.406402,3.130057,-1.427410,3.099699,-1.442030,3.066848,-1.449528,3.050000,-1.450000,1.450000,-1.450000,1.450000,-3.050000,1.449528,-3.066848,1.442030,-3.099699,1.427410,-3.130057,1.406402,-3.156402,1.380057,-3.177410,1.349699,-3.192030,1.316848,-3.199528,1.300000,-3.200000,-1.300000,-3.200000,-1.316848,-3.199528,-1.349699,-3.192030,
-1.380057,-3.177410,-1.406402,-3.156402,-1.427410,-3.130057,-1.442030,-3.099699,-1.449528,-3.066848,-1.450000,-3.050000,-1.450000,-1.450000,-3.050000,-1.450000,-3.066848,-1.449528,-3.099699,-1.442030,-3.130057,-1.427410,-3.156402,-1.406402,-3.177410,-1.380057,-3.192030,-1.349699,-3.199528,-1.316848,-3.200000,-1.300000,-3.200000,1.300000,-3.199528,1.316848,-3.192030,1.349699,-3.177410,1.380057,
-3.156402,1.406402,-3.130057,1.427410,-3.099699,1.442030,-3.066848,1.449528,-3.050000,1.450000,-1.450000,1.450000,-1.450000,3.050000,-1.449528,3.066848,-1.442030,3.099699,-1.427410,3.130057,-1.406402,3.156402,-1.380057,3.177410,-1.349699,3.192030,-1.316848,3.199528,-1.300000,3.200000,1.300000,3.200000,1.316848,3.199528,1.316848,3.199528,$1*%
G04 Aperture macros list end*
%ADD10RoundRect,0.162500X-0.650000X-0.162500X0.650000X-0.162500X0.650000X0.162500X-0.650000X0.162500X0*%
%ADD11RoundRect,0.150000X0.587500X0.150000X-0.587500X0.150000X-0.587500X-0.150000X0.587500X-0.150000X0*%
%ADD12FreePoly0,0.000000*%
%ADD13RoundRect,0.150000X-0.400000X-0.150000X0.400000X-0.150000X0.400000X0.150000X-0.400000X0.150000X0*%
%ADD14RoundRect,0.150000X-0.150000X0.400000X-0.150000X-0.400000X0.150000X-0.400000X0.150000X0.400000X0*%
%ADD15RoundRect,0.150000X0.150000X-0.400000X0.150000X0.400000X-0.150000X0.400000X-0.150000X-0.400000X0*%
%ADD16RoundRect,0.140000X0.140000X0.170000X-0.140000X0.170000X-0.140000X-0.170000X0.140000X-0.170000X0*%
%ADD17RoundRect,0.250000X0.262500X0.450000X-0.262500X0.450000X-0.262500X-0.450000X0.262500X-0.450000X0*%
%ADD18RoundRect,0.135000X0.185000X-0.135000X0.185000X0.135000X-0.185000X0.135000X-0.185000X-0.135000X0*%
%ADD19RoundRect,0.250000X-0.262500X-0.450000X0.262500X-0.450000X0.262500X0.450000X-0.262500X0.450000X0*%
%ADD20RoundRect,0.135000X-0.135000X-0.185000X0.135000X-0.185000X0.135000X0.185000X-0.135000X0.185000X0*%
%ADD21RoundRect,0.218750X-0.256250X0.218750X-0.256250X-0.218750X0.256250X-0.218750X0.256250X0.218750X0*%
%ADD22RoundRect,0.250000X-0.475000X0.250000X-0.475000X-0.250000X0.475000X-0.250000X0.475000X0.250000X0*%
%ADD23RoundRect,0.135000X0.135000X0.185000X-0.135000X0.185000X-0.135000X-0.185000X0.135000X-0.185000X0*%
%ADD24RoundRect,0.250000X0.250000X0.475000X-0.250000X0.475000X-0.250000X-0.475000X0.250000X-0.475000X0*%
%ADD25RoundRect,0.250000X-0.250000X-0.475000X0.250000X-0.475000X0.250000X0.475000X-0.250000X0.475000X0*%
%ADD26RoundRect,0.250000X0.450000X-0.262500X0.450000X0.262500X-0.450000X0.262500X-0.450000X-0.262500X0*%
G04 APERTURE END LIST*
D10*
%TO.C,U5*%
X150325000Y-79000000D03*
X150325000Y-80270000D03*
X150325000Y-81540000D03*
X150325000Y-82810000D03*
X157500000Y-82810000D03*
X157500000Y-81540000D03*
X157500000Y-80270000D03*
X157500000Y-79000000D03*
%TD*%
D11*
%TO.C,U4*%
X144850000Y-114450000D03*
X144850000Y-112550000D03*
X142975000Y-113500000D03*
%TD*%
%TO.C,Q1*%
X166515000Y-119650000D03*
X166515000Y-117750000D03*
X164640000Y-118700000D03*
%TD*%
D12*
%TO.C,U7*%
X165000000Y-100696938D03*
D13*
X162000000Y-97846938D03*
D14*
X167850000Y-97696938D03*
D13*
X168000000Y-103546938D03*
D15*
X162150000Y-103696938D03*
%TD*%
D16*
%TO.C,C28*%
X144180000Y-84950000D03*
X143220000Y-84950000D03*
%TD*%
D17*
%TO.C,R4*%
X162662500Y-118400000D03*
X160837500Y-118400000D03*
%TD*%
D16*
%TO.C,C29*%
X144180000Y-85900000D03*
X143220000Y-85900000D03*
%TD*%
D18*
%TO.C,R22*%
X174500000Y-77310000D03*
X174500000Y-76290000D03*
%TD*%
D19*
%TO.C,R18*%
X146687500Y-114200000D03*
X148512500Y-114200000D03*
%TD*%
D20*
%TO.C,R23*%
X151440000Y-77500000D03*
X152460000Y-77500000D03*
%TD*%
D19*
%TO.C,R28*%
X146037500Y-88950000D03*
X147862500Y-88950000D03*
%TD*%
D21*
%TO.C,D4*%
X176100000Y-78475000D03*
X176100000Y-80050000D03*
%TD*%
D16*
%TO.C,C31*%
X148780000Y-87250000D03*
X147820000Y-87250000D03*
%TD*%
D22*
%TO.C,C11*%
X148600000Y-116050000D03*
X148600000Y-117950000D03*
%TD*%
D16*
%TO.C,C35*%
X149830000Y-84600000D03*
X148870000Y-84600000D03*
%TD*%
D23*
%TO.C,R24*%
X153510000Y-76450000D03*
X152490000Y-76450000D03*
%TD*%
D24*
%TO.C,C21*%
X157700000Y-77000000D03*
X155800000Y-77000000D03*
%TD*%
D18*
%TO.C,R21*%
X176100000Y-77310000D03*
X176100000Y-76290000D03*
%TD*%
D21*
%TO.C,D5*%
X174500000Y-78475000D03*
X174500000Y-80050000D03*
%TD*%
D25*
%TO.C,C12*%
X144900000Y-116450000D03*
X146800000Y-116450000D03*
%TD*%
D26*
%TO.C,R29*%
X146300000Y-87200000D03*
X146300000Y-85375000D03*
%TD*%
M02*
